<mxfile host="app.diagrams.net" modified="2022-11-21T19:54:59.978Z" agent="5.0 (Macintosh)" etag="ySjVeSCXeOudc-7-sAss" version="20.5.3" type="github">
  <diagram id="oqAVcgrim2P9SWWaFb-P" name="Page-1">
    <mxGraphModel dx="792" dy="561" grid="1" gridSize="10" guides="1" tooltips="1" connect="1" arrows="1" fold="1" page="1" pageScale="1" pageWidth="850" pageHeight="1100" math="0" shadow="0">
      <root>
        <mxCell id="0" />
        <mxCell id="1" parent="0" />
        <mxCell id="apr-sub5BIUsWkMAFzWg-6" value="" style="rounded=0;whiteSpace=wrap;html=1;" parent="1" vertex="1">
          <mxGeometry x="280" y="110" width="490" height="400" as="geometry" />
        </mxCell>
        <mxCell id="apr-sub5BIUsWkMAFzWg-31" value="" style="rounded=0;whiteSpace=wrap;html=1;strokeColor=#000000;strokeWidth=1;fontSize=20;fillColor=#E6E6E6;" parent="1" vertex="1">
          <mxGeometry x="574" y="429" width="190" height="30" as="geometry" />
        </mxCell>
        <mxCell id="apr-sub5BIUsWkMAFzWg-1" value="" style="pointerEvents=1;verticalLabelPosition=bottom;shadow=0;dashed=0;align=center;html=1;verticalAlign=top;shape=mxgraph.electrical.resistors.resistor_with_instrument_or_relay_shunt;" parent="1" vertex="1">
          <mxGeometry x="466" y="430" width="100" height="20" as="geometry" />
        </mxCell>
        <mxCell id="apr-sub5BIUsWkMAFzWg-2" value="" style="pointerEvents=1;verticalLabelPosition=bottom;shadow=0;dashed=0;align=center;html=1;verticalAlign=top;shape=mxgraph.electrical.resistors.resistor_1;" parent="1" vertex="1">
          <mxGeometry x="317" y="430" width="90" height="20" as="geometry" />
        </mxCell>
        <mxCell id="apr-sub5BIUsWkMAFzWg-28" style="edgeStyle=orthogonalEdgeStyle;rounded=0;orthogonalLoop=1;jettySize=auto;html=1;exitX=1;exitY=0.5;exitDx=0;exitDy=0;exitPerimeter=0;entryX=0;entryY=0.8;entryDx=0;entryDy=0;entryPerimeter=0;strokeColor=#FF0000;strokeWidth=5;fontSize=20;endArrow=none;endFill=0;" parent="1" source="apr-sub5BIUsWkMAFzWg-3" target="apr-sub5BIUsWkMAFzWg-29" edge="1">
          <mxGeometry relative="1" as="geometry">
            <Array as="points">
              <mxPoint x="560" y="480" />
              <mxPoint x="560" y="450" />
              <mxPoint x="760" y="450" />
            </Array>
          </mxGeometry>
        </mxCell>
        <mxCell id="apr-sub5BIUsWkMAFzWg-3" value="" style="pointerEvents=1;verticalLabelPosition=bottom;shadow=0;dashed=0;align=center;html=1;verticalAlign=top;shape=mxgraph.electrical.resistors.resistor_1;" parent="1" vertex="1">
          <mxGeometry x="360" y="470" width="100" height="20" as="geometry" />
        </mxCell>
        <mxCell id="apr-sub5BIUsWkMAFzWg-14" style="edgeStyle=orthogonalEdgeStyle;rounded=0;orthogonalLoop=1;jettySize=auto;html=1;exitX=0.75;exitY=1;exitDx=0;exitDy=0;entryX=0;entryY=0.5;entryDx=0;entryDy=0;entryPerimeter=0;fontSize=30;strokeColor=#3333FF;strokeWidth=5;endArrow=none;endFill=0;" parent="1" source="apr-sub5BIUsWkMAFzWg-5" target="apr-sub5BIUsWkMAFzWg-2" edge="1">
          <mxGeometry relative="1" as="geometry" />
        </mxCell>
        <mxCell id="apr-sub5BIUsWkMAFzWg-5" value="&lt;font style=&quot;font-size: 30px;&quot;&gt;FE-20&lt;/font&gt;" style="rounded=0;whiteSpace=wrap;html=1;fillColor=#E6E6E6;strokeColor=#23445d;" parent="1" vertex="1">
          <mxGeometry x="90" y="110" width="160" height="200" as="geometry" />
        </mxCell>
        <mxCell id="apr-sub5BIUsWkMAFzWg-7" value="Interface Box" style="text;html=1;align=center;verticalAlign=middle;resizable=0;points=[];autosize=1;strokeColor=none;fillColor=none;fontSize=30;" parent="1" vertex="1">
          <mxGeometry x="290" y="135" width="200" height="50" as="geometry" />
        </mxCell>
        <mxCell id="apr-sub5BIUsWkMAFzWg-8" value="EV Charger" style="text;html=1;align=center;verticalAlign=middle;resizable=0;points=[];autosize=1;strokeColor=none;fillColor=none;fontSize=30;" parent="1" vertex="1">
          <mxGeometry x="80" y="60" width="180" height="50" as="geometry" />
        </mxCell>
        <mxCell id="apr-sub5BIUsWkMAFzWg-12" value="" style="shape=image;verticalLabelPosition=bottom;labelBackgroundColor=default;verticalAlign=top;aspect=fixed;imageAspect=0;image=data:image/png,iVBORw0KGgoAAAANSUhEUgAAAkkAAAGlCAYAAADu7mJQAAAAAXNSR0IArs4c6QAAAIRlWElmTU0AKgAAAAgABQESAAMAAAABAAEAAAEaAAUAAAABAAAASgEbAAUAAAABAAAAUgEoAAMAAAABAAIAAIdpAAQAAAABAAAAWgAAAAAAAABgAAAAAQAAAGAAAAABAAOgAQADAAAAAQABAACgAgAEAAAAAQAAAkmgAwAEAAAAAQAAAaUAAAAAFTy3IAAAAAlwSFlzAAAOxAAADsQBlSsOGwAAQABJREFUeAHs3QW8ZVX5N/ANQ0hKCdIzdIMg3d3doYSEhAkq8kdK9EVQFAMQaRCkuxEG6VJACclRUEIBGWIYat71XcMa9hzOuXPv3Jgbz/p8zj3n7r32it+K57ee51lrTzRq1KhtqwiBQCAQCAQCgUAgEAgEAmMhMFEiSaPGuhL/BAKBQCAQCAQCgUAgEAhUEwcGgUAgEAgEAoFAIBAIBAKfRiBI0qcxiSuBQCAQCAQCgUAgEAiEJin6QCAQCAQCgUAgEAgEAs0QCE1SM1TiWiAQCAQCgUAgEAgMeASCJA34LhAABAKBQCAQCAQCgUAzBIIkNUMlrgUCgUAgEAgEAoHAgEcgSNKA7wIBQCAQCAQCgUAgEAg0QyBIUjNU4logEAgEAoFAIBAIDHgEgiQN+C4QAAQCgUAgEAgEAoFAMwSCJDVDJa4FAoFAIBAIBAKBwIBHIEjSgO8CAUAgEAgEAoFAIBAINEMgSFIzVOJaIBAIBAKBQCAQCAx4BIIkDfguEAAEAoFAIBAIBAKBQDMEgiQ1QyWuBQKBQCAQCAQCgcCARyBI0oDvAgFAIBAIBAKBQCAQCDRDIEhSM1TiWiAQCAQCgUAgEAgMeAQmGfAIBACBQCAQCPRiBF599dXqtddeqwYNGlTNOeec1aSTTtqLS9u1RRs1alT11ltvVf/5z38qv2ebbbZq8sknryaeeOz1vXsTTTRR12bexam999571X//+9/q9ddfrz744IOcunKXMNlkk1XTTDNNNcsss1R+twrSeO6553Jak0wySe4Tc889dzXFFFO0eiSudwKBIEmdAC8eDQQCgUCgOxEgRB966KHqtttuq6accspqn332qaabbrpeTwi6ChP1RwiuvfbaTCy+9KUvVXPNNVcmCP/617+qjz76qFp44YWrz3zmM12VZbel87///a8aOnRodd9991VvvvnmGKJXiBLiN/XUU1fzzDNPteKKK1aLLLLIWMQHOfrLX/5S3XHHHdUzzzxTvfHGG5k4zzzzzNViiy1WLb/88tUXvvCFNglWt1WuHyccJKkfN25ULRAIBPo2AgTogw8+WP3ud7+rZphhhmrnnXeuPvvZzw4okvT0009XZ599dkUTs8EGG1S0JojC5ZdfXn3+85+vvvOd7/QJkkSDdMMNN1S///3vc6f83Oc+V9EEaeMPP/ywGjFiRPX222/ntt1pp52qvffeu1pppZVy3OHDh1c333xzddxxx1V//etfM2Gefvrp83OvvPJK1i6uv/761UEHHVQtvfTSQZS6cNgHSepCMCOpQCAQCAS6GgFmJFoGH797u1mpq+svPXVHKHyEBx54oLruuuuqbbbZps/gQeuFDAnbb799hQgVE5l7zIpPPPFEddJJJ1UXXHBBrteSSy5ZTTXVVNXtt99enXrqqZkg7bnnntXaa6+dNWojR47MWqUTTzyxuuyyy7J26bTTTsv3ckbxp9MIBEnqNISRQCAQCAQC3YcAUsQfyae94d13361oYF544YVMMJiohgwZkv15pPGPf/wjC+XZZ5+9mnbaaXOcIqiff/75rK2ipSmkhIaDb9Q777yTNTlFuJfy0IbQlDCB0XjNOOOMY2l3pM3c9OKLL2ZzYf3+sGHDKh9pe3ahhRbKcaQtXfUv5Xj//fdzHurF3OT74YcfztoTGrYSlEOaxSSlnoMHD87mrHq6fjNdiYvA8PkST1lhyJSlrkiaQKPz2GOPZR8x5GXeeeet5phjjnyvlDX/0+KPONpxwQUXrNZYY41cL9cEGDGXwfq3v/1t9cgjj1RPPfVUtdRSS2Xy9Pjjj+f89tprr3zNM3ybECn1VOZ77rknt60ylTKLF2H8EQiSNP7YxZOBQCAQCGThDgZ+Md0hmJAE6bY37Weffba69dZbq7vvvrt6+eWXM8lAEpZbbrlqnXXWyUL93nvvre66665q5ZVXziYsDsM0GYTsVVddlf1hNtpoo0yI1O1vf/tbTpPJi19UI0lSRoTl3HPPrZiBNtlkk2rxxRf3aA4cr/lVKde2226bfW6QImVggkJUaEUQHc+tueaa1TLLLJMJhXoXkuSZEh9hQhwuueSSbH7ik4OoyYffDxz4/igzkrjKKqtUTFIcoxEV5i0aKRoYZEQ+4vHv+fe//501OFtvvXX2EVI2GNx0002ZvCAkSNJ8882X8WPigmF7Aqz4lXm+MTAlzj///Lk+CBmHfUFd1cOzyJTgNyd+n6222ir/D0/9EHlqy/k7JxB/2oVAkKR2wRSRAoFAIBD4NAK0AAQ8YUbAL7DAAt1CluRTNA6fLsUnVwhvppcLL7yw4qtCo0Bg3njjjdn5GWnad999szbkjDPOqP7+979nh18CXh34+TD3cBxGrAhtgcPxb37zm/w/5+lmQd7XXHNNJmaIUp0kITPnnHNOdfXVV2eiRtAjagcffHAmOrRZPkjORRddlM1oX//613PZ6gQRWVFm9ZCGOvLRkTfSwyx1yCGHVP/85z8zEeHsjqDx5/nTn/6UCe2Xv/zlTGhooH784x+PcYqnxeL/hXTReCk/EkkDJy5c+BPRgimr/BC2+++/vzrwwAOrDTfcsBksTa95FvHxKQFxo61DbuFA2yQfgTO3tuDET8uE7CFzNF1IkrbSrsx4yFdHtI4l//hujkCQpOa4xNVAIBAIBNqFgB1HhCfBRkhtuummmSy16+EujITkXHrppWO0OUcddVS13XbbZZLE8fmss86qjj/++GyeGZxMSkgAoavcNCjFJ0aRXnrpperJJ5/MpWN2QnLcp4kqgrux6NJYb731MpmSLm2MLfuC/5GZsgvL7xNOOCHv1tpvv/2yQ7oywfKwww7L2iyaEPGRAAQRoUBkvve972WTFPKz1lprZVJE6yRNRI5WaLfddqu+8Y1vVLPOOmsuxw9/+MPqiiuuyAQMJnaK0XohT3yDdt9996zBQdyOOOKITJIcNUBjRhslLmxXXXXVfJ/miKYK0TzllFMytsgTbV2rUDQ/CMwf//jHXCd1K1oy7UBbhUgi3PyOFl100ZwczRpCeMwxx1RnnnlmJpzwZp5DppBaGCBNEboWgSBJXYtnpBYITHAECBQTcoTuRwDOxVRFo0CjQWNBA7Haaqtl35Ge2p5OC8GZmU8Lwb/HHntUM800UwaB9oep6mc/+1k2RSEfSyyxRDav2WLPr4WQ9ts2dGkVkoQM8GGioVCnZmYimRDQNBynn3569eijj2bSgiQpD00M89GOO+6YiQsTF9OefJV1hRVWyOWUvl1dxx57bCZWtEZ8hYpmBKFAlJirkBg7xJArAbFgIqTRUQ5HAwjw5zukXoiGoDxMckjUrrvuWq2R/IMEZKQQPOMIUeODJL7fW2yxRSYlMJAvUohAaXsEqy2SRCOmHvoMbRFc1QcurqsnIqjs6qEsxaypnltuuWWuO2JH44WEXn/99Zno/eEPf8gETjvbEYd8Sc+nroEsZfAdoX0IBElqH04RKxDoMwiYhK1+aQMIbaEVaTKZclYlYIogKhVlziBYmS4IulZpiEe7wNeDmaVZIHSZMGglmgUTufwJMuUpwqEel9lIOurF7NLWRE+ocDwmSBsDQSQNArMuQOrx1MmzSEYxadTv+81HBDbDPnY6do0Ww4dGwIfmgeOtVT9sOusn0qq88tbWND7qvuyyy44hSO7xcyF0f/nLX2YnYFoHREl6yJAPoSsN94ozs//57SBQzD00G80wlQfTFs0Gx2vO354j8Gl47NrSx2zh187yQw7sTnMeUAnIB+JBa8NxGUlyDZlo7H/+9ymY6H+IhLbV1+SpTvou4iNf+Os72kg8eSNqJWgjRI02p5AMWCirPqGtmQ1LWYwz/VJfQjDbCsopDR9mUCRVeZRDPZUZhjCj7WocS0xqCKUy61ue4ZyPwMLKjjjaPv0VOVV/RFRZ5an++gbtm+9Sh7bKHPeqKkhS9IJAoB8iQAjwrSAcTM6NhMI1kyRSYuVuJW+CrgeTP6HAnGBCRqiaBWQBEeCsS8A0C1a+fE0IgpJ3PZ5J3IqfIyzfCn4gjYGw43PCbMInpRXhINxoEwjgYu6pp0Xg8Z3xUZZmAZEiSJiXNt98808JLM8w99AiFEfiejq0BD7yQJRgQzgNTtqHxraoP9fWb+3VlmDj54LUEpKNbSldRNYHdrBGZghihIVWhbBFTtVXnQhv7QZzgXlO2m2VAalcffXVMy5IEhyHJn8meSJqzFRIit1Y2k/7aPsStAcyhRjpV8xiytqYp3ie09blebjCQL+nzSt9TTrIjDSK+QzZ9qzy6ucluCZ/8RAOpF5/EZgz+XrJp/Qbv9WDRspYklerfqmc8JAfh3B+TPJBQGmCmGztypOfa4UkFRw8jwgaaz6CuPrZxRdfnJ9XPn0WznA/8sgjx2iVlEsb0rDp2xHah0CQpPbhFLECgT6FgFWtXUpW8eMKNAwm1UbBSmAQNFT6SFdbgdDhtIwQNAo0zzFZIEmEY6vgOWYRu5+akSQE4M9//nM2KcmvrcAcw6ejGUlCtpg7aAvaCmUH0rrrrjtGYNXjE5pOgkZECb9mQRykDqEi7GnJxpckSb+tZ2lbfJCQuuAv5VJGQt89whnhQZQIWSSCECZAmQppgmgpOHIjO7Cg+WjWtiV93+4T0gS0Nucwfsstt+S6f/GLX8ymyYKV/JCaQjhKOu67p67qIzTGcU1e4pQy0a58//vfzzvmBn9sClM/CwDlQCQQH2lqC8H/jUE/Q0yEkj/caAOlj1gpj09ZOEivvdvulRlZRYJodxBCCxXX+FvxJYPB/vvvn81ryKtrvouDeCFiTL3ahZZJGX7wgx9ks5/FBkLEP04exrK6wAUJjNB+BIIktR+riBkI9BkETJwcV5kKmgkiFTHJmziZG5qZUMqkyreF0CwCoREEE7pJuS0hSkDarVRW5Y1plLJYKTOTNQtW6kiYSd9KuwiwxrjKwy+DMGsWCCM+H9JrVSdCRTzksdXWbiRjl112yeWliaEtqQdpE1RMX2sknxfCWtnHJ8DHs8pSSEFjOoQf/BBj7V4PiCES4Ru+0uFojBDRvNAYIQEIIY0PwisfRBvBs8WcKW1cwTMwExfBYt5DsrRHOT0aLrCDMV8epK4EzyOdiBsiZ1cXUoc0waAEv30QjkLumZeQM47MtJG0d9JQTyd0M4nRoKg7Eo6ccBRHPuAmwBgRp9FBsI0L5AcBQZ6QEW3pWf2MOZIPljGmfbX3uII6lvKXuPoaTeNuyeH8F7/4RdYKIdT+lxetHo2ecsoDLoK0fIyFYspGoBAwbUDDVfLzDStp+B2hfQgESWofThErEOhTCCAtJlmTuMmTkGk2MZpcOcK2IkkEpy3TdUHWCIQJnzBqa4Vqwjaxt0pHGgQUYVTMDI35mOAJdX4xBGez+pRnCJ1W5SEk+b0QanBpFpQHNtIhpJoFAtduNuVGIgtJonUZnFbsSCOBithpj/ENpYy0Z0iAfNW9XPdNkCsHLQ7Cw4Eb2WGWcZ02h0ZLXTgXE5R+2xVl1xvy6sPfRfn1HfnQuAnaru471KouyoWcam9l5WSsfNoMWSzBfURM+py44aRdYKg8fInElyfSV7RjiJWgTogJbRdSgzgggOIhCYiRfg0zzzs7CdnTh6SBtDtXibnUzj/jBIY0sFdeeWXWoMJAP1B2xIs2CmlE8LSvZ5A8PkoIVXEUL3Vs/JYWYqWMNFX6cJ3oI24cr5GhYp7WPsrhjCeEjhmUtpVZG2ErOBSs1ZlPmbro/3CO0DkEgiR1Dr94OhDolQgQVghHK61MewotDeSpmcmqPc/X4xDIrchGPV5bvwkEpMWnM0E6iFgrMtbetGkxkA2fUiZ4M18yc/juDP6lHEVbQuPh3V0Fx0KSkOCSJyHrwEbC2xlANGYEMwHPr4xwpS1SZgEJIViRE3ggVtqdBoKpiuMvskQwtyKdpZz1b+kiifydkApEo+QpHqFP22VL+89//vNMCpABZl0aKPnRXnEW55SM2Gg3RENAxPRv5fNeO9pOWCNe6on8SJ85DUFyTb1og9SVtmuHHXbIpim+QEyDiAXSReMmwBehQcBghqTQGiFHsJEOEqhdEE95txWUvf5pjKt+tLrKhdzZLSc/JrSyO9EZWI5xYOZFymhDi5O8dt54440z4UQSI3QNAoOOSKFrkopUAoFAIBAYWAgQeoQ4c4jdYs74IbCt5mlGCObOBOlznpc+TQ+fLmYjH5oRH35jCA4iQnOEoMjXNnyaGloJwpTwddAiIkQgC7Qu0qeFQQbEUW4mMWQAyWEGsuMKiWhvoFlESJCTsi2/TrZpq2hOEBvEhEnOB/Hg+O1FrRzvBaYv5UBEpYV0Ie9IgWeZ5hAUBJDGhzbIln119xxckAf3kA+ERt7+ZwJEhOwKhCONHw0jh3EYyE8ZkSL3+G4hS8x3zHtw5U9Uf1VIK4w8q7zaEKnVR0o7lGe0G60d7LULkqeMyooUKTdS7HRzZE4b83vT5srw7W9/O7cTYh2haxCYKA3CTwy9XZNmpBIIBAKBwIBAwPRJ+0H40vAQpMVHpisAkD7TE6HID6v459TTpvGgpaF9QSAIfURBuZAowr7cF6cePEvYI11ICKIkvnzkWzRBNDod0SR5HulAkmilmG2Rr3qQN/InD/VDemi1aJQQOfHVH2FRH/ERHtcRMBocdWR2U27Yu448iO+69AYn0xhtmP8RLmnAxfENSIn7SIn8kU0HPfILgsf555+fCRKzGJKqPp5DTFxDHJWV6QtubQVEFPGBtTxh2orMwERcJIrJTD0Ez6obMqkMCJM2177S6wiRbausce8TBIIkfYJF/AoEAoFAoMMIEN6thF2HE+vFDyAsndGMdfb5roSGb4/t8gjYt771reyjhOQw0R199NGZKPF/c/wF01V76t1W/dq61556dfb59uQRcZojED5JzXGJq4FAn0aAD0dxcrXiHQhCfEI12EDBtj1Eoa026OzzbaXd0Xu0fjRLjoGgoWP+oiljmuQTRdu02Wabtdwh2Sy/turX1r1maTVe6+zzjenF/+1HIDRJ7ccqYgYCfQYBzpycUZk97OSpO832mUpEQQOBbkLAAoIPFE0R52umRZokZjMO515Vwlmbb1WEgY1AkKSB3f5R+36KgNWwXUN8NH76059mZ9h+WtWoViAwXgjw52Fe47TNR4m2hu8SfyF+RmXH4nglHg/1GwTC3NZvmjIqEgh8ggAHVa9mEAiACIFAIDA2Ao4QYFbziRAItEIg9gm2QiauBwJ9GAF+SMVU4HeE/oUAR14O48XvrFntxKn7pjWLE9cCgUCgbQRi9mwbn7gbCPRJBDgTDxSH4j7ZQJ0sNFOR83Zs97fFvrzLq56sLed805BkvjatjibgwFzfoYdcCfqPZ21DD8fhOrLxeyAhECRpILV21HVAIRCCrf82txOX7cxy0OE3v/nNsRzzOSF7LYnzfvwWnI/kUEjvMyvnHSFYzki64IIL8oGMzgkSkCSvzXC20ZZbbplfBdOKYOUH4k8g0I8RCJLUjxs3qhYIBAL9DwHvIrvooovyO8+838yJzyU41dk9r+VwurODGREehxM6CBEBQpSceE3T5PUl3l3mvCBOy7RH4tAuOWDRe+faMumVfOM7EOivCARJ6q8tG/Ua8AgUs8mAB6IfAWC34hlnnJHfz0bzUzeF+d9urZNPPjmfCr3BBhvkd345BgJpstX9hBNOyI7KTnH2ygunUzsnyKs6vLqDeQ0pQqyQJk7NzUx5/QjSqEog0CYCQZLahCduBgJ9EwE+Jj4R+g8CSM31119fXXLJJfn1FLRBdad898t75JwWfcABB+QXyTr/RzxkyPvMvOsMSaItKq8d2WWXXbJGCtEqDuHMtZ5tfL9Y/0E0ahIIjBuBIEnjxihiBAJ9DgHaA0JQ8DtC30cAATruuOOy/5H3dXHe9ilkGKFxtg8tEKduhMc1QRzmM1oiW98F5jbvP+P47YWx3knmf07eXrIaIRAIBKoqSFL0gkCgHyJA0PEnYZ5hNonQtxGg8aFBeuihh6ojjzwyv42eYzZCVMyqjnxgHltttdUy4fFuMgTZfU7eNE3rr79+fpM8NJyf5UWpyBRH8Pvuuy+/lFZ/WWGFFbIWyqGKEQKBgYxAkKSB3PpR936LwNJLL10dcsghWUgutNBC/baeA6FitEAIks+KK65Y7bTTTtVtt91WXXXVVWO0QnBgFkNq3PcW+9NOO6268847s0bxxRdfzPf22GOPvNMNubLzjTbp1VdfzYTJrjeEikZJ2jvssEN18MEHZ5IdOyUHQk+LOjZDIEhSM1TiWiDQxxGgSbI9nNArJpc+XqUBW/wrr7wyEyQmsWOOOSZvzaf9oSVqPA+Ltui1117LGibxbd1HnvQBzzDP6RNMsXbCedHrkksuWW299dZZA4U8XXHFFRUtlF1yjgHYbbfd8m64AdsAUfEBjUCQpAHd/FH5/ooAwRgOt327dfkPld1qfIw233zz/LJitaIBQpLEcd6RwDGbtunMM8+spp9++uqwww7Lmif9wM62G2+8sfrlL3+ZidFKK62U06N5mmaaafL7ypBqWqu55547a5ekxaQnX07iEQKBgYhAkKSB2OpR50AgEOj1CCBG3r93++23Z8dqGiJnGtH2DB06NDti0wy5tuOOO2bSxLfItv6vfvWr1b777pvJkop6aSvNETPcTTfdlE1viy22WCZEjUDQHi2zzDLVDTfckM9a8lyEQGCgIhAkaaC2fNQ7EAgEejUCtEUOgKQVQpD4CTG90fYgR0WDdPzxx2cShdjwM+J4vdRSS40hSCqJ+Ky55pqZJPFPeuGFF/LJ23azLbzwwtUMM8ww1qtH+CCVXXC0VRECgYGKQJCkgdryUe9AIBDo1QgwcW200UZ5yz9tDv8jBMmZR847uvfeezM52mKLLar11lsv+xrxMRo+fHg+R6leOdonu9kEhInv0qmnnlr9+te/ro4++uhq2223rWaaaaYxjzDzvfTSS3mHZJjaxsASPwYgAkGSBmCjR5X7PwKccwlU33xSYndS32tzTtd2KfIbKmddaU9ESHjssceyPxGCY9ebl9k69uGOO+6oLr300mq22WbL72vjtM0fyUndAi2TwyTFp6E65ZRTstYIIaOhorHivE2TtNlmm42lkcoJxJ9AYAAhECRpADV2VHXgIEAT8OCDD2b/lTXWWCO/w2vg1L5/1BS5tS2/vJC2XitO1siPHWzlLKNZZpklv1rEeUd/+ctfql/96lfVww8/nEnyPffck53Avarki1/8Yj4GwFlIXnorLmdvpAsZ46xtJxyH7Q033DATsXre8TsQGEgIDDoihYFU4ahrIDAQEPAW+MMPPzwfEmgn03zzzTcQqj1g6shXyXlGiBFTGyKFVDn6wYd5DvlhknvggQcy6Vl33XWr7373uxWHbXH5LjlDy8ttvTSXBso3c54zkjh+L7DAAtnMN2CAjYoGAg0ITJTUt6MarsW/gUAg0McROOmkk6pvfvObWZN02WWXVfxWIvQfBOx885oRfkpFq1RqRxvkOAAO2hy5ESJxmN+Qqfr73miMpINwIUu0U3PMMUcmX1NPPXV+tqQb34HAQEQgzG0DsdWjzv0eAT5IxQ8p1kH9r7lbmeHUFAmiJfJhiqvvVGtEAikSb8YZZ8y75ZAuJrwIgUAgMBqBIEnREwKBfogA7QEBaJt4IUv9sJpRpXEg4H1u7QnIUXvjtie9iBMI9BcEJu4vFYl6BAKBQCAQCAQCgUAg0JUIBEnqSjQjrUCgFyEQZrZe1BhRlEAgEOiTCARJ6pPNFoUOBNpGoO6TxOwWIRAIBAKBQKDjCARJ6jhm8UQgMG4EJvCmUQdJ+ggfjRr9Pe5Cd2eM2ETbnehG2oFAINA9CITjdvfgGqkOIASYtWylHjFiRDX8jeFp2/3IfNJ18pjucRRokKZNb3V/5eWXx5zS/EI6WfnZZ59J28UHjbnWHQVT25ZUKGGU9ttVgyadJG9D5yRMw8XBPELPI+B9bEi0/qIN2nLu70jcnq9Jx3N0RIIxy1k9+l/H8RtoT8Q5SQOtxaO+XY7Aq6++Wt19513V7emN7f9KLw71nqzEB6qJ0iScZuMW+Y0mUGPxqBR1VGua0SKd2uWUmFQnnXSy6sknn6we/usj1Qfvf1CtlE5WdvZNNfFE1YdJQOTwcdzRT4y+NLqkuRDtLkcWrimtiT+uyKiP1ODjOpf6FPaU/rc9/bPpha1OfV5t9dWq+dIW9Qg9j4Bzkbzk1qtHFllkkTEvs20sCTIh7r/+9a98NMDiiy9eTTbZZI3RuuR/ebVF1roiE4Tv8ccfr5wz5dgDh2mOb0AyEa0I/RuB0CT17/aN2nUjAibJp598qro8Hdb410RITMAzpTNnJkskBWcw6bcK7kyaCIP3cFnNvvvuyGrEO+98QjBaPdie6ynzmWaasVp2uWVzGZRn0CRJW5CeVSbF+kw6C2eKqaZMZeCv9Ek53bfSRvR8PvAG+Cb1mDiVefIkLAlZGqpRTHopGfl8lIjSiHdHVO8mzRqMpD5xzr2q3k9pv5YOOrzhhhsykdsmvXdsySWXrCadLPym2tO0XRXnrrvuqhwyOvPMM1f/93//lw+bbJa29rvzzjuryy+/PJ+n5GW4NIBdQWacCv7II49Uf/vb3zJpXmaZZZoVoUuv6duXXHJJztP77jpKkmiLvbbFAZxOsfdqlwj9G4EgSf27faN23YgAM9b1115bPZ7eeTVjeoO6l4bOOfdciYB8JufakiQl0jEoEaQPkonupY/NYtOnN75PP/0MiUS83+kSy5cgK4cCemnphx8mDRK2QuuTVr/eAu+EZZM9U6Fnylk5VtiEJwI3+tmPidLH2iLxpO852ginOr85/M2U/KhEENPhhDPMkJ/39vgiTIvG6r33R7+N/pGHH0naiReqG6+/vpr2s9OOOfSw05WPBNqFwD/+8Y/8GpK55porn6XV1kPiIkped5K1pG1F7sA9GliExWtT9LmeIEmKh5Tdfvvt4/XiXn3ei4KNF69uCZLUgQbvo1GDJPXRhotiT1gE/vuf/1QP3v9AfjfWCiutWG20ySb5paEdKVU206V3ayEr66yzTrXcCst35PFOxbWCvyNpE/6W3tWFyCA+NFpOcl5wwQWrz886azV/em9XeeN8Y2bIE7PF4+kdYl6i6jUYAu3YfPPPV22y8SbVcssv39I0s9baa1d/vPnm6tprrqn+8uc/V9NOO21LbUZj3gP1f4KZJsRH0F7NtDq0P+LQbBbyy8xZfx2J37SAiLT4wjtJk6kfMKf5LkEe4voU0lvuyQNxkEYhz+3183nppZeqoUOHVi+nhQKtkqC89TykrS6ul/rWy1bK0epbuaShnPzgfKtf8YmrPyePErcVbhYVt912WyaM4jaWtz3Y1/OM370fgSBJvb+NooS9EIEnHn+ieuiRh6qVVlm52mSzzaq55567Q6W0In/wwQfzqpQ2Bung7+EdWz0RvPEdQTHpewHuTEkTRruEuJ166qnVb3/724o5wvvfFl100bEE7H8SQTz397+vzj3nnPz8UkmDtnT6EF4E3rPPPFs9+uijuT7ZF6pJhWgO+CQNT74h4tNS9FTdmxSnT1zSPgiptiOM55133qzJmCY56tcD8oHAPvvss5n4IL5LLbVU9j0q/kTaym8kSXsOGzYst5lXlGh37VbICNKCoJT/S14IxxNPPFH9OZFc/cizSy+9dH4pbonT6ls/00eQI2TjoYceyuPBa1S8M05eTFte0OtlvoiSMcaXrb39BEb6oxf3+tbHmNekrd6N9bFYURc+WAjj9Ml3jr8WDRcMpHHLLbfk33yaxNUGSyyxRDXllFPmqsLSi4Wlofywh4l6xYnmrXpD774eJKl3t0+UrhciYCLkyDrpoEmrVVdfPb04dPYOl5KJijbHStTk6WWkBMUGG2zQZlomcgTLJE/LY3UvDUKEUCDMfBpX4/WVsQwIAfFN8DvuuGOe7N9+++08sRNKV111VXXPPfdUv/rVr6qvf/3rOZ7nTPwXX3xxdWkykxCSBxxwQLXssstmASkPaRAgzHWETFthphlnqpZP2ib+Sa+8/Er1xv/eqD473WfbemTA3tMWF110UTZ7IRbaAb6rp/63xx57VIsttlhuU0L8D3/4QyYWSBXyrV34z2yStJ277rprfq4IbA7+Rx55ZCbI+qC+gxjsvPPOOb7/60G/8nk+mZqvvPLKXKbSJ5Eu5Mqz+jHS1CogezfeeGM21erP+hvSgpTTKiIa5513Xvb/0Vf1NUQE2VDfVVZZJcdrlb46M+OdeOKJuR/LY5ZZZsmLAXU2XgoGxoG6XHrppdkUBzPYCfPMM0+1++67VxtttFGuM2zdQwr1W1jQvMJJfc4888xMOMXxSiAB9sbYxhtv3G6Clx+MP70CgSBJvaIZohB9CQECwiQ4exII88+/QDJ5dHwYPfPMM3kVbmVbBA/N0mqrrTZmVVowMcEPSyv9vybT2NNPP52JCO2ByZmwIJwQG8RNelbcSJTgWQLJpI64IEUlP0KHT4qVrnsl8LOYIfkVnXbaaXniX2655bLwc41/yvXJj2j48OHVhhtumAUI36PxCZMkM86QtBIvWizEMUjS2EgS9k899VR1TtLacbSeNZlBaYW0J9+ak08+OZMexILJ8xe/+EUmB4MHD84aEOQCKUCyPMNJfs0118wEAVHQlwXawjnnnDP3s+uuuy73GyRM3EKUkBhmOpqfa5IWUv+gXUF0aQb1P+QGUdYnt9lmmzHPjl2rKhMcfU4fVEe/9UX9lhbm3HPPzSTJfZoc+erjV199dc5f+kzUrYKxgmQh9IiVeiNDFiY0bPqcBYagzLSnCCZtLpIIG9o4vljqq3wwVUbmR+VxDSlU5rvvvjungWzRzC688MKZ2BnnHL3lDaMtttiiVZHjei9FoOOzey+tSBQrEOgpBF5O5ozENKrBQ4akibbjb0y3Mi6kBikyeSJIJnaCZkhK1yQsECDMKxxckRPkDPEhPAinBT72G7rpppuyrwRNgRV8IUlWxZ4jKGl8aBwIPR8TN4GmPPWARK2dfIZcVy4rcnkhZsqIKBEkhOD4EqSSH23YLLN8vmIi8llo4dGksdwf6N/aiPYCQdLmP/rRj6r11lsvk9TTTz+9Ouywwyo71WwaINiZgJikvvGNb1Sbbrppho+G44gjjsjmLUJ/5ZVXzlobwh/x2Xzzzav99tsv9yXazK9+9au5L80222xZU6UviqfPICfI2YUXXpj75UEHHVR961vfyn14WCLyxx57bHXSSScl7epsmXjpb82CMurbCApyvPfee2cNkfoiesgNMnL44YdX26YdkLQ+6nHUUUdlrRMNj7Rbmd6QuAsuuCBrj5Rp3XXXzWZFmP3kJz8Z68XPCCQyI73jjz8+46PMNEXf/e53M75wXX/99fNOwJuTLx0z2pe//OVqt912y9VDkowN40QavgVtQ4vkefkEScqw9Kk/QZL6VHNFYScoAml3GOKAqEw55RR5VT8+5SFM+HIgMFadtAP8kqxcESJmAZoBAsNKnbbAJGxFvNdee2WBxKRFyCBEfvPxYAZUPtdLkEa5X5xj3StxEKJmAXkZnFbOPq+99lr+IGcIkmesqN3rbJDWLJ+fJWk5Xk+C/40xpsTOpttfnoc5YoOoIDO0JwgLcoo8aCfkVVsgUbQ7tCE0HEjQK6+8kskGPx9Y6wP6hHsCsvGVr3xljB8RDQih/vOf/zxrIBFXAUFSBt92hj333HM5z7XWWiunSWOFpDH/FXMfwtWKJEkTCSpamaLVkQbNi36MUOy0005jFgw0nEgLYoKQ8GlqJEn6tWfd973nnntmAik/Y0VdESiLBvcFZTa2aIZo6Vw3NuEER9on7SDAGv7IYimz68yLtLTawQJCfONGMJ6lyUQaoe8hECSp77VZlHgCIfDhRx9mgfDBex9UU0091Th9bloV06TLj4MWyMRP68McYFV9//3350kdSTJRM5W5zhTCF4MWgDB0j0DxuxAmk3cz0uNaq3utyui6tJlc5EXjxMeCyYaAsJJ2vysCM97kyfRRBIn0m9WjK/Lqa2kQtIgpkoPAFA2jenBEps2DFeGNqGinW2+9NZvoECTP62vIN6GO5Aji+p/WkumpBH1RPrSb2ppmE1lAZgoB4buEBEj3uOOOy/3B8+5bQDD76b+FYJW0m317xkf/FPRleXqeObleX9eYBWFR/AIb05QWzZT7tE/iI5Il6GucrdWh+Awhcp677777svbJPXVXfgsa+MJFHFiU4P8SStsgkGeddVZe3MDB4oW5VJ/2idD3EAiS1PfaLEo8gRAwQRJCRcCU1XlHioMIID38LvgPmUARDpOpSRtJ4mBLU+P/suI1CVvxlgm/TlAKCSLIirApZXKvrgUo19vzTQh43nf5wKCk6bsrwjRJ+BFCzlqy2ibwizDvivT7ahow1wf0OcK9tH2pj7ZGZmiFxKXdYZblU0RA658+yEJxUi5tJj4CAuu64Pdb30KgaJ2KBqX0K8QcaZaO55VPnNIvtCOzVHs0jaVPlfr4lr76SKexvu6rh74hX+VoFtwzRpGSxjRcR7akX8KwRIQ4jl+bzjxDrtSfpk4c+Bmbgjp6XlD2emA+d+AmnyntBT/5FOwL7vVn4nffQCBIUt9opyhlL0DAxDhyZDqY8aMP8gnRn5litONne4tGACBHVvUEmkmX/4bJ3ERdtg0jTnxM5EfYmbQRqXERh8aJu5TL9fIp19rzjbBw0CagTfZImLIQYgQB4ViEb3vSaxVnipTmZJNNngTQB9XIJPjgMq66tkqrP10nWAlbGGsL2o160AZMTrQ3BDqflx/+8IfZHwihXmONNbI2BpHiy4QEFEIlbQJf++qXJbiOFBRBr+1LXN/6QNEqMVEdeuihmWjV+xftFXLS0WMxlEF99TFaqmKuKmWTh/GAHCEgjQRIPGWk/XQPWaJNK8TGfb9pq+Bg3OlrjrvguO0eEyaz2aqrrprzYb50eGQxlUlf8F2Io7TOPvvsPJaVa6uttsrO5syesP/a176WNcKtSF1OMP70WgSCJPXapomC9TYETNKIwUQTjT5xuqOC3ETLgZM6n+CzirfTpgSrVwKKP4WzavhIyKMugErc+rf7Qpm4y0Re4hCCdUFYrvsuz9av+a2szBZ2PxGGJnvCkX8FDPhKEWTIW2fDJJOkV5xMnl6dkur6TsqX4IowGgH4Ihs0jPpOPehHRxxxRCY0BDuypD0PPPDALOyZ4wTP6Vf6AO2P/uGbVpNvnHuF0LjnXCEmPrsemXmRAUTAPf2WHxNSRtOkfEzF0tMvkDaEQV/eeuutx6RbL3f9t7ZGTgrhKOTKQoL5C1krZAi5YUpEFi0iSpnr6SkjPyV+fggg/yblKAHx4njuHkLm2+GQCIyjCxwZICiPcagc6u5/H+mX8VjKzJ9QPKRrn332qfbff/88dqVj8QNL+cAoQt9DIFqt77VZlHgCIWByJGgGDRq9FbqjxbAKttsFOXLuit1HBJVgwkZIrGgJLh8CClFCWIpTtniNwWStXFbOQn0yNsF71iQtmORL8JuwM7k3BoLVdmaCrzgCI0n8RJSfMOR/wb+js2HQRGnXVHq/3CSTTJrzC5L0CaLam8M2YXvFFVdkwsq5WJ+gGbLjCwlgunU8hD5Ko8TheEjyNyrb6f+UXr7sHkJUNCv6C7Jrt5e+aEeaduV4jRTro7Q68kJQigaGs7Z8majsNuNcLS87xJzl5Loy0UK1FfRbxBgZd0aR/Dk9b7fddtnMbBeZ3Xt2WjJ7cWCn2fHb0Rf8jZoFaa6RtGgcxzlp2y3Hlw/hstNTHfVl/cxYQcIQTNcRJv8jNp41XgVYGQvGivSZ1+Bfzl6SDnyMGx8kzRjWZr7lVcZgszLHtd6LQJCk3ts2UbLehkASMiY7k3tZRba3iCZYZjRb6gk0u2Fsya8HDqR8kGz3Fs82YkKD+cB1QoMZgOC08iX0rNhN6ogLwsUp3Cqb9seqWTomf4JOKCTJsyZ+2iCCFFkiKKSBrPGvMNlzLFcOzr2eRZKcm+RMGdu0CWNESf6Ccqkrs4NyEyjjChNNPFqz4aW5yJ6yRRiNAPwcQkhowxtJ0H8Qbu2mPRASfcnp1NoCmUCMCWpaF8So7ALzWxsjCXZ7aVM+ctLTr5AxYbN0iryP+8qgjyEISLcNBxzGmbLkhXwgVRydaV/c108Rp7YCLRRtlWccYSEPh0kiOAjfmelgRqTLuFFeGCi7d6YZP/pXqyAN5TvhhBMy6YON8ku3mI8RGyQQvsqO+HBEl66x42OBQPNkbBgrFi2w5vdFSwUzxycwb9IK037BTP9HmhBA/oS+kSQf9yL0HQQGHZFC3ylulDQQmHAIeIP9y+lk6Ndfe72acYYZ02GS7T9p2yRslTo0vavKBG/rf6OpCkHwoaEhjAhAq2XCkDofUSIsTLgmbgLNhG41K3074QgBEz9h4hlnvSBKBBCBxIxnEve8VTJBIE07ipAieRPG0ho8ePCYE7XFEazipa9MNBYEmImf8CUk5OVZedAMlOfaajWU6KWXX8xlmW666auZZ5m5Xc+1lWZ/uqeNkR/ClbYGWUB+kKV99903a5oIb0QW2aUdYgLSJxABx0Ygup7XD/QBZBbhRwKQGc/QeGhbZifnbSE7CKt7+qOTo53rhRi458Pkxr9OP9B3EWjb9G0+QODbCsqKXOk/SBpTnvOT1MsHidPX9XOmRXV0PIEzoCwC2gpIO8zUx5jQN/VJ5ZOHOsvDQZXqpSylDyNXysUBnZYMQWLaU19kE4bwUGaBxs3CRDsZFz4WGtqDVgxhUzdpys8Y6ugiq626xr3uRWCiNAhi2da9GEfq/QQB2hir3mfSpDtvmlhNuO0NtDm0MzQ9Duuj/m80cxFaBNLPfvazLARN0rQEhEQ5TJKWRkA+TPLOgeETguRQ7TtAzwROOJiUERUaI5O0iXyXXXbJmgEr91NOOSWfzYSsERLMMMpAECif05atgpuVk/aBWYV2Cy7i0Dgon+e33377asstt8zlGBdGpiAE7alEAocMmScL7imn6prjBcaVd1+5r220I6xpNLS/diOwtR0CoO2QHxoM5MU1fUBfgHHR0vlfeqUviYd0SRu5IMT1l6IFlK8PwS4/8QX9DBmXX9FOIQaeVb4SrxXGpUye9ZE+LY9n1UX5XEfkkb1SLum3h2RIX52QmVI+eCiXe9KUlt/qpx7ygicc1FUcz/pGDn0rF+IEaxhJU3n8D3dkS7rax7f8Ctawl0aEvoNAkKS+01ZR0gmMgAl3fEkS84fVrMmYdsjE2iwQZPIwYdMQISkEhpUpcwAtgsmYVmBw0vTQBBAsnrPa9qw4hKDnrZJNyv436fvfpC2uwyuRMvdM9oiOSV3ZmNE832pCVw/EzCqd1oLQkC4hgJghcLaBF0HbrK7lGiEVJKmgMX7fMIR/hEAgEOhaBILSdi2ekVog0BQBRIY6vhXpKA+5T+ODuCBHglUqdb8P0wSCgowgPSV4jqO3D60A0uQ+0lNCXZDyV6HxkY+PPKzg2xustu1y8kEe+aVIX57KFqFnEQiC1LN4R24DB4EgSQOnraOmExCB9mhU6sUTv9kz7XH6bOUL0ihI/Y9cjYu41cvV7DciVidjzeLEtUAgEAgE+iICE/fFQkeZA4FAIBAIBAKBQCAQ6G4EgiR1N8KRfiAQCAQCgUAgEAj0SQTC3NYnmy0KHQgEAgMFAbvIit9Y407DgYJB1DMQmFAIBEmaUMhHvoFAIBAIjAMBzvDORrKtnK9Zq1Omx5FM3A4EAoHxRCDMbeMJXDwWCAQCgUB3I4AknXfeedUPfvCD6sx0AnWEQCAQ6FkEQpPUs3hHboFAIBAItBsBJMnJ2c6jcmRDhEAgEOhZBIIk9SzekdsARoDAc36Rc4X8dtaQU3xbBXGc9ssnxRlG4jY7FqDV83G9fyHQeISD2ukb5Ywq/aOtoxgcQlpOjy6vxvC8dJ2T5VNCiau/ldfnlDO1Gk/T1qel6z6fqfr5XdJz3Zlf0pJHOXhU/+/s8ROlvPEdCHQXAkGSugvZSDcQaECAsHDyttOlESUnUnulSCui5NTtBx54ID/jBGwvwHUgZUcDAeVDGAbJ6ih6Ez4+IoF81AmF9uSn5H1+3hWGqHi3mff9OSm9TpbELSe2O2kdQfIeMuTHu9GcsO5wUdelI473uLnnYFB+UPJHxgR56LNIPMLj5HanvOvT0tJPab2QIHG8C02/1/895+R46TmI1DvYok9O+D4WJWiNQJCk1tjEnUCgSxHw/iYvlj366KOzcFtnnXXyb8KiLgBlKi4ydeihh2aBtfnmm1cHHnhgdt5tplFoq6De9eUjD68lqWsM2nou7vVeBPQNPkre16dtkRukx2tqvAB2jTXWGPOCWS8dPumkk/L7/2h8EJ9FFlkkx/dqGS9h9eJYfcOrcw4//PD8Tj7vMUOckCTaI/0GuTryyCMzCUKMvP/vsssuG/MqHGl7kfI+++yT392HAHkR8kUXXZTJFPJmDNA27bDDDtWPf/zjsQhd70U8SjZQEQiSNFBbPurd4wgU85nVt5du8jPxrjWr7saTtK2+vUTW29VplJg/fMYnyMOHpoGQK0F5Okq4yrPx3fMIFHI7LL3w+PTTT8/kxGtovvSlL2XigzjdcMMN1U9/+tNMaDbbbLOsDTrhhBOqW2+9tZp33nkr1xCqO++8M1+j3fEaG2TGO/i8XPn666/P795be+21Mzm65ZZbqoceeihX2Ot1lIOf1DnnnJOJGm3QFltskfsXrdKVV15ZnXzyyTneNttsk1+jg3xJQx9caqml8veQIUOyRqnnkYwcA4H2IxAkqf1YRcxAoFMIICU+SBGSZHVulb/ssst+iiRZpTN5lLeqeys5s0k98Cch2GgDmDqszglNphNaI8KQmeXGG2/MhMs9eUvT9+c+97mcnHSYWKSDwNEGeEmtD5OJ4H1x3nCOqNmKLp60CVjCbvbZZw+NQEaq+/4Us9R1112X21Qb77///tUmm2ySNT5/+tOfsm/QzTffXN1xxx2ZjDz88MOZ9OgTBxxwQIW0aG9kBdHRx0ob+33xxRfnttx9992zpgeJ8qz+ykymDExmiNOll16a+8WXv/zlavvtt89lQOr1ybvvvjtruTbeeOPcz+Wpv6+55pq5DEyCTHOlTt2HWqQcCHQOgSBJncMvng4E2o0AgoTo8Cvi18E88uijj2Zywj+pBETE2TiEmJfdWoUTMJ4vQRxC66qrrsoEiBBDfpZffvlq0003zRojpIYGgUCjfUCEaKWYVTbYYINqtdVWy34ijz32WPXHP/6xuuuuuzLpQciks+6662afKcKY6YXAJQQXXnjhTJCGDh2aBeLOO++c06v7wZRyxnfXIFD8yZCWm266KZMWWqFdd911TAarr756JseIN18l7Ul7o68gK8iMthS23nrr3KZHHXVUvlY0m9r5oIMOysSraDf33HPPSh/h+1Q0j/oCs9kqq6yS+ygSRPvpmZVWWin70j3yyCO5b3tG30XSmeH0uyBHY5otfvRyBIIk9fIGiuL1LwSQJAIDKaJ9uf3227OvBm0M7Y7w3HPPZVOcuEwTxem1TpKs1M9MPinMaAgNXxQr+LPPPjubWHbZZZdsXuEgSzNEeFm9I0jypQ0icJlHjjvuuJynMhB6CBryRcB+//vfz0SJj5S4F154YU4PIaK5WmaZZbLwa+V83r9ab8LVBrnR/kiM/kALg2jXg7bWvkj4yy+/nEktcqytOf4XguQZ14qmUD/gpE0ziNAwy9U3CDCviat/0k4qA98mv5Gl3XbbLWujiqaTj1Qpo76s70hDn9EHIwQCfQmBIEl9qbWirH0eAYKOcGHqopGxe42ZA8kpJIngoUWy8uZDNDRpbAgaAsyHWYyGiE8T88lGG22U4/qfxokvExJG2K2RHHg5zhJQCA2tD3LD3ELY8R+hIaCFIOwQquHDh1dnnXVWddttt1XXXnttTptJhsmNJkm66623XrXWWmtlE4u60D5F6H4EEJpiumqmudN+tDTaikkUmRHqBKn8j1SVoH/ROOlf+lCjpsfzxSdK/sy7AmK90EILZZJUyJAyCHyVEHIaJuWWbj3PHCn+BAK9HIEgSb28gaJ4/Q8BQgZRsavNyt9qn0mNb5J7THCEnP+tvAkuQqYIKaYUpg7mNM8TlsgX4cR/hA+S+8gODYI0rOzds6upBOY6GimkDUHjlEuw0iL4SN99O5+QIIKTsETomOLsYorQMwhoX/1AW+s7ND+0RY0BubZVv/id+e2DqNSDdnZN2+tXTL+0S7RBNEru6w8lOG6AqVYfKERMefQvZjxEuRAn/UbZPK8cgnQ9qx4RAoG+hECQpL7UWlHWPo9AITwEBvJCu3P++ednExdSQxghTcxj5QwlgqUISQDwLaIFIozuvffebAZDXggpZMuKnvAj1JhlaBPcIyyRL1ohccrRAASYnVHSc91qnzbLdf/7LiRNmZdbbrmsIejzjdGHKqA99QFkhnZR+/A9QooQEe2vX9AwandaSO2kH9l+T7tIa4ngal9mWv9rV32SOY3mRzocwJdYYomshdRvaA+Rbn3TfWUQX9ryKucdgRPJv+aaa7L2UrmUAQmTR+nHfQj2KGogUAVJik4QCPQwAkiHjzNoOGYzefEn4gOE/CBLzqah9UF6CBeBoBEQFx/mEUQHCRKHICUAmcH4FhFS8nHPs+V5abhe0iEo5cuMR8gJfIw44DoYkIahmG1oEeRRtFo5cvzpVgS0a2lvGW211VaZ9AxNZlhnFjnniOYPQeJfpj35sq266qrV4MGDqzOT7xriol995Stfyf2Gb5njApB1bU5TiJTzb7v88stzeyPrCLXjBvjOIUj6kPgrr7xy/jDH/uhHP8qO4IgZB2/vmdNvHQugv3hG+fWZ0pe7FbBIPBDoQgSCJHUhmJFUINAeBAgNgo/QYS7j18F84nwaxIfAsqpnrrCKR2iEImA8h8R4jo9R3aRBECExNEgEJ3IjL3nyCfERCEfxpMVkYkccYkXbJIhPQNIaKIet/srheoQJg0DpB8gPsoP80BLxOdPuSBBz3N577513p+kj/MccXsqh39lIDopkrnOPRspRE4WA8ZE75phjquOPP76yM83ON30Rmac5Eq8QNqbgPfbYI/cXZMtOOpol2iaEW39SRvl4Rtn1ueg/E6bvRK7jj0CQpPHHLp4MBDqMAKJDYBTBUVbwhBWShMQ4SwZJIlBKPM8UIckZluM1YkWAteUbVPxEiiOvNAhU+SBX0iL8lIOQbBVoJ8pHGoWwtYof17sGAX0AeaXN0ycExAMJoaW5+uqrs8lNP0GaV1hhhaxZ4rivjZBb2kAHTiJM/NC0+9xzz521PYiWvuB5QRzkhy+aXY6I8oorrpiPiGDaRar1A884bFL57IS0i00fG5w0VzRdtEi0Te4zxzlywLNIt2sRAoG+gkCQpL7SUlHOfoFAIUkETRFMzBx2kvH7IMAIKkKMWUN8ceskiSkOoSHwfv/73+f7toNLj48I0iMdq38ClUbJNbvf7KTjpO0+DRIByPSCoHHsLuSMVgLBItQI32IqUZYgSD3XFeG+0047Zcz9LkEb0iJuu+22mSy7R+OHNJegDfkt8T9ifjvssMOy9tB9GsoTTzwx9x3t7jn9j6mNufaQQw7JGidx9an7778/ayXliyAJiBtC5JU5HLU5eyPb0qsHxI3mCTkKbVIdmfjdFxAIktQXWinK2G8QIMx8CIxCNqy0ESMCaHBaidtSjZxYmRfBQrgInqFFcsoyR2vkBvFBeAgvO5aY2hw0KA5NAOdwjr4ccglOzrsOk3TdScl2vjmh+eCDD87kS/mYTS3I994AAEAASURBVIrGQn7SVoYQcj3fFWlgWgUm03IQaaOGBsnmG3TsscdmjeFee+2V+wRzmNeGnHfeeXnzAAKD2PA7QqQQb6dz60M0UWeccUY+XZs5DYFirqsHfULf1TcbyyBe6fP1Z+J3INBXEBh0RAp9pbBRzkBgQiJAU4OEvJ6EjFU7U1VHA40QIUMbxCcEEUFkim8QZ2k7gqzIBZobQogTd3GiJojkjxj5JigFRMZWbDuTECGCT1wrfh/mGfkjUYgZ4YqMSQcRUg5BfjRN8mTKU88i/Fwv10r8/FAn/+Qde4mY0XrZQTfpZKO1FZ1MdkA8rm3Kp15h/YGPUnnFDRLkeAgvpLXbTbvut99+Y4iPvoZAOTSUaY1Tthfo0iIV/7ctt9wy983SH0p+/i/kv1yL70CgPyAwUWL/cXBFf2jJqEO3I8D8xHTxTDJbzZscrpGZjgQEhUmClobwQlYIMsF1Wh7/Iz6IivgcuZkykCjxEZ16sLuN74g0BWSI8EOW6nFpnfiNODiSRoDQE49gE7yWwn1byk0J0kGyaAikQyvB7OKjfEhcWxqOnGg7/8jPEQRPpfOfhgyZJxO8Kacau57tTCqiNUGAKdfutvvuuy/3M8QcSfZ6ENoifQXJ0ddoHC+55JJsptMn9FNxaZB8mIEjBAIDCYEgSQOptaOunUKgsySpvZkjDY0r9fY+2xfjBUnq/lbTd2lB7XakAUSMirayMXdxkG/EvcRFrCMEAgMRgdbG7oGIRtQ5EJhACDB1EGQ0PpxoaW9okyIEAl2BAI2Qc4wQUqFoEJulre8xwbYnbrPn41og0J8Q+GS7RH+qVdQlEJjACBQB095iIEdMTueee242eZTzitr7fMQLBMaFAGKEePuMS1PZkbjjyjfuBwJ9GYHQJPXl1ouy9xoEis/Om2++lXalvVuNSv5EBM3kyf+DqcKnLR8eJg6+Rbfcckt2XObUHSaOXtO8UZBAIBAYoAgESRqgDR/V7hwC9ePw3k+73l588aXq2URyOFlzuB59f1QiSoOqWdN5RfPMO092hG5l5qB5cpYRjZKt/9KIEAgEAoFAIDBhEQiSNGHxj9z7KAITfbwrzLEAD6YXhf7r+ReS1mjytE1/0bwjyC61jxLxeTPtWPv7E09WLyUSNW8iSkt+YamWvkbMIBxlaZzGZQ7po7BFsQOBQCAQ6FMIBEnqU80Vhe0VCKTt0ggNbc/j6YWe/04vhp1k0kmq2WebPW/Tt31eyH5FiSgtsugi1fPPP189N+y5asp0RtKQeYaMOZOosT5BjhoRif8DgUAgEJhwCITj9oTDPnLuowgMSloku9EcKulsoenSgYwOWRzx7oj8ioikBso1s+WaCW6GGaZPL7Kdt5oq7Rp6+umn8llDfbTqUexAIBAIBAYUAkGSBlRzR2W7AgHmMNv1X04k6L3kP7RQeo+agx4dMvlIOozv7XS+zGg/pRfzjjWv/ZgtHdy4cDrBeng6jPHVdAYNv6MIgUAgEAgEAr0bgSBJvbt9onS9DAEO1pOm14DYzfbO229X06Rda1Olc42cTD0knUzslSNOonFQ3zzzzFvNPsec6b/Rr2yYYcYZqs9O99l0uvVr+Z1YvaxqUZxAIBAIBAKBBgTCJ6kBkPg3EGiFAH8hvkhOIn4tvQbEoY/efUazxD/JO9QmSQ7bZQcbR26O2J5xbZJJJs3vahsx4t38Cohm+ZQ8ShrN4sS1QCAQCAQCgZ5BIDRJPYNz5NIPECgE5p//+Ef1QNrR9uijj2bfJNolTtrMat6aTsPkPViv/vfV/HqH//3v9fz/6AMm+SulF5K2wEOc0YQq1i8tIIrLgUAgEAj0GAIxE/cY1JFRf0AAifln2qk2bNiwrCFytlE+3yht9addsuXfS2CFV155OZGm1/PLZ1330lbkyQtiP/OZKT4Fh7SlhWy9+OKLmSzxXULOvFbC6yJCw/Qp2OJCIBAIBALdhkCQpG6DNhLubwgwqdEYTT+93WrzVcssvXT1WtrhxhHbm9WXXGrJauS7I6tpkwluUDLBzZYOkXSdUzei89JLL1fDE1mab775q+mmH31MQMGIyQ4BejURrfPPP7+6884784nbHMSZ7NZcc81qo402yi8mLc/EdyAQCAQCgUD3IhAkqXvxjdT7EQK2/SNFDoqcP5GkxRZfvLr37nuqZ599NpOmxRZbohr53sisYVJt5yXNNffcOf6w54ZVTz35ZPZhmjE5cPNfqgdaooUWWqjaZJNNkmP362NMbvJCkpCt0CLVEYvfgUAgEAh0PwJBkrof48ihnyDAFOZQyPfTt11szGZzJxL05FNPVi88/0Jy5J6mmnqaqTMpQmh8aIJomjz33sj3ErFaLGuaGiFhTltwwQWrHXbYIWub5MX85sPx21vZEakIgUAgEAgEAj2HQJCknsM6curjCHgJ7T+S0/aH6VUk5d1qCy+ycOX6c88+V72SfImcpu1gSZqidxNBcqAkR29EZ955563mm3/+phoh5jbP+UQIBAKBQCAQ6B0IBEnqHe0QpejlCDC1/Tf5C/0vmcL4JDGBCd7httTSX6hm/vws6XTtZ6vn//l8/q5GpRfUJj8k5jIHSQ4eMiT7KIXJrJc3dBQvEAgEAoEaAkGSamDEz0CgFQIcrr2jzUtrnY00ZTKPlUALNOuss+bXjgx/8610jtKb1QfpsEkEiRO3gyV9giAVxOI7EAgEAoG+gUCQpL7RTlHKCYyA84+8hgTZQZIaHa8RohmTqcyHPxHNE/LkeoRAIBAIBAKBvolAkKS+2W5R6h5EgPP0a8nM9uabb47WGCWn7fIS22bFaCRQzeLEtUAgEAgEAoHej0CQpN7fRlHCCYyAwyGdX0Q7ZDfbqHRe0gfpd4RAIBAIBAKB/o1AvJakf7dv1K4LEHj55dGHQHpX2+c+97nR72oLktQFyEYSgUAgEAj0bgSCJPXu9onS9QIEXnrppXSS9rvVzIkg8UlyevaHSZsUIRAIBAKBQKB/IxDmtv7dvlG7TiLACdtZR4jR7GkrP2fsfMhjE5LkuvOT8v302zM+drX5jhAIBAKBQCDQtxAIktS32itK24MI8EHyslk725jZnHr9YtIqZSLUpBxvv/1O9Uoyzb31tiMAPqgmcQTAtNNWs8wyc3pBbdunZRdi5dvBk82Ce8pUSFcQr2YoxbVAIBAIBLoOgSBJXYdlpNTPEPggnaz94osvVu+nM49s+/cakn//+99ZU1TXC7391lvVP//5z/RqkuerkSNHVhMnbdOgiQdlB+9h7w9L5ydNUc0511z5PW7ewdYs2Dn397//vfrLX/6S3+G22GKL5fxKXGWQ90MPPVQNHjy4GpIOp0TAIgQCgUAgEAh0HwLhk9R92EbKfRwBhOdf6QBJxAZBcuZRMacVbY93sz2ZXlw7bNiwTKZmSC+vdbAk09xss89WzTjjjOm1JSOqZ555Jr/g9t3k29QsvJWI1p///Ofqd7/7XXXWWWdlMlSPhyR5/9u1115bPfroo+nAyrfqt+N3IBAIBAKBQDcgEJqkbgA1kuwfCLz99ttZk/T5z38+HxJZf2fbxMkkxvzlXW5Ikp1vSyyxRDXHnHOO8T9CqGijkJvHH3ssk5up0ktq50hapcazlBAyvk9/+9vfslYKyVp44YUreTOrSYvZ76mnnsrXxY8QCAQCgUAg0L0IhCape/EdZ+oELUEaoXchwPcHKfHyWi+dnX666fIrSZSS8zbS4uykJx5/PPkczZLfy/bmx2Y37Ynw3H33XdWf/nRb0kRNXi2azGd2x/01kSDpNgb5TZkI1Be/+MWsfWJWozWSTwm0V8iV/MMfqaAS34FAIBAIdB8CoUnqPmzblTJhd88992RzzRTpfWAchIvmoF0JRKQuR8DLaxEdJMjvmWeeuZoqnbKdTWUcqxNJeSdpmf7zysvJ72hU9hF6N2l2nn766WryRGLKMQETTTRx9fZbb+cX3tIMDR48pHrwzw/kdPkT1f2T5KfdHVa59NJLZ/+jm266qVpmmWWyhqoQo3Da7vLmjgQDgUAgEGiJQJCkltD03I0XXnghaR3uzk6//FkKSfIdoecQoNWjuUGImM+QGCQJea2HiVO70DC98cYk1RTJKXuG5HfkVO7303EBI9J13zMk7RNi9GZ6MS6yNUsym82aPna5vf76a1lbVCdJJW/5rbnmmtXjSUN1yy23VNdcc03WVCFqxQ+qXpb4HQgEAoFAINB9CARJ6j5s250yYTpX8lNBljgCBzlqN3RdGrEQFfgXksT3Zyxn63RvVMqVI/V7772fSRTtzjSJVCEy//3vf/PW/0mTtmn66afPxIbWaKqpp0qO35NlkjTi7RGZTDUWHkFDvgan3WuzzTZb9oe64YYbquWXXz5rp5jaom80otZ9/zOBDk8k97XXXsv9gRM+jV5jKDsg9RkO/h0J8nAWFwJsY8CEal9932YA/Vd/pQ1t9JvrSL06GpcmFRZCV/Rz9VAfCx5tMqEWGMa0E/t96x92yXZVMDdZgJmL1FGbNQvyZv43j8nfx5zVW4O+6OgVslCdzKMWodpT32Bt4S/qmrjcHbrzReKfHvG9Fbl+XC5C8Atf+MKYSWJCVrU+SeuA4wolfnvijiut3nKfIDQBPffcc8mn6E9ZSJpgSl2V0+/8+fi3Cd6p3LRI9H9vpBfiPvLII5noLLvsskmLNOvHZCsdMjnx6GelU4K0YEhYmPSWWmqpPAk88MAD1fXXX5/JmIm+lKE/4V0w6G3fJuHLL7+8+s1vflPNP//81T777JO1fPVyEkBHHHFEdrbfZJNNqv33379+u83fyBGn/ttuuy0f+7DSSiu1Gb87byrLH//4x+r//b//V2277bbVVlttVc0zzzzdmeVYadv8QHtKu7r66qtnQjFWhA7+89vf/jZrYddbb73q61//eofJawezaxmdMD/00EOzgN9ss82qnXfeuWXcjt6wiePnP/953jn7zW9+s9piiy0+lYR5wsJLu95///3VrrvumsuAsPXWYEz97Gc/y9aVzTffvFK3iy++uLr66qvzphXj7c4776zOP//8vMA49thj8xl23VWfIEndhWwH0sWOe3LV1oGiDdioVqBlpWIFgyRxrBaQIETK6sUkaMXzWlrR/SudY+TMpJdeerF6439vpG38Dyet06icjuvvJwIkPo1TSSsn+PGfQpQQNP3BWUnrrrtudd9992WT3yKLLDKGLNWfi9/dgwDCSiPx7LPP5l2H+sSSSy45lsAlhJBpRzxYrXck6Fc333xzde6551Zf+cpXqglJkgim1xOxfyztwqT5KFqdjtSnM3GHDh2aheBaa61Vrbbaap1JKj/LbWGhhRbKGtlm2r9OZ9DOBOCqf9BI6ktdGfRHPozqN13aWNIsmFMQosFJO60MNqFMKK1as/I1u6Z8Du5dYIEF8u5e/3s1FCJNswRTc7Nxaa5E8LszBEnqTnR7Udq0EzoXn5dWARFwqKEJ0opOh2w1oKRlkif0CXRxC9Fzr+QnnaL9aJavTk7QGOgTcjJrVjZl549kJYYImZQE9UNyqK2ZWl55ebRw5Hc0MptLJ64mHjRJJkN8ljwHV5MUjKmPp2lyEGTRDhHOAjJl9WlycMgkFbQJAZ5tYZofjj+dRqDgrB/YkXjjjTdWa6yxRrXllluOpelguigO9Y2ZMtV5VloEmbYvQd+xaePhhx/OJKu0exkH+pw2N5aYwDxb7knDdf3KNf10XCYH6UuvjFnlkW49GO/GsT6v3Movnk8x0RizPupEAJe+KH3P+V95fMurzAF+I2LmIKbLMhe5rn9bDNBeEYjmk7aCcaRs8ivp1RceNPPyIGxLPiU9ZFaeyog0SEtZ4QdL85oyqy9hbNz6n0mrMS1pwkk87QE741b8EtrqH8a8NixzszIJriuXPqCNSru7rnzaSVz9Ud4OlxXEl5agjfxvnlpuueWqeeedN2tE1dM95VVO7aZd5Ad3mDQGMkEcWBSzIczg30pOyEPdtEvBU/ld91GnMqeW68rrmvKq0+BE7gT362NM3m3hmh/qoj9BkroIyN6ajAHgNGiTo4666KKLjhlwyqzzGSwmDisecQ0WE0IZVGXgljq6L54Toj1nEMw333zVggsumAe0PJ0fZEUqDTbkxglcvgYcAuAevyzxelMwIRIOJgITU955mAqofurMFk7l/cILz+fBTBPwUZpMBiWCJCy8yMJ5wjIZvJi0TDCB5YxpEmqcbOFRPp6Vh+fsdLO6vuSSS7KQNvGbBFuRV89G6DoETMRF4OkDJ554YtbwEcIl6L8+4pZAqDCl3X777ZkAmdStjPWROdNZWoS0vm9HpOCAUFqllVdeOQsJ45W59sEHH8xxy65H47f0HeNraNLA6JeLL7541pqU/Bu/S3533HFHHpcEkXO4VlhhhdyPC0nQP8VF3OQ9LB2SamxzCTC+9VH1UnblUN6CD7LAPKzfOjPM9bvuuiuPIc/xuVRPQlW+dm7CTRzziXmIRg5ZQgyMr8YgHYLUwavygpO42kOeCIp2UDbC3Le6CcaxMchU4/R66SsDsoqAImgIhfIoo2eZALWR+dBYJLxdFwh6hO7ee+/N5UYI4AqrUpaCq3o2G7PGMu2d8tB+rbjiijltc6Pr5heaNWQPrvLgAqCc6mp+Kota5dEu+oX5A4lUN3WUtzpoE+k88cQTOU/11t7aBZb6pvlGfsosaBfxS3/gP8v8rG60Y+I3km3PwQaW0qQFl7+yyousUf5VV101p6Neyj4s9beCsbqVhbfy+63sgjZWPul1dwiS1N0IT8D0TShWaCZ2A07nY5s2eZRgYNlqbheVSdkkaYCZUKwovvSlL1Xrr79+XpWVZ8QntMUntE2OOvwGG2xQ7b333rkD87O46KKLKjblrbfeOqtNy/O+ES1lO/744zNx4wPR20iSQWmgmmgISAPTxGBi89uutoWSoPlLmrBNJFNOlQ6KTJPLaIPc6NqKa0IwyTg2YLkkHJpNKNrKgIe93yXIb+ONN85ChE8BR82yCitx4rt7ENB22oNQZPYkUPTp8847LwtDpEeot1cpyXXXXVedfPLJ2Q+kjCltiZjo8645ONSHgEBeHBzKf43g+dWvflX94Q9/yIKAYCDICHH+NbSLSDph841vfCMTjgMPPLAlSVK+Sy+9tDrttNOyIJK38U3IlDkBESLgldHYdkaX/qjfIyUbbbRR9dWvfjX7C+mHZ5xxRhbUTMKFiCAgv/jFL/L88p3vfCfPCfy59Fnll6dx739Cc4899sg+MkgLcoQYID/mEkK4GUmiSXUqvXZAXpRZ2saqeeoHP/hB3gRjPrviiityu8HIfT5XP/rRjzKJgAkclN343nTTTXN5kNETTjghn7TvnrZQZmXTdvvtt1+1/fbb53y12THHHJOJjHbXV2h1EJivfe1r1V577ZXzcK9ZH3EdxnY2a2t1loc5Bzk76aSTKv3oyCOPzH5i5mNtfsghh+S5FtFEQsyjruk7iLYT+0u5pc/HDGExZ9GCDk7aGc+dffbZed7S/9TRtzrYXfvtb3+7WmWVVfL/sD799NNzXzV3GRewkbb5H0FvNqeZ9375y1/mfq0/WCCYu0499dTqqquuygSbSVR7q9eZZ56Z298z/I/0BeOOT1IhRzDr6RAkqacR76H8DHyDmNOvAWHwEuA6eAkGrklHZzZIDDIrIBOKlaQV0jnnnJMHwjrrrJMHus584YUX5tWkwWQFJy8T3WWXXZZXna4bPCZF29gNNgKgHqxy5EFIWKFZZfS2YGASjMPS6sZELEyUJhrhw49x9E62d0e8m7VJD95v5f2Paro0kUyaMBw58r2son491dWBkot9vNqHb2Mg9KzQ5GOSJKxKsNMN/iY+wsT/JqkI3Y+AMWJs6Ocmef2V0LA6RpLq7UQICQ4CJaiQCc7cZewYCwgIArTbbrtlAcDcRkgiwhYYVsyEI2FnLO67775ZAHmWuQ8JIeQISOOZs24rQqEsyo9MID2+99xzz/wszQUBTGtjTOtTSBNCRJApD6dnghDRoRHTP9dI5h1zhr5oYeB+Ca7TLMNLGu7RahB2DkndbrvtchrmpFtvvTVjwUnbQorGxGKLZmrHHXfMWquSbvlWF9oocxJhjoTQsiBnBD7cfco4UkfznvFG+0LQG8vIHt8yz11wwQW5zMqtvPIQx6IGgRSXhufKK6/M8+nvf//73Kbim+/UQzngQksjf07H2kqfcb3eR0pdyrc+ox/B3XxIo2b8G+f6D5xpzGhrEMK//vWvmegiasqljuZfmAuIDizNp55BQqTPyVl9kT3BPENzgwRvs802WaPjnnoik/q6zSNey/TrX/8644hs6RPKWPo3UqktmgXESRnJIeWVpjz0d+nyKVJPJAneFt3ayjNkh3y0nzZpC8NmeXfltSBJXYlmL0pL50NcTFZMXkUFq8PVAyJAjY7EWKkaUFZYBhdCZRIhGIoKFOEyuKj9OZuyGxtwBru4VnAGlxWRDyFgMFhx1tXNBonJmVZLPOY2+VllIlDSVFZkwIoSWWlcTRic6lXXrhiYBp10Ozuw1KmskIrwyGkmAsOsJkyRJkZCarLJJk2T0D+r/732evVWmqgGpWc//PCj6r0kSKZOqnsTN+E22eSfJkjSUT9k0aRDYBWB654AU+1iorNy8ztCzyBAANEOEMi777571lbY9WZRwTyCXOgXpX8jOEwTJvsDDjggC0sl1ccJAoRFWjRCiJBxIB1tbMFiFS3PtddeO2twpE8AIzk0DoiNcUr7Q2OhrzfTuhR0jCWC1DghPPUfpMUz+hsNLoKA5CA+0kVcdtlllzwmmdcQDALafeUxLo3H+hjz2z3X9V/j1zfhTmDb+YcAIHfmEMKckKctMAeoFzwQJ/27UTj63zhEYrSHchszxWznunFUAoHro1xInrmIKQxBHZzGIlJmDoF/PcBC2hZ7djQqszrAAQmCo7ZGlBEHO8bgaf5SLlghc8qj/nWM6vn4LR1zq/LAlwsDLRvNj/Jpd1j5LW1EikapzNnylEbJo3wj0QiethaH9t/cUeYVWGoncw1rgTZAYLQfuaGuRQOOpCG4NHL6hj6g3czrbQX93wJZf5ae58z7iJmgj+vT2kRaCJ4FhXGi3YQypvI/E+hPkKQJBHx3ZmvgI0e0OdTIGLmVTVlFlLwNKBoMaurGYBDqvFZLOq/JyWAzSRisOr/BLJjQTPpMeiY6A8I9zw8dOjSrjgsBKPkYFAYI8oSQmQxMPlYd8kB+5GcyNgFZhSAjJSiPNKx6TCKcCtVFWhtuuGEWIo2kqjzb3m8TSvFNgCf8YDZRSqBONTlnM7sNToTxpY+Fkfjq9LlE2JC2cWl+YOrTKrhnMvWJ0LMI6IdWtgTwbknAWggQHMwGhJCJnHDRX8QlyPQTY4I2oQR9EzH66U9/mvu+PusZz3tO0KctEhAY49jCo5AD40yfFocQNcYQq3EFwkpcZSbAkRNjCjH57ne/m/snAUZ4KQttDrIiqIdx7LyuYnpzTTnE9buExuulTvJBApENdYEDckZLAlehxPXtmrrW0xYHVuY0Y8A8oy4EP5Jk0cYkWJyOC5nTLkiiRaO8mf6LWV95mPlPOeWUnD+SKI584bpG0gKJIwxOJAaGSIz2QZBp/miUEBjaMT49iJE0jHff4wryUh4YmQ/1HfUp85n6mgvlA3NESp+yOC3pawfY+B9+CIY4/H2UAxbmIkE8wTULQPHURRBXvfVzRBERMqcjiEgUgiTAFJFVVp/Sdvlm7Y90pC8fpFH/0w7qREMkHXM3Aq8dlVu6rqsLbEp5a8n2+M8gST0OefdnaNBYSSAmOih/hKKObW/uJkSD3uAy8SAgOrbJ2Wq0TEYlPWTCZGy1ZnDJu2yXZl83OEyMgkFvcJhs+DEhEYKBxJfJhCA/9UCYqGcRPas6E4rBY5Kkdvdt5SF/5RuWJinfBnlnSZL84QcD+Jm45J0/ucRj/zHJML/Nnv2SRt8zyKUToe8ioA0JUKRF36cR4dtn4cH0Zqzor2VCR+D1mbpWQ+31R+NGP/GMflqe0acExEF/MT74/RBABIZrPsaUNNrbp6SLcPExIeSYpZA7foo0Icwn3/rWt/I9ZSag9Pmykpe38iq73+WTC9vwp9k91xCNkp5H1Em51KHUuzzbSuCWrNSFyZHZC/b8VzyLNCCgtCejNbujNRHSN4/BWxnUreQpTe1W5hpzhrTUFTGARz2UsSwdcWigmKKYEy3wPGMuQ8rMU6Vt62m0+m2xSMtoPkP4LDQHJ2JGs3Jm8tVBjoaluY12BzmjjUPOCm7ShZ2PubDeHy3YCuYlf8+ph8WX34Jv8fQBGFkcw46mshELOBbSW9Js/PYMK4YPuTE0LZjN+eZrhBNR409lflcv4wVBF9xThlK2xrR78v8gST2Jdg/lpXMZsD4lmAA6EqyYdF4TqVWOAUFVauDozAZhPZhIDU6DzIRBoBjIVo0GPJszlbtgxWQ17BkrjaJBYfKzsjN4paXMyuGwMKsQ6m+Tj1UHAWVCYZLw8SxBZuI1YZrEOhsKjupqdUuoKbPrzYLr8m+vAGuWRlzrnQiYrPVpEz9/HSZoJIZ/kZWwvl76hv5LMBHMjcE1hFv/FF8f12+KQNXX9GMremYcpMCYcp/wJbQImKLhaEy/2f/GrPyMH4sXmiQaAmOKDwqhtdNOO40hC3XyIr0iqEq/L8JUmeBRrotrjBCq7pXnpFfqV9Jzr/5c+Z+ArscVvwRYwUBdOCATqOYScwuNMhMoTP/v//4vzyHSl665xDNlDNfHp7ZAaqVd8vVc+ZS863VRZ3MjssmMR3NNo2iu9NxRRx2V0yPo2xto7s1bTFOcmpEKZIklgDbRfGc+Vz9aPvMgQl1wq+ejrvU2FKeUvx5PWetYuFfiwkI99cdiSag/qx2KZr1+vfG3fooAIkG0kfJTfpYBfRBZpzWUngVAWTBrD0EZJ3TovCSZ0DWI/MeJgEm2I8EqlqMoMkIgIDqCCaUQkcbB5X/CQacWj5BAfqiOER0Ts1WElbhJjTaJYDE5GCQCgWDwm1x8TF4GrcHqWZOCID1CSp6cDsvqI9/s4j8mHJOTCdakoPxCbxi8XVzVSK4FAkXAlG/9ldZiWFrZc2AV9Fv9Ub+gsaFRpRmgVeX3IRhPNKXGiWuEt/Gkn+tfAt81/U1ahGYxhYtjTFoYEMjKQJAQpmVRYZw0BmWmxfWssvEjXCOZkZAtp1Izb1vNM6cgKIJnSl39b/6oX1M+eUsDQTTOjXlCrxBG46aE+rOulf/Lt2vSM2cUwuJaY0BSaZTtLkQUi3M5DGhVkAn+NLCEn/Slq3z8LV0jqGnZzTs01nx1fPu/Xn91rs+bpaxl3NMeDU2aEXH4bsFUoPHRpo3P5ptt/NHWNGAIiXRpX5AG1/QVTtzKzxfNNSRG3Uq56kk3XitlFse9Ehrjlful7uY6C2RtghQyH8MR0fe/urZFaqWH1DHXsibw07OYNWe7pq76kL6pPeum44JfKW+rspb7pU7d8f1JT+6O1CPNPoWAjomMOALeJM88ZsXGjCbokAZcs45ZOrH7PtIyQPg+WOHRJiFKBgKSY1LlW4AYlUFsNcHkZlKnjRLHypSZywqjpG2iNHAJI5NbdweTLFyUhYAQSpm7O+9If8IioB8TRr7rbU4jQzjaNWWVTDCKJ/CrQIb4azhNG9Eh4Owmo/EoTtpW6ciEfo/0I1EEooUFIWSru7FHWHmO5sJ12lcLAwsNhIEmSJoEbWMwLo0fJnfmIf8zcevHiJZyIXjKYhGAiBThW9LyTKkbHCxumFuYwmk9jEWEkRZEXgIhXp5rTM/9gqs4grkChhZoyslPRpkag/QdZQATAtbuPoIa4WSGhJf/5VkWWzAm4BEomjNtZyybj/g1IVjyLyTJs8rXGEqZYaTcRdMCQ2kgAhzrYWG+KvUuzzVLs+ShDRAgmhfPIxHF3w1RsdNYPzHnIRpCSbfko0yuKV9jXiVuwbv8X54t5XDf89pUWfQrxMhmBBYEBAdu2lo5LaDr46KkU75hT2vENKp9ESPPWAzASDua6/VhmjNB2Ur5Snl9K6uP4P8SL1/oxj9BkroR3L6WtM5qAjKZG7Bs31Y0RQ2tw5cVrA5fDwYWUqPjmjzENXkY1NJAfgx0kxlTG5U8AiWeYMK3nZajuLQMHhOx1aXJwUCUnmAAC9LqiWByYGo0QfttWi9HAfRE/pHHhEHAREzQ0kw09nclYjbgn+RsHn1DPxWYf/V3W+eZfpAbz7tPO/C9730vCw79WBrGlDg0rJyInSnjjCWLC2PGfRoa3/Kj9fEbEZM3IUTINiNJxq7FCIdlGhOO2vxo5K1e8rc9m3YCQaElUNYinNSHYDK2XXOP8FZHxM75PLa8W0gY+wS48Qs38eXj2SLcpCcY13VczTeeNf6RDT5fje8iQ2Tkbcs9f8SDDjooYwxXeainIxMId9fKdWXgeyU4J8mHSQypKq4DCFIRusrVWGb3XCPkzUVcB+DluAbvYyt+O9JBdOGITEgLFnDz3VZA8BAS5MPiEZEQ1LnMdQgezaGgTNJVv4KvPPyvDUrQDkVLV66Lpz6NbV3aDIkUl6mMu4P+yDTm29xsjle+MieXvBq/3UeKYCKox+DBg/Nv6fhdSJK6C/XyKp9QL6//lU35fcTvzhAkqTvR7UNpm9StChEVK1m2cN+FxKiKicDOBBOATz0YhASFCUTnF1cwERloVn0mfJOIAWhSpGItBIzmyirMoGDjp3GykjTRUeOLVwZ4mSRMBm2tYurl68xvZE2eyiLPNCqriVM9m4W33k6H771t0hp9YvaUCYcpk0CL0PcQMKFznKV1QW7qY0FtjAVbwF03URPSJTAFEXQ0Tfq7/ktQ0BDQkhAeiA6t02GHHZZNczQ0yAaygwzJk5ZKnzMWCBvkpGh2CRWkh8a3GUEqZVF+JEn6tCkEvfJYvSuPcotjnB599NFZU1V8Q4wv45RzN6GsHMgKjQJSw6/J2FcW6YtjjEtb/Tznu67xRWIcpVB8eTxDM/b9738/zxHKwr+nWYAPk6HFF5OXMSk/9bfo8hG0G5zMM8pM06O8SGshL8Y1HA4//PAxxMLcdfDBB+e2lUcJyuP8JnOidMRTB21Ksw0ncWClLyC17mlnpI4wL5qSkmbjt3Z0WKg+Yfew/uV5u9SQUTgjyMWsCuPd0m5Lbgj6BpxhKl8mRXUTtJeyS0ffU1b9SP9UZvgI+rE6I5C+EUga9MGJyDhqgokZobHoRWSZKt0v+eREmvyRrmMGYKNOpW/pM4iu9kA63ROkp79qS5j5333PwV57I/cIMZmgLbozTJQatHtpWHeWPtJuFwJs9dT+VhsOFTPR1AO/CWe32MZqAjPwTFqNBMRK1Gm0VP5MCDq4QSyw9fNxQJR+/OMfZzVtyYPNWRn4UxjAVgUGHE0V8mG1JV3PG+RODy4TlAFkV5vB4ORVjt1U5kwRJj6OswZMGai6s4+yN5a/lKej34QKnwA+JiYWJGnhNOCLDV1+4pgwHBz5ztvvjEWSDGKfQhw7mn9/jw8/Au+ptDIfMmSevHJ2evmEDvWVOkFDCDXrU8xUxpb7RYCVslsc8JkxsZvgja/G4Hl9WSAIShrGhcWLBYnnjJ1yT1wLCvcIIXnLo60AZ2ZvQlV99GWLmBIIcoTMPZ8ytot2wvP6cLluTEpPOUtarpU0xENiYKbcpXxw9UzBzHVxkABYCcZL0Z6U8tW/1d28ZcwR8o3YSl+5zS+wsQA0/xDUNG/Sl9fQ5P9Ds+fQT4QTUdQe5hNlhq2gXsonXxiUupjvtJE6abtCYM0H8lcHz8HOM/X2q9fHb3GkDzN1KnFdl55vxK70QfjB2rf4yqoN5efZ+vPwUAfXtK3n5KVMpV9LXxz5i+cZfkecxhF2ZFrd5WNXIbcMuNvAgLC1FeSlXMqOBPtWbtd8XCuLX+kog7KU9lMvaehT6gpbzymzMpX5v60yjO+90CSNL3J96DkDWIf0qYcy+Ki42YwNCiREhze5G5ie1Smp8w14KykHSnL29E0VbKKgCeJTUVZw9XyscqySEDH+SCYkk1UZFAaDfAxYeZT/rdDYwpnnTMIGgjJbHVL1IlDuG/QGq/IbOASKdMpEVi/L+Pw2iZTJQV0N6DIolcdEPezZ58ZMlkxxgyYe7bv1fpqI/5nqNeecc1XzzDvPWJNcs7LAQf21lbRNJj4mB5+Sb7Nn41rXIgDrurBplTrB1SoYNz5tBc83S8O409dbBeOHsG9v0I+Mm2LGaXyuVV2No2ZjibBs1GC5ZuyV0KxecDWeGoNxbJ5oT1D3wUnD4dMswK4emMa4EsibidL8Yw7jkyQtfl5lYdaszOrlY+zXA22LT2OoY9AMu8b4/tc+MPCpB9eblcl80IijucqnHjzfWO5W8ZS1EHlzKSJpIUp7xAcPUWIWRpAQ+93Sgrpx0V3Pu/yGsU89FMLT2FbiNJa3sW82S6+edlf+DpLUlWj20rSK4CV86wEz51zKzGWXi8nc+SNeOyIutk5Ym0A4cFuBcYCkUWGWYyZAkqyk+OyYfKlJEZZ6sAIenCYzE4e4Bpz/SzABWKlQyTuoj8bKM1bJVr0GBGFQyJN4nE8NYOe+WCGW+wYXokdV297JqZSj1bfJ0WSkHPKUrmuCieL+lP+bafWpzFTIU6V6ivvRhx+l+68nYjj6dGHEc8WVVsxpmbiaBWp6qmwr9KIlUDd4SXtcArdZmnEtEBjoCJi/zGd8avgkGZ8CssCU5YRxgjjCJwggP8xcTG0WuHzPzOHkiXnIsRFMn42E5pMU+sevIEn9ox3brAVSwjymc5fJwQMENeHPtEZT47dJAzEqhMQzbMXlOb/5I1AtF58AA4cGyU4INuRmkw2TmHNfaIXYwxuJFA0VGz/yRSOEfBiIVi78JgxEJEyZfeRlxUWTxE7uGfmqh5VQVxGkAqzVjvxokj6XTBRWQUjmY48+llXc/DEWTBqzadPEgkCNGpUcPUeMTFq4qarFl1i8evaZZxNBfD7FfzSr9KdqWEmrL7LH5IkYSkN+VnPu2eFSThRuRbBKWeM7EAgExkbA3EGo02rTZhu75jLaIws981mETyPAHOt9fxadzqRipjMvkynmpPZokT6dat+6EiSpb7XXeJXWzhUqYeabQnYkRNBz3LO7hdbCfZOHb8G3D02GeAIBzW7vmgmHqYkwH5w0HSacRlVvfij9oZbn5MreT6XeqGJly+eUiGzwNZAvwkNrhLD5IEGFIBi8DsejvWHmK3Z0/5sQu5okyVuZRyQypiwjk40cOaNZmj3lOdNMM2bz5IhEamZJEy7S9u+kXRuRXn47+xyzV7PNPlvCdmTWEM2WzJkcuosuycTDodZuJpo2ONIa0bCpl/ppv6K9KpjGdyAQCLQPAWPHvOBjoWOeI+CbLejal+LAiGW+NXf7mLvNR/VF80BAIUjSAGhlndqnMSBJyEbdebMxTqv/kRGf9gaaIIK/rYAU0Bq1NyBCCJtPdweTqUkVeXs/TbActE0gk6bJd560qiqaoGkS+Zk6aeao9pG95/+RHGWTmc273eZLZJU5DbkqflPKzTmSYykzJsJqZ6GVGv8J6RTfsDpJ7O76RvqBQH9FoJkPUX+ta1fWy/zsM9BCkKSB1uJR3/FCgBaJ9gwxovkZnpzap0zEz/Up0wtubfn3mwaJuVLcOeaYs3rx3y9WbyYt3Qfp/ozTzlh9dpppq+H/eyP7MDFTiuu8Gz5ItucySZZ8FBQR9H+EQCAQCAQCgZ5HIEhSz2MeOfZBBJgpaZKQJCrnEe+MfmXKoEnSqyiSxmeKRJBoh5gfaYB8kCbxOXCP+ii9pDRdm3SySbN2iMlOoIFiTmMO4M9VNH5ZY5W0SOLR+JWP9CL0DALI8LB0sB9TNK3puLY5d3epmImcGVb887qbPOt78uSLQvvCVKVPNwvMzog+H0aa3fY681okqBPzF7+gYtZvzMN4sPFBWWi+tUfjzq7GZ8b1v3blI0lbywVgfDTq8rA93fgdH3M4vLLGOWHHbcEc4LsjQT+Vd2ddDLSF+cjuNfOQtmhvO3akvM3i8sPkakBrzn+Vxqq3zHVBkpq1WFwLBJogQEBMnbQ/afQms1t66ehEo9+fhAS9l3yRTLrlwzQ2cuS7ecJ7//330kQ6ono/CZ0P0kSEcJUJzaTgGWnzwSIMTA4mKw6mJiwCBAFjrjSB1P3KmhQzLnURAg6BdPq81+Rwmp/QJIkQcSYN4eU06u4mSfqdYzacBm73qQ0brUiSvmoHFMLgnLP2ClcExStTYG3nbFskSR7KwiRvd2tnSZJT/m1lN/622267DpEk49RBn44RcEwDn53xKQ+S5ORy5nZEdHDy7TS+20MQmO69GoZGmn/o+JK8Mly0hTo59Z2jth1/7W3Hksb4flsolledOFRUndqDwfjm15HngiR1BK2IO6ARQHxM4iNGvFNNnnYB0gqNfHf06xVefz05cScfJKY1qyKrMqvwqaeduhqeBMC7iTAhRFZ9VmkmHxOteCaDon0qAHvWCeUOznRelAnUqxX4KgVJKih177f2stvSrkME1SnaEzIoD6GYzb3Jiba7A5JEaDoiRN7lZbvN8uVn5+gKWlYm5/YG2iqHFdJE6eONryIp6RgftHreVUeYM02Py8exPNvqm9a37CZFvJxS3d6gDZjJf/KTn1SHHnroeGu2zAGOPOGXaJEE87JQGldZ7C52OrYDeGnhOkuSzEWOctHedtU6+Zv2sCeCRaGzrGgVkdbeFIIk9abWiLL0agSQJIfQUY//f/buBN6yorgf+BlWBUV2xQXfsLmgQVmUuGXELQKKRANGDRLUGKMmRs2i2Ug0+lES9eNf1CRGcSFqIu6KRpBBIkFRREUF2QZkkUVAQHbhX9++UzNnDve+d9+87d73uuZz5t53bp/u6uqlfl1V3cc22K0iVshK+6JVFxbL0ANiZx4FsUnEEd0Sk6iJdFn8e9Sj92o2j7glIIoS2XrrbcpRASZDYIkrTVqKKAmQckaJlSVrBgVk5UtBVJofCVDMXKyU11xbbYapETeWc370melsmhgm735pgHeuH3WngCcL2vXKC7toWUamo1iVARzp11NZLaRzdAgrw/q4trp1VB5wYRxOd+HBYmYe4K5Th0G7ertldv9mUQY+HUOAB7KW3zAEXAEVjl+ZLv/98mcl1N/xwCo2GzLuV06/e95Jp0+bH1nmjL1RoQqSRqUlKh8jLwFghqKwajahUBzAEkvP9qFIH776jCi/3RkT731jQjcBo/MjluKiWAlTIFtv3Tuh12TIjUYJywMQoixMeCYrJvSJAEm23gJQmdfIC2qRMGiipsS0O7cKAOD1NPqAg1WdL6b9kwBkp9CfcsopRYFqW+d8UWIUfD/SpiwC2p5iYhXImBRWBW4Ix0OImaFExP1Ihwd9BOGNtUse3FaUnHLxOMh95TnA/Lvf/W7jtUH6H0UvJsY5ZgCPepOB/szqwp0GGADr+jFg5Lwy/VgfZelhGVKmZxBF7iwz5UjjN/k7oDbTKENZbXDAskDW3n3nu7GQ54dpk3Za6cicJUI+XhekjLalCV9c13jhtmORRSwmxtuwgEB7aWeuIfIwXrnsgCWAS7so23f9hYXMAbnAnbPgEtxqc/Iyh1gQaVc8cNvhh2tVu3sFFLl5jrWLdUcZJ554YvO5z32uWF28EoosWeG0H0uMw4H1Re0lf31VW7X7q3TyXxmvZtEX8Jx9Dw9tGRdhtf6zE5eVkbz1OZYwAEc4AIu3dk6gQ8baiGWc61pZ+jOeXHjHi76urYEkddZOLmD2R3G+nDZk7XP0S/LZYmnOvlaQNGeinbuMdTId0iA0+WZ8y9yVOHXOeLG6MmBMtjr2bPBlYBisBtxkg3ZqDmcnRRn4q4GPwb1znGlkgAMxBjhgdGsot8Jz8H3b7XeUQyRNloK7HQPQPkiSdcoqSkAqZWfyM8mb2ExUZGhCkJ8JugKl2WnHYXLR1uSvT3O7UbImb+0tjoRi8+LODNjXdsccc0xR5votBUIZAtViaCYC8PYjAcnOyKJwWRQoEApTuRSg9x46RR4vXiHkTDHKleKkSJVJmRh/gJW+6MWzgI8Tkc0R3bEjLaXlfYmUU7p5KE1gyy7LfHWQZ+Wnf1N4gA8iD3wCZMpi8TQ36c+AWrrqgDDuY0S5yt8LV72eiIyQfp08yoObmUwSPKif8sneM8aNZ4ABMTQsumSuzQAyIMPp/5Q2ArbIDpj0nPTqzL0EwExnrtJO8gdA8Ex+xihXKCCnbYAZ/BjT3jMJsEmTIAnAIlPvsPQMtx8LmRfband1B4LUGQEZ0itLnwNUzSnKx8eqAFz6Eflwl8kvQQw3GouTNnKgprZRhhfU6jueS5mSiTL9Xea6Uvrd/wOK8KivSUcfaTfjAi+OMiF794FIQBGQlK8xpN30Bd+BO33K+JEG+FYvfdE7Ry0K8G5RYE4kowqS7t4m9U5LAiYOyNpEZ5VKoU7WoVuPztlXE4eOzE9vJcA10F61rE/B6mdSMGBMPAb3QpLJFRh03RH1RQ6/NBmaxL8Xk6S2ABBNBnfc1jvjyKRz3/vdt3nY7g8vVqNuHQx6E5oAVu+XolCtCE0OJjiTiYlsIpTsQrdzl/fF/Ld+BwSQPSWvTYAHCsvET9k7+FN7WbV7SbPf/viP/7gABxM+BfnP//zPpc/80R/9Ud/2064UDAXusqKnMClCipLS0RcocuU4YJU1A/jywmogCjChPFkZxPhQYBR5nlgPVLRJnkADhXp4vH+L9UN+AsMpTpYW9fUcxSm9xY/gbTLxrsfjjjuulCedPp5KT5914ePNb35zOZkZyGMlAeoEX1Ou6ilAOPu0MYNYhd73vveVMXXEEUcUPlg7yAYIIAcLFPJ917veVRQwl5UyzEPeNUbuFPBRRx1VQIhxRSYrVqwo4MmzgJhPltwsuy2jft/1ibS4AZFkLD6KlQYgkqf3WCY4o+jJBZBRV1YW/ck8qWwv+QbU9Jt8Oa58tIE54bWvfW1pb6DHZe4HwJx2rc29VgofrIYAGCD1pje9qcgUCM3XSHl9kznKnOxQXyDl6KOPLv3pz/7sz0p7A5fSmXfRZDIxHvBsfmbZ0S+0oz6lv5MRYCidv9WF7JWtDYEfQFG/cYiw/gx0q7uxAATRJ8rQ1uRp8aitsr/0a5+5uFctSXMh1TnOk8nSYGQCt+vESnG+O063ilaYBqHJyE4gq7OZgiQTy3vf+96y8jPgTTCjSFb+ANwVsbK7OCax62Ji+HXseDPJ3CsA08Me/rDijgOe+pGBb9VLwVGKH/7wh4uSZKGgbExEvnM5dJVdv/zqvdmRAFBM6frUPgJ09eu06pjoKV6ghaXJat3LU1/+8peXvg8IWDC88pWvbCh5yoRyaxOlq125UqzCKQ5KEEiiWChBCyFuBmPcSlofAFSAdX1KeXYiWYHjFWhhZbDap4i5trr9hqKmcBEg5QBTZSqbRcgix5jW/ygwFq7XvOY1xQJEAVJc4qMoVtYC+bsnPZ4ABTu23ANU1B3h07zFiuUdkRS9ceJSJ/x/9KMfLUDi+c9/fgFZ6oxHC6X3vOc9JR3gpn7cXoDUK17xiqJIyYTM//Iv/7JYj7QJxSstMAFUcQUpRzoAQRtb6AxLFDhQJE/tnspf3/DuS+BZHdWdxQoBvJQ+ssAFHoBG7iZWFnUEhMlBu3tefgCEupMfq5M+Ih1gDRgByPqGPqK9yA441A+1lz4DmGgf8wrwJW26HQH3P/mTPykAS37SAU/kS0aDSL/FM7crIAwASg8w6ktAmLbVF+moww47rLz/06ICefbd7353Ad/6j7bXb1x4ln+WD/x7ZZV83Ov25UE8ztb9CpJmS5LzmI9BbQJ2IQNroUnHNtEY/Dq9yWqmZCCZGA0ME84oUXv6MKABHPxuGYDVidxikhwRYAfcFvfZotl0k00nZd9kAwhOxORnMjXRqbfJwwRplWhSp6AqzY8E9GFjzdZ/E7S2SQIiKFtxMIAMa4C+TyFTxCZ748B9gATQtbjpgqTMzyqZAqFc5AOwUKaeXRErcAqegkwFQiGyxAAHq8LKA/CwoLAGAUjKoswT5GU5+QnYU2xcHBYiLBt4E4tEiQJu+jWrgk+8kUH2P3/nK4SMe3wl0AGUbE9Xd3yyOqkX0qfVAxAAILia5G/sIHMaiwLXCv5SIeJNTE9ak8lFGZS59JS/uUJ5ZCBv9QfiuMEQGapfkr8pcc+Q03RIXV14dxmn5EFGxq82wauFnr7iXvLM9ecZ5asnmbjIzaUvAKUA2F/8xV+UdMY+3lls9EfP658+07JmzuC21x7ak0WGfPRFeeFF/vqoBa22tDnEIg0BbUAyoCfvyYCjfPVR7WKRkO2n36gXUKgMVlaAjcWNFZEFlqy1i3bCW+oKfciF3HPhEdhSRvaFkmAe/6sgaR6FPVtF6Ug6pUnAdys9HVrn06l0vH4kjYFjUjC4PC+t70k5UHMSMBiYRxGgkh1VOkpAXu5LZ7Aq32eS8vAqvyTP4sXEgIcs39/u+116wGNFKAj3gQjku3qqt4lJevwZUHhrgyllkw3CV/u3cnOW/1N+yme6WasvIOQy2YkZoKDIkhxMSG25Tjf/mn76EtCn9C/Kjhu1TSx7lLKJnvLRz/RJipALwbNIH2XJofQmaz/KhjLgaqLoAAAWCQrM8/qHsZaUY0a5rDLcEhmjog/muMx0+Vx+AnisOnjlFqNU5TERQJD1grUilTG+1Vc/TDJu/Q2cGZNIWWSQY1L/xTdQpE7mCPIADFg/KFNpyMpzCN/mFQCwbYn2uzYwDpDxkYtE3wFVfLiUwV0ICCJtgg/t1SbzgToCbOac6ZC6uJSX84x+wnXOBQqYaTv9gxWS2813QIHbkAwANERe8jGvyVNfYTkhY20L8PEWAE+s9OTg+fZz+PdsuiOBMrLEG3n4Tf8yv2hzl/r7m/zJRzuTR86T2Yf7yUXZ+JO+3a99V29AX/vIQ73FpQFG5jb9UxsrE28o2y7L8pz+ZN7WbtIuFFWQtFCSn0G5Oo9Oo2OZAEwSAt90Sh0Kmuffbndegweat6KV3rMmPn5jKyCdUceUzgoQsDEQTYIGqYFjRTQRk6gBtypWSlbR8jKhmTANgBxsBq1VotUEgMN0nPyYzPEijYnSsyZBk4QVMB4MNPkahHjNydHAN6mRgYmDWZoy8bzVFmXjN4rLxKws9VK+iZNccmDOoAnm9FHycFVaWAnoR65UXm1uKB+XcZMLDWOE24ziyfFpHFEoxljuqGrnk9+t4rkqgBOKlBLhKhNTkrEq+DAW9HWKhiJ84xvfWBSQ57nbjBdKVFrjRN/vR+4b+69//eubFbEQEcviYmXIQGuuGPVTB2W2yfPGr/tklIQ/f/tExi03ubGcQJJsKFjWKPnLx4WMTb+ZY8igTe5lOnlkueJVzE2e8zt+la9MQIk8PZsLpsxTu5hPUOaVv0312U5PBuRh7uWG49YSO+Zv7ZDnawnCF3doPpXOXOU5F8IzPvFFZqwn3JbaBFji2hWXdExYzQDZBDPdNiCHjEVLICmN9ObMnAOVZc7OtsKHPp1/TyYD9Sdr6bNNpFdfZRoTyhOPpR/RT+rLpcciRg/pZ/QXasvT33hwT1tq64WkCpIWUvrrWbYOj3Q8fv0EST4NeuZyqxcTdpLVnBUOE75OZ4Do0IDFS1/60tJ5DRKgiHkcUAEsDFDPWPXYKTMRIInpVrlWS6nQTQiel68BYqDb2cMFYMVqosjJnj88Dyw78sgji1ndgLK6McEAPlxPzO384wah500MBiD+rE4oBKDKCoUSeuELX1hAlzgEQaX4RFarlI8VucBbk7PBV6lKYDIJGGeAPUAPkLRpVSyP1VfcAABAAElEQVQS9D3AxAqfCwUZT8Yeq4Kx6FnuNwo/LQftfPI7cGBxw4rABeY5lhT9NQGz8ZWKw5iwABHDJOhabI3gZePPWKeMlT9IwQBEFK45Q/wOC4VxRxmLARFvw40FjCmT0ppMeWYafFHS5gN8m0fsXgJiEP7MQ/L3DOsGHs0XCKgylo1h9UiSD5mzsCFzicUckl4ZxrU5TT0ACXMZmVuI5REB2sH8hMw35jaLwVzAua8OeMt51r0ukYV02sTc5XlzCmBjUQjcKMffLoBVW4kl1daAgrb2PFJezknSsDapD4ChD6i7XXxvf/vby7xqLpMPHsjPBXACyNICI54jV+lYC1dGXJy28RvwqH21t7goRDZkbm5VP88NIrxqE/IzvyaxIGX8F7mqB1CoHvqodiMrgfXmcu2F1N/Vpan6XTf9XPw9WApzUVrNc1YkoPPq0NC4iZWvPk27gIFJ1uRmIFo56Hz+tpJ1WWHp2ECObaDLYxUKEPnUaVlmdPSJAEQGck40Bj/gA8gY9EzmgIxOb8BRFCYxA9NkZ+VGuTCFG9QGiEHkb5O0eijLBGqi8az8TbAGvAnEatpEYDJH7pkErA7lR0EBYSYUk5GJEQCzgiEbPKq/wSpv+TJlpyl+VhqkZrIoJWCCTqULdFMw+hsLpT6mXwIX+plxYOyJ79H/9WnWTIHFxqOt15TGZGQMOicJqLIA0qeBMAAf4cU4oFyUbdzh0XgwXs0BgINFBPeO8QUwSNsl94A8wdXyEfdmnIgd8ox5wzyR7kPzTSp0eQE7+MCP+3jzN8sEcEYe4lve+c53lsBtcsIfhWnnGlman8xLlK15QRl4FhivTmTMLWjOMnYFKbNcSGe+AH5c6osH1hdlAyMulgsyd9/cxLoj+B6oVKa6s4ab3xJMmldYfIA3MhnUZvh3KU/5ZLdixYoiM0DZwk0/wJ85x3xjUacegIy/yZgczcXkaN4DPtzj/gRiATXzWs6j2psceQG0G3mYw+UtHkqQNrepXYry1TfFBwno1m+1g7nZQhrAAbzkhU9zpo035u2pwIm660Py+Jd/+ZfST8kCGNN/WEXpJSAMH0Cv7wCtOR1Qdo981cGzys3+RJ7+BmTJAz8LRRUkLZTkZ1iuSUnHMRFYQRqYJhqrN7tJABGTtAGgwwE4JmB/J4AxSA0wQMUgZH43KHVUeQFILDomM6tak6CdGPJWLrDh0wRjEjIITQI6vEkMiMngRQMVATEUgN/xYjUsX99N8H6jiEyO+Db5udqDJAePNLldPoEfPlzyY33irlCWywStvhQPeci/UpXAIAno18aKcUExU1r6vgWBidvYoBgpeoDAwoFip8yt2o0h4MXigwIz3iYjCoNi9rzxbRwACGnRoEApWBYKCtL4YkGhkCl84xifLAEAF76MrX4gSf8HZAAH27YtmIAx49OChhKlyLnM8W1eAWCSKEljDD/4w5u/fce7sUk+8mXFka85ZFWAH3MB4KIcMpa3MS0PZEybF1hULMjwoU4AGL6NZWMXAGAFZ5XQNgCPucICTLtR0nji/iQn85qde+YZ7WfOm4iFIL7ICt/4AyjIDVAaBJLkb17EG0AqnXK40RIc4EUb4hU4MJ8CP/JVbpKyyVieZJwLU3MV0K0cfUlbADnaTR8w58k/wa48/A7oaVdnYJmfyd6CGuhmRdJ2gCJrpeMYBFMDaPoOwCIf7ZrAMfnsfsoHvyujr8vfswAQi7/+A3ySo4UqWX/wgx8sMtKW2UfkqV3M79mflEtm5IEv5SzkXL3hkUHdyte/R1sClD03mI5le7FBpSOZPHSs3EliMJmsTFx+NwmaHCB9CN0q0SRukFpJAFomMKsB96xKrOrkKQ8D1buTTFYGI7eCic2ELY1BYrVg4FpJmDgoFXlSNAaNwWsyNzGZ5AxgaeVjBWTCAW6YgE2cJgoDRJ4GvIEMqKkHHmz/VY7BKr2VOx5MQhSXwejCgwFs5SMvykcdp0NWhkDctSE/4M/qrdLsSIAV8ZqYPE3QVsp2BS406WMmcH1XX2UR0IeMJWPjZS97WVGS+KSwjENjUF30a/2WgrBDidKYqr/pw8YRZWisUDbKTTK+WEDcUxa+9HM8Gssu48h2a2PfGCNL/R3vbQJMKE1pKC392vgBvBwpYAxqC2PdfYpdmWnVMg6BAOntkPLd+DDfcPOrh9/EC+EZb+qFDy+TVQbg6DmLubSE4MmzgIHyAU/P+VtQNKsKK516q1sCGXxS1PgyT9j196IXvajkpR2Md7zhQ/soA0izYJKXfMgCcBD7A9hqO+O8H1HkZKFNAQG84t1lPjTnyNcchU+gxj1WFVv5ASltYA4nHzx6VrsBgi79jGzMuwgAM9/jNYGpuU/5+FHHdP/6W5uqL5AMFJE5fjyrbLL0PBmTCWCNN2Wbk+kDcupH5nGLBW1Md+BBP1EvbjWf+JensvyuLuovf8c7mOPxKa1x4ztwZqHgWW3pvnlcPsbHQtDClLoQNV1EZer0OpEOpQPq9MiAM+kYpO75jnxa0a0MxG+S97y0JkcI3+TgmUxr4JvMrH6k1XmRicgF3XumTZ5xLycV1iTfTfYGE6VhBQeUydvkKb2V4qpYvZlADFT1MZmZVAxwfLbJ3y55G2zqlvWn1PBncHGv+dtv+AcMDVKDDimvUpXAZBIwvihafUyfMxYAFWNFHzYG20QZOkiSdYMy8BxFKu2wE7z+L0ZIeWlZyTIoUe4ifVrZPilMSkqfx59xYywmv9L4ux8ZQ9yAFjsUXJtfZVPcxqlzcPDfrq9xDbhkmZQp0IbUF8nD829961tL/tLiRT7Jk3zFqyg75yDPmntYqp3MbazKy+/q5ZlMKy8K12LOnGPMG+Outvy0A6DAkqJtsj7qiKQH8liDJgLcsBBp/8kIj69+9asL+DDHZJ2AOG2FV7LwmwtQBvTwlbLER1qftFXKjtyAFIdJahvPaFvPeQaZP9X94IMPLn9nnuZPZyQ5qJJM8OX55K8kXv28RaZYTvLHo3TaiXx9H0TaRP3MwUeGnUVfIlfPkGXyiCdtw4uBF6SOeFGmvudv7QD8K9vzyHPOXJI28ys/zPN/FSTNs8Bnozid04DSkXXsHOju63j+9rvffDK/MqmyouRKxYADSlYFQJHGc0me0ylzIsr78teJpe92WveSH+lNOAaM1YpPYAxQUx5lYhVnYBkg3HR4AaKs4KxOMg9l9qPkr/277yZJeZqwTYjuufCD1FvZORD75V3vVQmQgD6tL7XJynsQSa9fzaRvGbtpremWY1x2fzPmXINW/N082n8rS/1cXB39KPPv/mb8teeAfnOCZ6TB22T89ZOXuiZv3bK7f1OiXQDQTaOu5iHXoDYEgFnlWJBYN1iHJiM8mk9cbVLnbjv5HWBIINNOn3y172Ue8hkE1rJ/dvsovobphzPprwARbwQrGDnhs1+dyX2y9mnz3u5PZDHZc21ZzfX3CpLmWsJzkL+Ol1e/7IECA0WnA2pWhgWJG8sqibkVgDBY7WTgugKQPJMkb9S+52+d1mQH8KQJ2H1kZWHQWNEmUMODlQZTKRDEH890bgKyajABA0xAkkHHJMs1ADwhvOOly0feawM76dUXf+qmjlYvJotMZzLym4Hpe6UqgSqBKoGUgPkKIGG9aLs58/f6uVYC3MssXaxW5unFTBUkjWHrAg0Uv6sLIPK3vM+ywufMksKKxNcM7AAkgAmXm5VAAiPi6OaRIuIKmAhTNJcZFxqft1UZ4AEECbbk1sJX5gcE8ZULLrT7h4kYgBGDYBXiNzFUrEjSMlPnyrLNR9Yn+fN3+5776pXPq5vBazAnWEy+gLPkL+tWP6sEqgSWtgRYhLi5Kk0tAbrE3O8y7y5mqiBpDFsX4GEazjiCdhUAB/elYd0BCKB9O2DsMuEvZ20Rm8SyI6CZtScBB2DBGmRVlS6qzN8kYrcY9528vNBToCCyqw3YAXw8l6sLZnzl45e7T0Aod5r8WXNMSs50sR3UKk6cQ5ptgRrP+VQXlPeyjuXm6v9YiAQD4k/AuBc9spzJlxkdIDSoxQawblWqEqgSqBKoEpi+BATxC5DnsqNjFjNVkDSGrQvkADYsO1B82yrCqiOuBwjxm08Bi9xjgIxDIN0HFoAXpmWWpFwNABqCFj2nnDbJmyVKsKezXxyYJiDbM3jxm++sRAZPEmuRQE+Ax0mwLEbI4GLWNtgAKwBO2ekKU56/AbiMmfCMe3jOe1kOixG5CPbksgOU7FTBE8uSOnH1dcFfPl8/qwSqBKoEqgSmloC51rUUaGnUcpG1JJeX7cF2C7CSJEgCTIAH55P4zlri0w4YJCZJTBCgwWLDp8ziIx+ACdm5xvoiT/faYMc9wIQ1SDrWKeADQAJ27PYQ9AgktQEMF5idCgCKYGo8IqDFM17ayAIETKlPknTiihAXHeKKc46KcvHf5s/vAJYy8AQwAXHqiHf5sVylpUr6SlUC8yUBVlZuaf3P+ADe+5F0rJ4WB8YS8nodFl5WWIuXbr/vl89iuyd0wI5XoQLmH9cgEh9pYWiOMe/NVKGzXMvPpzlrUNvh0TECyjPfdBeag/id7n286CPKIwf9KReX7bzM7eZAn9KQhWd4EMiIZd7VJfdyIW0BLa3y1D+t+p4xryoXD+bumcq5y8co/L0sBuLaiN1R4KjyMKUE2k2mk3Zp0O8GR04cQER7UBkUJl7PujLf/OyW4W+TtgnLhNGeuLP87rPtfLv5DfotB7C8Mr/MXx55r5ufv6XjZlNvwJC7sF3nfs9Mdo8lTDzW+RFovnMAP1axSjOXgHZi5Tw3DgNcvnyn3nlDm/e2Ac8899HJgWXzYx/7WLGYOvtlIhY7XSILfczhiMC9bdzGpVOdHZbojCFAPy2/3ecX899iIJ2GbZeswygdojuIHCgrJAAg9XqO9qJt0DOT3Xc23crYAKMNnMGUi7buM8CHAyCV57wfG1HmgsR3Os/OfO4IAd4C4K1NLOarYjexU7SBc8cPHH744QUgCXFwnpz+lnNs+1mgyqLWMQyAlVAKZ9Y5i8p86jmkb2Ysl8WpvrnYgFK1JLV7xph8nwwYqMKg3wEEgdN+76bJlWm/3waJhVUHQOo+0807nx90fzKek6/MY7K07TSZzmrIgO7y2E1b/64SmGsJUFhOHWaJZXkdBJKk8xoUK3auY2PM4bFi7Sgi5yItRWLF8OoMQAlIAZQGzSl27gotYN1gqZ4pSHLGGlACnLCKDwJJLC4O3GUBFBYwVyAJ4HYyO1Am1hNA6oIkC0TgxgniNsYAPg4a5U0gQzub6YOUTcaRmi9Z6gFMgAgpz2ny+ibQZNGZAIuF6Zh4V56++ed//ucl5lOoxGKhCpIWS0sOWY9+oGPIR++WbByAxzjweDfB1huLTgKpUKzaLVYmc/lK62IJoNjs0BQHmKcpLyYFpKHVdRDYaXcEgMfrRZxzJnB4smcAS6428pb/TEl7abfJ8stypEnLdb9yh61vv2fb9/QPwNGbChyjwprUJlYmR7+wIiHyQMq3C5k70GGYZKlPtWM1ASbhGkAUYkUH2gGxI488svwGQEknfyAJkPLJmpThG+XhMf+vgqQxb8DKfpVAlcDcSsAp7lbQjtKwarYpQDycDRKUMWJBkIY7ggJCwI3DVKWjoCgiioli4V4Uu0LBsDqwLFEsFD93BReGZ/xtYUNZ+eQmd99ZZawILKXKkxdFRonZCCFGJN0e7uOLImVFUI46yJtitKki61EYX/2f3yhaMS3KpCTJgHJkTSCDjJnCi8sz3PBih9SBy0adWWIcG8KiIa98Hi8UveNDfJIX3qRBQCL3o79ZPChufJNDkufw5ZgR7YAv8mDpbocBkLu6KAuv8mzLKxeQQIR0XGv4ttFETBjwg4eUa5bf/pSHNPImb7xqYzJQN/GZfvNqJm1BDixOmaeyufbI3TPq0o8ANjLQp8gIr9pYXklkne+x02baQ/7KR+rOKqb9pyL1Ik992it5uu5efezd73532TFNVhUkTSXR+nuVQJVAlcAikAAFtDJiUbxA1vuqKH/KycaJQw89tFh3gAdpnGpvNS12xj0AwsYDMSyAEsVG2TjugkLjDqHMKSuKR34TEadEsVJmPlkkBHJ/7nOfK4e/ykssHLePezYnAGeULsXKDXT44YcXlx5FhQ+xJ15i+/Wvf72APIqX4qeYKTtHZfQDSerOleMFsgAG3oE7ClE5dsaK92Hhkc5OUvUBJPGknDe+8Y0F4HmnIhci8CEf8rBBxPPkIuZK3i95yUvKfZYboER+b3nLW0p5YmrUUT0OOuigAgjUzy5bstcGAC2lT2a+q6fykGNPxIRxm5E/sGADC7nbDAJgKBPvXFnki1/tCIwqm8y0y2SkPp5TX24rAM7zYqjUj+XG7uAvf/nLBUR61xlgiABML6YFNFiGBoEk9QaQJqK/6EcAoo00CZKUC2ypi7bSb9NSlH3L355Vpn6gjVH+Tj4JqMoP8R/5iEPtgiSbbvRFoIzs8afvLgaqlqTF0Iq1DlUCVQKzLgEWCjEdf/3Xf12sJ4ARBUd5fuQjHylxQt49CBg5MwxQ8K43aSjGfIs75fH7v//7BVxRRN4raMdpnhn2b//2b+V5gOCd73xnUX6UE2XskxVA3lwnwBQlxjpBySLgQdwN5US5AxWU2OEBlijPN7zhDQVscNc5I0xsEyVNEQNcFFo/ohABDeWqjxfSCiQHAo499tjmbW97WynTC3zxKA6IvIAzIEh6lp2jjz66ABlWE++eo8DF7Rx11FHFovOP//iPBaSJNyJbQe1AEmVM8eMVGLCzD+DL2Cw8s6B41x1g6jnXCSecUNpGOVw/wARQBHwIqiZ37QTsAXZ4AoCAFe3jXXNkC3D87d/+bXkWX4AoUDUIJLnvSiBMdiw1gCCQ/fGPf7xYl8QIAUXaUJxPHlmiPiyE7rEsTnaWG3lrBzIB3ORFNspD2kKfYfnRDgCoZ/Qd5Bl1JktAyd/ZD6QBmvVblq8k/YF82vWX1jgBVFno8Aw0LxaAVGSVAqifVQJVAlUCVQJrJWD1LfiXOwsI+dM//dPisqA8UokDAZQEYOQYCzEewIAVPIBDOeVJ9Al4WI682BOIoVC5Md7xjncUV4W0lBElQ8knUUYUVCo5Vh7fuXBYl5RNwVL8gJvv+Gd14eZixXj9619fAMxjH/vYYlVgvWkrziyr/ZmWA4AhrV0AmLKPifgTYCfrQclKb0eUnV2UOEVtlxkXID6BGEqWGwyfdllJz/oDGLDW5en7LFKApvL8xqKj3iwg7pE7QKR+YpW8DFYaoEA64EpasiQHFiTxTOQAHLKgKBeAxSPXINDhOdYXL94FjMmU7PWDlHtbRt3v0gNBnvXCY65PbQ6IsAAKwgc+nFr9oQ99qLgT/e05oAV4UV/1GETkjLj29D2WQrLWH90DOAFIvwF2rJd4R+QPBAHJADq3nnvZv7QjOeqjCZIATWlYp1gePaPvaAN9Dd/axMtyPbuYqFqSFlNr1rpUCVQJzJoEKGmTPwXH9UFxIsoPSBKvIlYIyEkFTvGIRfGsFToFTfm1latDV4EIYAoBYBQzhU+ZUWAUahLlJB+KCtBCQApFbEcR6xB3DuDBWgTYAQAsU9wfeAVO8rw0PK9YsaIAOMo2gVeWl595H9gBrLjXUgECXSwr73//+4uSBOjwrU4sNcAIhe0oAxYVII5bK4m7jHJl9aLc7QLDo637QI/nxQ2xTFH0DpolZ0QZk4WYHkHLYm08mzvJ1I91DX8UPtkDn6xq3hgAhAFF7uONDFjKWEMAClYpAIFVRp0QGQMeLDQJUMoPnf/ITJnAq2d8IvLi7mNRYh1LVy2LpDpoN/wAUaw/AFvKulNE+VM5AKC+4QgAcuPiIztn1QFIwJYdgOSFgKAkdQDQgZ2Md8t6AT+AnX6TpN8pU79WljzlhwcWTGNkv/32K/UC0hYTrR2Ji6lWtS4zloABkSsLE7bBiAwK93PAGTwm8PT79yvY4Mv07bwyrd9zgLaVQ/4+zp9ZL/JLGY5zfZYS7yZ/SoG1gTJJ0kcptTZRLOJuVkZcDCWrrT3vE8gwPowpz4rfaAceU/IUo98Ar1SO/fqLPPICGjLuCC/GGKXuvu8sH3jhAsmYl+SZEmQRAxiyj+Zv+akc4x0gAX7wmIR/fKobV0/GtbDEqA8CYri58JR1aj+Pd3mvCqsbQAGI+ZulhZvMfcACiOS+S4sOWQIiQIAy1K/dPsrAq/zVDViTXhsBOX//939f2FA/eUnjee0F4JrT1CMBksSABB6AWM/1o2wXeapvgmBpta34KG0DHPrbUQ7yBJrUEwFM6j4oFqkkiv/0DW2jTgCkfAAjslMOgIx//dQ99U/CJwsQ6yBXZb7PU5/xG3ngrw2Scv4GxgFz7a98YImsAFnjpNvPssxx/qwgaZxbbw55N7GYpAwYqyuDwmqRudWqzCrPQDXRWvWZEPpN6ljMydLANAEYaCaSJHmZaD1vsBmgi4FMLORocjfhLLYV1mJoo6nqkIqjqxhZIAADSp3lxvlHFCxLBYsNpQUgZNBzKhn59BsnWQ6l0x4bk/EnH2kzP3nn5Z7L+KVIfbaJgmO5yGfbvw3zXX549onndA36nnnijXyk6ZavDLzKgwIHTMwlrCBivLiPjB2Ai6WEIibPfE4Z5gnPJR/lx9X/yTtJWvwBdNxsrDT4JAMLPPmwhPjuoEr8+K1N8nC1823/3v4ujbRdSpkpT/7qJLBf0Dm3ojkCKNeHJiIGaypKuaoX1xxL18oA6QjYVifzKZdvGyT53bNkAMwBVdlOfktq10Ef8jfL2Ote97oCsMzn7mkDdXItRlqctVqMLTWPddL5mX25AKzuuBkAGcGMfPsmHAPDQDeR8a0zxTOp9yOBqoIRrWz/6q/+qqRP07n0AjS9bJc5XJCjgW0AjzsBR4IprfBMYlwslcZHApQWC4KFgfieJOBCPA33DBcDkMRiY4eUIGnPSCPYVx+gNCkQoIFC5wYybpJYc7h7KC7gSpp+RCGl4mp/b6dVlnyUx1okP4HXFjZtAujUixVmEChzXz7mAwsmfEqPLGq4yfCRFhvzgb8TSLBkUNTmC+UBlWll4pZk1fFMWljIzRgRFG6+yHibtKqol/yzfgKElS2OiaupTUACUGUukY+2NGeZV5xablFH8bs+8IEPlLTigFzyN2bxmPWVX8oQD5OR35XNYpTE9SpP/QEwMf9ZeK4It6fgcQc74tE9rsKu5S3zyU9luLK9AXNyYM3EK9mblwE/9ZEu2zn517bKA5BQ/p5ltD897zmAjLWILLl3lwJVkLQUWnmadTT5AUlMyyZ+E5sJw6RqBW3iNYhNngamgEiDhvnW/RyEijUxMiEDVyYI3016bZDE1G0QmjTFMJgsJ4ZYSU2zWvOenLKjXMSFUFiVxksC2ozSBoIoH5YOSof74pgIWrZw4M4wJrR1KjmKlzUEiPLdIsCncWEMAC0WHJS3++JUKGBBsgKcjTt5Gl+p4AANYwmoQEAY95BPYwf5ZDFQhguIEEsFrBnPxiersLHMcgHoGGeDlCN+jWvEJSTImmJ1CfpmueB6AYSAAjzjJ0Eei3EGQ5snvB6DPJWHJ/fUmZvGHEO2Yovs/iIP/B5xxBFlPsCDfLPeZKN+AEUeb2Axx5UJsLKoACnkKV/xSsrSLi5E9srxPAs3Xj3vmWxj8VUIiDF3AVkp7/JD67+c97SBuVIby0vdLALNgWSV1nSAw3dlWkiaE1nN1CPzamW/zle86w/k4LtyzKus9uK4HD7KakZm2Xf0CZTto/86eZtrDi95P9MAUOZ6INZvygO+tMEwRAba2LgBVsd1DqwgaZjWXkJpDAZBjVZ+Bp1JyAAyOXCrMQUb2FZiJn/+bD5+E78Jkwk5J1aTBV87C5GJAoAyQVl95wqNaIEiZnbgjPXKdxPkVBPFKDYLpeaiSEwmlJpJLJUbmagXRTFIOY1ivZYiT+JabBVPUEOZsFzkDiQLCEpU/+YysVgwVrQ/q4H+rN9TLgCEMeSixAEOY8zvlCmFb4cWhQIk6SdoqjHQ/d3feNDn5J084s2uJCCJSwd4x4t+2s2j29YUo/TqCGBRtpQfUGj3Ft4pYvVuE6XPEk1GQNG73vWushAyLjxvrnGkgPkE4ZvFFUigYClVQfLKbxN+yRT48bv5BDD4h3/4hzVByxZcnjPGlAcsCmp++9vfXuYr5RiTnmMlNK8pFyB4/vOfXyyFjgzQRsCohY75DrCdbNziTblkJMDZp36kvqyHdggCbOqKzJcsPtx8WZ/2ArJd70Hfyd0zXGHaQvsCXsCn3/qBOgBWvR2J4Bl8k0f2BeDL80CqoPPJ6jyIL6DS8RmCx+0MHVeQtOGRQYMqWe8vLQmYtCgC53kYJAaHAQz0WFVYiZlIfDeYDGomV6sgk5aBafLJASUPO3acmGtFIi+rT3lQBmnmJWVlmIRWxgoQmPK7ckaJTCIU3LXhNmRyxmeb/G51ZmJl8uYCMFFYZaeVgctCPSmn6U6G7bIW23dWjWticmdVpKg23mThD6LTRsC8AFt9nUuMYtH23oFlizgwr99TjNzJ2tynBQOF6DdKCDihYClcSkMd1RnoEHgLbDgvRzkAFeVqzKwIdwyFKk+yYWmxQGExAHKAEC6ijCkx5rh2WEWAD+OTdQKfFCYwAzDk3/oRcIa3LklrkcMKghfKXb8mA+W+/OUvb5797GeXsYs/84d0rGs5dvFu3AMK5ghgS8C1vF72speV7f9ttw2ZG0f4YQmxCy7HCeBn7EhvIWURR+7mHOPL2CRP1hr8ufAjHwo65y/8szKRE9D7mte8plheyMTcJT/tQ5baHMjQnsCYNKxh2rRL0uFR2yib/PGkT2gz2+Nf9apXFV4SjMgDP0CYevld2lxodsvIvz2jrwAy2ldfyHkXjwceeGD5DU/p2mXNERJBvtpLenImc3npQ9rLpXx8kIX5WpshFit9UHlTkf6tvcnBArufzKbKYxR+r5akUWiFEeEhzcQmGpOKyTsHq8/83mbXhG7yM2hMhO3Bb3BahRt8BpZJipUKUDLYcgUpPwPISshkB2SYxEx240RWrOrGZWgSMkGxKJgoKRwAlKJST7t51nfSIG/KisKdCHcJhdSvbcZJdqPKK4VBIVMYAAEgQDFTRPqn/k4RU4DAgbahdPymfVko9AtjwxgBhjyv7fQRYw74kQfLDzJODo8zlPSfXJAAC8CNfLU1RU2BKUN+yDijNJ0DlHFRXHksU4CegxGV6zeHXwLsAAx+B5H+in8WY/GClCme1cdCxt/IXJHW4bbFgCIGOAAxcTOACZlJA6B0lS1enMQN2PitDaDIiWUMYFEHRBYAKPmTtXFG8ZtH/KYs3xHZ2dYPoJm3kPwB2TbP7inHHAUc6APKI1/gtbs4KhnFf8oCoJ37pN5kB8x4Bg/qm3znM9qYy8+n8gDelGmm6ffJwq9N8ZT9RnuwzAF36orIQNtNxDxBnuSrPQByVjj9GZ9dcp8c8Iy0hz7q+ZRn95nu34DR3/3d35X+bfyMKw0eHeNao8r3ekvA5LcqkL9BZtKgCAz8QWTCtco08VmlGLS5mrGiYkEBEgwwqx0Tq8Fqdep+GyQZ7AaSScQKxDVuRFYmOJOI1ZqJxsRkks0J34RkZTyZYpqq3gk+AcmDDz645GcyrDQ3EgBCAFtXPyJ7CsrVpbby9RtFOBVxhbjaZCy2iZvGlUTJ4gOQcKHcVSowGbDQL/3GuunyDLA1SOn53ZwAUOjDAFgCoSzXp3TAgWsQUcyuYUgZ/coxR6TSbudj3A2Sf6bDo3TmINdUBHyuzyIGjyxcSe3vec+ntjEPin0SuK2fsFSl1aydtt/3rjzVTz8FsNukzubUNjgzF0nXTdt+rvu9m0f3935/d5/JNuiXdpTvVZA0yq0zz7ylu8jEaDVm4Bpk/UgaKyABjVa7GXCYaa2gWFWslicCGFnZGCRWSgIYxQcAWVZBWQbFYGJKl0XmNS6fJh+rNnUEgsQGiOOwBZclTTAl8GgiHaSYhqkrlwPZiruworTCW2hibQCugUD9YZjV8ELzvJjKzzHUrpM+ZjXPIkARC74GJoxb/ZAlgWVFe/UjeWrHtGbpd/3AS7+y++W3kPdGjUdznLAG75KzyHRauOMA1pdGrX796jEOPPbju4KkflJZovcoOBOhFSmFn1ahfuLgQz8mdvhwzb0kXtpowm0Td5DVKnO1OB1KnSmcO4KZ3zZoKylm+hw8yjUhs8BIN25EXhQS5eS7+gB+FI0VvNVfmrazzutbR4Azr/XNYzafM+lrb+1msh/kkpjNMmtek0sgQbtdZYKIbZowBrlaxMwAUEDPoHEOzLMOC7rN2KrJS6y/DisBi1BWRW49bSH+s5+VbNj8arq5k0AFSXMn27HLmdJlIaLAJ3MH2RHiHBMrUsGpYiW6pnRxRUzJVqyUJ9DE2sCyxMokIBJwYsJPUm5aINJdBWiME6lDAiAuCpYxk59JEQ1SSNOpozwoQOb1UZGP1TDrIOuZ/lBpNCSgD3JrA0MrIgjceATY/T2VNdNYZHkyxvW3QRan0ajpeHFB/gmQfF8f19541Xh8ua0gaXzbbtY5p9wpXdYOIKVLLDwU4ec///kShCzOwSsDJsKd1iYByoJFWaUEs3K1mawBMGCKW4arjTXK9uCMoUiQJi8gbVQAQLtu0/kOxAiu5ZvvxpRMJ59uWrEfdi+RpTiuBJbddHP5t7bSH/QVbSs4VawUy2FaARNwa8cEjnPJU827vwTIvxvD1D/luneBcTEyw8bJrPt0/WsyCZgbpoqjmuz5+tv8SaCCpPmT9ciXZFLkLqL8ABlAKS1K7jkPhg/dln4mYmdoZKwRZZmghlmflcnEbEsrU7285UGhOxbguOOOK+Z/eQr6ZtpXniBRZeaOjVEVWjtSC2BQf5+uJMBA3VjL3Fc/98hiKtCQ+WVe7U8gibWG68QKNNuonWaY73jSJsPy1M5T2YJPWY70GcAYKAaWBOXLW75+s1LWvpWqBKoEqgTGTQIVJI1bi80hv5Qt64RP7hOuMVYQyg7w8boAB9/ZESNQGygCciha1gTmeCskJw2LQ2JFEcgM8FD6SF626jpozynGjgiworLjhJKldLkB0ro0h9WdtawBBtv8uRHb9VRAWlHcB47UDXiczNUBTJE/y0w3P3mSoUveyhRgP11rEhCjDO2HF0Cmu6NKWYNIfQXgO/xTf8mdVGRxTMSqaXP5an9b5+VfqUqgSqBKYNwkUEHSuLXYHPJL0To4jHmdElwVxwEASaxK3kFmh4xt5+JruFRYB1gOKEYgByhiOeFqA5YcXJamegAhSYyOgFAnFzuI0plBnrftH7hydss4natBVgCfU43TxZT1BWZQWlbIQ8Cm3W6ORkj5pGx8AoteG+G8JfIFhuQnjyR/uy9WxDkxQKvzX/rll890P8lbm2oPwHU6IEnbazNla2t9Jc/M4loE3PAGdAPQlRZWAix9XOVAta3m2qVSlUCVwNQSqCBpahktmRRAEqUHoOSONLEvlDOrAOXudy4UQdjiivwGJAFSFLrAUGlYgoCABAdtIVLwgkntggIIKHZWKzve5ON51qVxIXVk8WFRcyVAch8BSr77jfXGTjDKigxXRDBt1xUlLyBUGp8JklIema+/5Un5Aa/aA/jq5pfPtT/lgRfB9doNwJ0OAVQAsb6i/cSXaTsxSZRwnsHCujjqrtPp1Htc03rtBQufvmeRo59MB1CPa70r31UCM5VABUkzleAiep4yFmMEwIgbsivNSb9iYFh7WH8oZe4gn0mUOquByZfyZGEAqmwDT8CQafPTwXysDawP3E/OcHG551iAcdpCrr5OCWYBI5d0h2Vd05oEFDkywdlS6gpUOGwOICT7JKBCzJd4I6CTDDOPTOMeqxU3F5cXtyXA6cwk1zBxSoCStnNNl7qBp9pRrJp6AFwskpVGRwLAEWuwxYidp7b/V5A0Ou1TORldCVSQNLptsyCcUXJijlgmrD5t9/c3IMP11rZidBlMZZ5xTIMAkueAKlYIlzgkL4D0UkvnhTiMsQsKumWN0t8Aw0Ts8JvK+qVOQBSA+JGPfKSACgdNAqFtVxdLEBmwqJH3ZLIAcOwgZCVgzeHCBK7kORVpa4BMW7RB2lTPDfqdJVJeQHSl0ZKAPuK1JMAsC64xWqlKoEpgaglUkDS1jJZcChYjZ3hQoOlCI4RhrBPDCoviT+XP7WNVK4bJkQDjEC+xNjqo504DMoYBGmRIvna8OUzTxaLUBknkIt2w8ub2Yr2xq8z5U/KbCiQpQzA1eVOYM5U5sMvNpux65suwo2B207EsDgrgt8NUOwOwPofpq7PLXc2tSmA8JVBB0ni225xyzTLC3WMyZQ1iHZhLApC4quyEAiAGTfRzycN85s1SBMSoNxfZbFheuPwALfmlK1SsGAAqhqzrWgGSABtgOHcmkgFFa1dd3ksg6zdWKzFS8uVO1U+S5CUOTRq/tYn1gttQvfFSafYkwNIoAJ8VUVsbtxNh1ewGy2urdnvNHgc1pyqBxS2BCpIWd/uud+1YA+bLIkDBupYKASKAA7ABgE7mlhxWJmnxYyFIYCNeibtUjJIYITFj7fgj6dptLPDbLijHPdihBrS2LQ6ADksVixVFzHrVzi8tX2KvkPz9LrZN3vnMsHWq6aaWAJDExfqOd7yjxLu94Q1vaA499NC7gaSpc6opqgSqBPpJoIKkflKp96oE5lAC+UoWRweIY+paeaZbNOsR4ALg2I2Yu9vsNDv55JMLUBIHBaQAOu04J0DG36x3gIxXxVx00UXFDccq0SYWL+/dc+I6wLXvvvsW3tNyleAMMMr4NEDw+OOPL1amAw88sJ1d/T6LEtCGwGnbkjiL2desqgSWrAQqSFqyTV8rPhMJLGs9LA4nz3gCEBIsZJL8O3ejOU/prLPOKtYau4y67inpBLO7+u2Wk688/UYpAkJ2uKXbMl1aeGFNAnzsfmOtG+TaYwVijVoV5x0BQBRu8p318KlMu6Ps0rObTdyacijpNuWzQJJzs8Sb5b12uvp9ZhIgU2DWW+RZJ513le0/s5zr01UCVQIkUEFS7QdVAjOUgG3VXB6nnHLKGhDSDxAAKOJGWGO4wBwb4LMbgwV0OSLAm9uBDC4vlpkEIpl3uu28AgZYETjt+Ia0TEknb2cViRdyvMJUIImiFc8yyAUoT7EtgJT8BoGkfB7/YqXSujVDUS+5x4FSYBkB09m2KQjtwRopCB9Ynev4wSy3flYJLBUJVJC0VFq61nPOJMAC48gEBzMCLiiBjM8EN8AORfeEJzyhBEzblt1Vep5lxXEcwkknnVQsRaw87digzDOtTOKNAC6XYHtEYXpGbJGgePFDE+Fuw1/yUxKu/g+YEpStDmKSWCPk3y2XEt5zzz3LKd0OJPS3/Lp54hFQUpfPfOYzpZR2Xu2y6/f+EtCGABL3prZgdXRAaz/qBmr3S1PvVQlUCUxfAhUkTV9m9YkqgXUk4LUehx12WAEpFBuAkCAhLSr5N2UmWBpY6lqQMlOWH7vOnJUE1OSz8sr8pAU6WHJYEVh1uoDLtn7vTXPGld1vCWg8K882+ZuVSVo7DO2+66bBu7ObWIaAMRYM9UXdtJm339WzHg2QEhn+k8zsWnvrW99aTl9/8YtfPBAkDZ9rTVklUCUwHQlUkDQdadW0VQJ9JAB8OKm8nBIeoTkbbNg7IRvooOgSSGwE1AQ4GgQoMmuuKW64PHU8gRHAdPNNNzdht2lAnI0DtHB75a6yfN6nZ/zmDCXusa4V55abb4kYpJsip6CwBAFA94h0wBQrEh67fCoH8AKQpPe7fOVxc9Tz1nCtZX6bhkyANs84owfvXR4UXWmwBPQD/Upf0C75qpfBT9RfqgSqBGZbAhUkzbZEa35LQgIFDLRqmkDGrR6Yuam5KdxwYnKKKyqAiDQ33virACM9AAFo9CPgg4LMOB75AVu33nJr5H3bmkeAr+tiBxtAAgh1wZK/u0HhXIM33HB92cl2662R1+qAa2nvec/Nmi3us0WJYVpTSOtL8pW3lA8cXR/B4zeFq87OOWnUd6OwHm222ebNfcIqdq97D7aaZV718+4SYIEDMP/wD/+wyNTreipVCVQJzK8EKkiaX3nX0ha5BFiPfv7zy5tfXP2LApbuGdaUDQMcIXElV8f9jTfeqNk2rDEsMoNcbtIDGwCSrf0OeARoWK2WLZPfXcU9JuYHQNo+LDzceG2wJo82AUh24V133bVxuwfEgBrXzWFZuuH6G+IFtdc0DwjrxX3CCpV8t/PI73gTw3T5ZZc1NwZI2iAsSm3Q96tf3ViC1G+IQPUHPOiBBShFSfl4/QwJ6CtANHCpDV1d4k495JBDurfr31UCVQLzJIEKkuZJ0LWYxSWBZQESukTZXfKzS0qw7eb32ryZiEDpe612XUkLJP0qLEmXXnZp8/MAK9xTO0Zg9SA3FMvRqtiSf2MADnFA9wsgBHQVsBF4Q352y10Wu+UuDSB1WwAmAKcfATKXRZnOTgLOXNxhwA6QRGHb2SavVXFg5A5xXID4pEF03bXXFYD0q5t+1dwv0gFoLF+ZH1lcE0HHlwWIumjVReX4ga236f8+uZQkCIWXpYClyMmuxE9+8pNlt+PBBx/c1HOkBvW2er9KYOEkUEHSwsm+ljxmEgBO/ONmurMDkn59RwCW635ZziXaOgDD9tttWwBS27IDDG281cYRS7RxARisQ1sE+BE71AVKANIv4owjBzxuF/Eo20V+3cBszwA7Yp2cW8R6dW/urYh7apcLAF1zzbUB0G6MIG8xRdsPzAvQuTDeJwfg3CO+b9XnRbksUn5nBRE3tU0EjadrMJuUVQR4Yim7+OKfNVf/4uoAeP2tJSxkd93VCwBv8515LcZPYFCbffjDHy47I8V6rVix4m7u0cVY91qnKoFxkkAFSePUWpXXhZVAGDk23GDDsODc2dwRVpw2CYJm1SnAJUAD8NOPABYuMzvYuMqcsQRQdAEQC811v7wu0m66BiBJzyW2yaabNL+OfPzNzcVCw3Jz+WWXl/wAljZo+eUvIwYpXGPcYXbCqYP0hQKgADy3xt+bhWvHLjlnKgFweNsyvhfrzurKsID8Mn675ZabIwh98+Lm8xN+loVbUb4OsAQk1RHAkxerGStWz13IZrSW5HlXyPTOO3txW+3y1qZafN+AYzsYAV0HfS6Vei++lqw1WswSqCBpMbdurdusSoASYwUCAO64/Y41riWFCKwGlIAMFhMEMABFd0X6ZQFMBF17FQmQItaEBaa43QLsdEESUCEeiYUB4GG14cq7IKw8945A6Nsi6BqIEnC9T5yd43m70m4Ilxml2wZJ3Ghcc1tu6VDHezRXXnFlOV17o4iNwttZcXI2QMQCtsejHlXikW6LssUpqUM7L3WX3wYbRlzVtmHFivLVgWw2CT5Zv5zETR47PnjHcqaSeKkrfn5FgKTrSn26VjOWJPzdeeevS36LBSwAf+qlvv3q9LCHPaw56qijShrHSOgTlaoEqgRGSwIVJI1We1RuRlgCGwQQABh8AjAJIACHm4GaAERbbrVlsdh4XQi31fnnnV92etmBdku4qX4Wh07e/wH3bx4ZJ2MDVJ6lSCnUVKTylpcdYiXwO5SsWKEf/+hHzZVXXVUCpVlkgCLHDVxwwflhiXhAc8/NN2tuvnX1brq2HCNvQdgbb7RxuSt+6bqweuHprih7gwBtArVZg75/5pnNY+I1F/cKhW3nmuBsQCiBDV4BKIBIefj+2c9+Vqxam26yaYlB4mJT3mWXXFqsSbvssmuxiF0TliSgMfNKFslAnn7bNKxkKYf8fVw/9YFVEVO22267FQtatx4siM6kQkvFzdiVQf27SmDUJVBB0qi3UOVvZCTAncRKtGEAk9sCjLCWAE2cRywyAEMCgNtvu73EKF1xxRURBL1Ds2lYoO4IqwwAcFe4lVhP1ijG+N4GSb67UKZhSQIiJiLQ++ZwdXFlbb75vcK1dVVza1h8WJ42jXvyLVd5uvdfySujo+PWZgFufh58CeS+47Zb40iCzQqw2yjqtXHUEcBRVwTAtCl5U+eSLuoD4Fx00cXlGIA7fn1H4yRu/AJPrE7ijUo9xB2trlc7T89zHSoL+Ms6t9OM2/fTTjut+cQnPlFOMH/1q1/dPOUpTyluzHY99AUAtFKVQJXA6EqgjtDRbZvK2YhJgPLmEqHYbonAajvGxJUAFGk9AZyk2bTEEm3X7LrbrmWXGFAj4LkHbjaPOKTNCjBQRc+3rSfFchP37mS1CWCFuNPsNrtvBF6LLRKcLTaKi+qeASw22XiTkhaIaedVHg5Ec2cAlF8HgEHikvDpujYsRXc1NzcbbrRhKPEtSyC2egJdkVEPBMZnkt8AQRalAswCJLKIcbP5+95b3Dt4vF9ze/CNd3FOtwVgvP2O24vcxFB1CR9AlbwdaOlz3MlRC6eeempz+umnN09/+tPLS2jFelWqEqgSGC8JVJA0Xu1VuV1ACVDeBQBFXA/Fbhv8AyOWBAEDmwZoAha4qqTb7aEPaXZ9yG5rrEvSPfjBE8ViUgKzI6AZ4AGw2sBGOe4DPFw2gBUgwsUlrb+lAbq22mrrZtttti0g5JprfhFAZOP4bV0gIq8EIqw1XGu7PeQhBWhdGi4xO+icBO41IzvtvHM5wkCgN7CmHm3Q4h43kcMjWYnspvOce9dHjNQmIRt8IscIOLpA/nbrOVwyLW0lwer/xEOpyz3u0Qtgb5fXTjdO352UzaKm/suXLy9gc5z4r7xWCVQJ9CRQQVLtCVUC05AA99q9wloiaPrKK6+IJx9ZnmbpYd0Rc2Tb/CCLiJ1pwM9VEVvktGyB2VxMXQK6ABegi6JlhdhODFHLUgSY7LzLzsVic80l10T80E3lxbOCy9vkPWzii+y+s9PMjjXgByB68MREyRMwAWDkL7hcYPj222+3DkCSJzDH4iQ/B2NuvfU2xQUp8PjXq3doFZAT+eOZNenCCy4sgOt+O/Q/7PLKCOq+KXjfLsojxzZgbNdjnL57HYyXCwOneSbVOPFfea0SqBLoSaCCpNoTqgSmKQHv0RJIfdnllxU3EbACPAEFtseLQxJjs11Yf4CdJACEBeaqAD7XB2ABCBzCyDrUpfzN2UYOZOSO2jbSppVGemc1Cax23o58y5lLAWBYe9okL7x5DYk4IXnl4Y9tyw7LEPBGsUvPetWPtrj3Fs1NW95cwNSqCEze/r7bl/TtcrnjgLIrQxbqDVixgHXJ0QMXX3RR7Ba8PUDZfftamrrPLPTf5POjCKJ31IHAa9v3u20I+PYDvwvNey2/SqBKYHoS2PDIoOk9UlNXCSxtCbCUeB0HV5U4IZYe94AEO9IAF5YWu9TEDd0WwdGACdeZM4kAJDvL7htgC7DpZzlxj+K1k66dnzglAIx7ynb/qyM/AInViVUKIOpHG0fM0rINIi+ur3i+x1svLyd1cx068PHGG24MnraIwzDDqtMCeO08SwxWsVaFOzB4AHTa+an7tQEWixstvgNbXsPC7dcmQOr8885rvhtvui/HDzz6UWXHXjvNKH7/yU9+0hx77LHNF7/4xdJGu+66a3E3jiKvlacqgSqBmUlg3SXnzPKqT1cJLAkJcJ+4zvnJ2c33zjijgCRnAQFKLDTA0tVhkXHwIzcSwBP71Yrlxy44wIg1qvvy2a7w5OPUasCL2+3aiN0BSmIfXewSi9Srd6w5bwkQYdEaRFxwQBTgdVW407j6nBAerJVTxAEWQdX4B/y6LrtuvqwkxYISPNra/4sAa9fFe9+WBU8sXHdEPfEvL7JpW6wyL3yc+s1vNrcEiLQDUNqFIm5B8VpltyKhDCBWsYvC8vXtb3+7OSPa3onjBxxwQLGkDXik3q4SqBIYYwnEK6hi1FeqEqgSmJYELo4t7yevPKmx1Xv/Aw9snvjEJ97NnUTp3hTvarstDpFELCmsMyVmZ1ql9RJT5HbU3RZHAcjDrjZAq58laqrsud5YfFi5BHrnK0Nmwhs31J14C7AFRG0aoG0Q3OCuPPGEE5pvnPyN5slP2a/5rXglB8CxEGQKPOmkk8o71J773OcOtMYlb9yfn/3sZ5vzzz+/AKTHxrlSYrwqVQlUCSw+CVRL0uJr01qjeZAAy8ej99yzOS/cRf/zla8255x9dvMbEazLasKic1O4w8QeifFhPeKS414T6yP+5rbYEu81HINAhCrk6iUPggRgnEP068hPnhHsUwAJJZ/XoKrLq7jwwrpT4prihnOXHCHAfbbBtbHtPo4JsF0fuCvpB2TGKubUcJYipiivG1FP7kRAkMUqY564GbkIi8kq+AT0Lr/0subMM78fL/q9JI5I2K3Ze+99FtSK9K1vfav5wAc+UGK/uM723XffUnMy7QdAWQEPOuigErulrpNZ8AaIsN6uEqgSGBMJVJA0Jg1V2RwtCXBb7bzLLs2KJz+5+erxX2l++P0flJ1t3HB3xMtunYwtsNvJ1hTtlgGSdojzgyjVTeJZQISLaxAlSGHl2SRcZRss22ANEHKmEcAkD1vr5UOhT4a48MDCw+3lDCMnenu+3I+88AT03FneSxe/AQgDmPPMhvFaEkDt+htvaC6JE7wBQrFOLEjq6CymLSNQG1uAGMKj2KWrrogDMMOCNbF8onna05/WLN9p+Xpb10rGM/gPwPvUpz7VfPnLXy4A7tOf/nQJyBbb5UTzvffe+25AiZwWyuo1g6rWR6sEqgTWQwLV3bYeQquPVAmkBCj+0yM+5bT/Oy12PJ1VArp/9OOfNJdcekk5iTrT+QREHhA7oR4S1hNb54GNyYASCw9QwyX2ywisFvvDMuPVHSxSzkhiuQF2XIMI2NkwFLuyxA5dcOEFzS8ivglQQk7a3narbZoHxdk+O4TLC1/yK8CrpFj3P683ETh+6eWXNmefc04J0l43RdNsteVWzfKJiWan5b0zghxm6aTxjQJceSHvXnvv1Tw+XJQ7xzEEC0UsXyeeeGLz+te/vrjOAF9WIrvwXE8OAHzkkUfWM44WqoFquVUCIyCBakkagUaoLIyvBACKPffaq7yL7fxzz2uO+fAxzekR0OtVG11yDzh5SLzY1CnMDlu8NcAGq5GrTcCRvO1c+/LxxzcrV53UnBfvaONqc3+n5Ts1u8f73w6MoGEHOgI0gwDXRpFXPNRccP4FzUc/9tHmqgBKtufLBxULT1i/HrjjgyK+6oCw7OxUAry5Bdt8SW+33cYBzL77ne82xx33qZJPm+/8fv0N15fddM88YP/ypnvPyA+o2y6AiLObBu3Eyzzm+lNMkRfMsoQhVi4nZV8a8VKsYWQkzkowd6UqgSqBpSmBCpKWZrvXWs+iBLhfXA6RpFTF3QyiX8Xvd4RFZ/twRz3qUY8qliFpgZEeZOmBFq81cW7RCSec2Jzxve8154TF5sZf3VhSATXnnX9eeQXIPvvs0+wR+QAdrEwJfDJPnxsHbyxIP/3pT+NluBeUE7DL75FPkmMGLomAZMBgeVh/gIR8NUmmwl+5wsJ1TuR1QzzDLdePALYb4rgBQMjp3l7fws3H5TcKoEMsmXer2aHGTZiUFjnvWnvxi19cA7JTMPWzSmCJSqCCpCXa8LXasy+Bm26+qViKBll0lOi3Xwb4ETQN0EwW9HvtNdcWd9D3zzyzuT5cQz3qgRKuoh/84AfN1772tebRj350OQJgMssMEHTuuec2F8eJ4IP4E3x9VhySuH9Yp8ruuQFnLgES3G1A3GSkTK83YT1KIDlZ+vn6zWtSvvCFLzSf/OQn14DUbtnikcSX4b1SlUCVwNKVwPi/SXLptl2t+YhJIMHHoFieZFfAc9nxlTf6fLJI/fjHP45jBlaW3WN9khSQzoA3igAAQABJREFUYuv6WWedVQ6c7Jcm77EkOR0buBlE3E0XXnhhOQRyUBr3y5lCAfbS8jUoLaBFJimXQenm8z5eToijB2zhJw88cm22L/w4B+n4cHOOEu/zKadaVpVAlUBPAtWSVHtClcAsSUAwtS3kgMsgYpnYKWJ+BAhPRqwdXm/CGjMIdLHoSOddaz4nO6uHJWcqqwjLluBl12RkB5sXuHpf2w9/+MOBSR0DsEvsABwF9xomydGrRL70pS+VOCRtwJIHICVYIiekjmKVWMu0a6UqgSqBpSmBCpKWZrvXWs+BBJyF9LSnPa35XsQQcYOxzLSJAn7Sk55UDp4EMiYjQIWiprwnI8BGuqmAjRO5AThupEFuMvx5F5n4oanoYRF8/tSnPrVYsbjwurTjjjs2z3jGM5rdd999Updi97m5/BtIUkcnZD/ucY9bIzf32lcGzY9CcPlcyqPmXSVQJTC1BCpImlpGNUWVwFASAFb2jAMmDznkkGI9Of3009e4rlgjBGr7zae0k5GTtAGNiYmJcshhBhS3nwGgBFlLB/xMRqwmj3nMY5onPOEJzamnntpcF+9WaxNrD95XrFhRgsDbv/X77pwgIMnLdb/+9a+XQzW58lizvK4EQDr44IPLeUn9nl+oe/gDZIGiUbFwLZQsarlVAlUCU0ugvuB2ahnVFFUCQ0uA4mWx4VKjkIERAGX//fdvjjjiiKKgh7HUsGbIy2GHdqR1QQ2GgBGv0QBIWD0mI6BAGmBKni67utxnAQOeXvCCFxQ+J3PbZRkAmsBmFiX1k5dgdEDLrjBg8JFxAvkoEaub+mYg+SjxVnmpEqgSGE0JVJA0mu1SuRpjCXB9se4ASnah7bHHHgV8eL8bJU1ZD0OsTQ9+8INLUjFHgA0gAjw94hGPaJ73vOcVQCI2CKiaijzn8EbgBWDifnIyNlDz0pe+tFiR7JAblj/pgK6HxBb/BHXPec5zChCcyp04Fa/19yqBKoEqgVGQQHW3jUIrVB4WlQQSZHCxsRpxnbHWoPxtmAoDVEDSYYcdVg5kFBDuPWN7xeGV++23X+PFqhPhjpNuWAK8uPvKy2gj8BuIY+UC5KbDW5bHoiT4WT3VMa1V+Xv9rBKoEqgSGGcJDD+7jnMtK+9VAgsgAVvlbSFn/XGtD7HQsEgJvOYGs9vtwAMPbBx26NUZ60PAEBcZd53DI8UXrQ9AyrJZpASpi5uaSV0zv/pZJVAlUCUwKhKYfOvMqHBZ+agSGEMJAA+AA6Dk+0yIBYhrzLb6HXbYYcav9BBDxJrklO7JTggfhud2PWejrsOUWdNUCVQJVAnMhwQqSJoPKdcylrQEZmKlScGx0AA0+dk9XiDTTfcTwJkpgJtumTV9lUCVQJXAuEiggqRxaanK55KWQIKZtNpUYLOku0OtfJVAlcA8SaCCpHkSdC2mSmAmEhAgLT6JVWo2LFMz4aU+WyVQJVAlsFQkUEHSUmnpWs+xlkCCpPbnWFeoMl8lUCVQJTAGEqggaQwaqbJYJSAgWqC1mCRb/qez7b9Kr0qgSqBKoEpg/SRQjwBYP7nVp6oE5kUC11xzTXmJrPfBuc4555zy0lhb+L08dn2pxjStr+Tqc1UCVQJLSQIVJC2l1q51HSsJXH755eVFuV/5ylea73//+80VV1xRziP6zGc+U44VeNaznlUOmVyfGKW5iG2SJ3fg+vAzVg1Tma0SqBJYMhKoIGnJNHWt6DhJwCtIvvnNbzbvec97mjPOOKOAouTf/SuvvLLxQtlXv/rVU763LZ9rf842SErLVAVIbSnX71UCVQLjLoEKksa9BSv/i1IC5557bnP88ccXC5J4pC75/Qtf+ELzmMc8pryc1jvUpBsGpLD2SCu+qV/e3bKG+RtIkp/LAZooP4d5ftTSqA9ZklWlKoEqgaUrgQqSlm7b15qPqAQo6IsvvrjEH012GvYFF1zQfPKTnyxpvTttsrRZVYp/k002KXkDWvkC3fx9fT5zxx3r1wknnFD48b46gGlcSRu4BMjvuuuu5fIuvkpVAlUCS0sCFSQtrfautR0DCQAX3tF24403FmsGZd2PuNtWrVpVXlMCJHnVyKC0+TyQ5LwlAeGsT8uXL2+88mSm5JUpE/GyXW5AAA8QG1dLUlqQ7Ca8+uqri6y8vLeCpJn2kvp8lcD4SaCCpPFrs8rxIpfAxhtvXADMVC+wZa155CMf2eyzzz4lLslrS6YCSSk6AAY4AmyApZkSa8umm27a/PznPy/gCNAYV0prG8B38sknN5deemnDSlapSqBKYOlJoIKkpdfmtcZjIIGddtqp2X333ZtTTjllILfSPPe5z2323HPPZvPNNy/xRcOCJJmmVWk24m5YsoC6hz/84UMDtYEVW+AfEiRdcsklzS9+8YtiSZqOXBeY/Vp8lUCVwCxKoIKkWRRmzapKYLYkAAAdeOCBzU9/+tPmtNNOKwdJtvPea6+9mkMPPbQApLQ4caMtFAFaswG2For/fuXe8573bFj11GucLWP96lbvVQlUCQwngQqShpNTTVUlMK8SAHz23Xff5qUvfWlz//vfvznrrLOaq666qoClRzziEc1znvOc5qCDDirWm3llbAkVZuffbO3+W0Jiq1WtElhUEqggaVE1Z63MYpLANtts0xxyyCHNHnvsUc5K+va3v11O3z7ssMOKlWm77bZbTNWtdakSqBKoEhg5CVSQNHJNUhmqElgrAS60hz70oc0DH/jAZscddyzb6nfeeedqQVorovqtSqBKoEpgziRQT0qbM9HWjKsEZkcCYmI222yzshvNuT3iY2og8ezItuZSJVAlUCUwmQQqSJpMOvW3KoERkYAzkFzOULr99tvH9gyiERFnZaNKoEqgSmAoCVR321BiqokWmwRYYgTlOqWapYaFxjXKlNajutNqlFup8lYlUCWwmCQw2lphMUm61mUoCQAC8wECgKPzzjuvOfHEExtn/Oy9997ljJ+hmKyJqgSqBKoEqgSWhAQqSFoSzTwelQSQvI7j1FNPLa+3EKz8uMc9rrziYrIaOPDvBz/4QXPRRReVd2z9xm/8xpSnSHNdAUnHHnts86AHPaicWO0gxEpVAlUCVQJVAlUCKYEKklIS9XMkJMAF9n//93/ldRBemeEFrK7JDir80Y9+1Pznf/5n85Of/KR58Ytf3Oy2225TgiSv5fjlL39ZDmsU5+N7pSqBKoEqgSqBKoG2BCpIakujfl9QCXCzOeWYRenHP/5xOUDRoYnOA/Kesn4E7DiR+qtf/Wp5Iaz3kQ0bW2R7vfI8s5CnVferV71XJVAlUCVQJbDwEqi72xa+DSoHLQl4e/zjH//48uLW66+/vvnud7870MoDIHmhKlfbzTff3Dz60Y8uL3vN13S0sr3bV5YpF2CW190SjeqNAJGVqgSqBKoEqgTmXgLVkjT3Mq4lTFMCD3vYwxpxRd/61rfK9axnPat5wAMecLdcbIU/99xzG+4279jaZ599SrquVciLSi+//PJiaXLekDfWS+97ps2dY3crJG7ceOONzWWXXdZcffXVZUecl8luu+22jROxWaImcwX2y2+97gWYCzRXHr0rwF1+X6+86kPDS2C1zId/oKasEqgSWEwSqCBpMbXmIqkLQOT9ZDvssENxuQmwfuQjH9lsuumm69Twpptuas4888wCYLzfbM8992wAGAT0XHPNNeV1HmKcVq1aVbb7c9vtvvvujVOrr7zyyjXWpHUyXv0HcASEfec732nOPvvs8u401ivWromIl3rMYx7TPOEJTxjoCuyX5/reWxZlLov6L3OYpO9xVZpjCZC1KwB1oOo5LqxmXyVQJTCKEqggaRRbZYnzxP31kIc8pGFR+sIXvlDcaY997GOb5cuXryMZIOj0008v4Id1CPjxLLLjbeXKlc373//+8r4z91l+WH08s9NOOxVwI2ibNSmfywIAJK6+D37wg83//u//FpdfWp6uvfba5r73vW/DHQiYDYqXyrym/Ixg9TBRNXFCZP+kLEfhTlx2yy3NsuB3g/iMbYBNBFMNfqZ/TvXusBIAQkPGy+KoiGVhsVwW8i9E9l2K/hOdqInO1f2l/l0lUCUw5hKoIGnMG3Cxsm/7P/cZkPS9732vOf/889cBSVxttvz77d73vnexNLEOATusSN/85jebo48+ujnllFOa3/qt32qe+cxnlnOQPCconHXJUQNcaABWN9j7jDPOaN73vvc1n/nMZwpYE0Au5gnI4r6Tzy677FJcdjNqA/FFF1zQxHkETZiq+rvRwopxVyjpOyPdnT/9aXNnnO1018UX90BS8FFpliUAaANJAcLvDEB9ZwDmuwKchs+2iWPPmSnXtpO0cYREvGCvabbffpYZqdlVCVQJLLQEKkha6Bao5feVgB1te+yxR4kx4m4DbJ761KeuSctSdNZZZxWgtNdeexX3nF1qCHg6+eSTiyWIdeklL3lJ85SnPKW44hwxAHyJKRL0LdaIC60dV+T+SSedVPIA1o444ojmt3/7t8sz8ufmY4FSnpikGRGFG0Cv+fSnmzCZ9ZSzDN1PYqWgpFmPrruuuevCC5swX/WsFyxQlWZXAoCPCwB1NITPcOsGGl/Xcsfyp22e/OSmecELKkia3VaouVUJjIQEKkgaiWaoTHQlAHywDIlFYvGxg+3SSy9txB6xFgE34pHsagOEWIOSxBEBUE7VBo5YkrjHku5zn/s0T3ziE4sViksNcGoHbl8QFhsWKkDsgAMOaPbff/9iNcrnt9566/w6O58/+1kTiK5nTYo6N8Ffcd0kAOLGSXdO1H2Zv/OaHQ5qLl0JkC8QBCyl/LUB8vqa6FvNFVc0EdjWxBkVTRMu2EpVAlUCi08CFSQtvjYd+Ro57fqWiO3gsmpbcLi8gCOfgBBgIxaJ64wlyWGRgrn9dmFYU+xq80oRQKq9++3icEVdFa4rYEbMkFiiLnlOzBNrEEuSKwkYsxvOc4KzZx0UZUE+WYxSGQNycRhmnIbZsyhRxEjQsJiYAH8hjKb5zd9sImirCWH1rBy9VHP3P6CA2tat3p3F+b/6crcFSA6/rO2NTWy3bAKN99xtLJZAUVgrm49+tCeDpSKbxdnitVZVAgMlUEHSQNHUH+ZKAuKBTjjhhLJjzI41lhzAiOXokEMOKVYb9wEmIAUwEgfE6rPffvuVV5cASOKUHhqxICxJW221VWGXRcjp2SxMnt8+4kTsRuuSe2KZ7IbLOKZMI2ibFUpANoDUjVfKdLP2ScGyUrBIrFjRhJ+xCYTWc7EpxG9cbdxy4QoMM1gTgumlSWvTTJiZDAT5LS0owFwLTM6kyJF/NvpfdLoeOAWIyNwlcJslKeKVwu/aNJ/61Nr4pJGvVGWwSqBKYLoSqCBpuhKr6WcsAW6sc845p4AeQEZ8j3OLgCUAJV1fgJKjAFh87DATTH3DDTcUwPTTCGAWG8RS1LYisQixUOWuNXm0rVXJPODDiuT3LkjyPB7w5PL7vBAwwkrhGAPfKeMkoInliFXJp799d80lAWGCxAE5bsawwC0Z0g7AEpBN5kj7IPL3G1ccIp9KVQJVAotOAq1ZeNHVrVZoRCUA1Oy7777ldSNASlqSvKPNNv084BG4YUWyq+z73/9+AVaCuAEsLjVWIEHYbXeYZwAbIAjYScAzSBRtN1umSWA0zPP5zKx8UrTBc7nSepMZC9z2W4CWuzLNTABSHF9QdmuJqWERoeyBgpB/sWiJiwIO7biLHYYlBidcn8Wakjwt9k8yBxJ9utqUbZDgaL6AdJuH+r1KoEpgziVQQdKci7gW0JYACw3rDxcZa0/bSgPYsCwlSPKc70DSypUrSzC2IG5WJGcVLY9zk+yAa59TJD/xRuKJrojAWgdGcp1145LERXHLsUYBSm0+uOGAN1YrRwQAS/NGqXQ7BbJlpT0rPztJhvtT/lxFcZp58/WvNxHs1cSBTz2QxFIkAP5pT+u58wCl2E3XfOUrPXffFls0cXrm6LmXuACBGHVj9ZlNwDKgPYYTdk1VJVAlMO4SWG0rHvdqVP7HRQLAiHggwAaYsdMsL5ahNkDKOmXcEYvTV0JhA0ryAZ523HHHYjnKtD7ds8WfW88uNUCoS9eF8rcLDhCSV7tc1iuxTJ4TByXNQhMegUh8+uznQhyKR7FNxx7bNG9969p4mjhYM7YN9ra7H398L1iZhSnKLASEsKj4HEUKIFsA3xe/2AN8swhs2nIfxapXnqoEqgTmVgLVkjS38q25D5AA5TMsccN5l9v//M//lHe5Oel67733LkHdbStS5ue07kc96lHlwMjPfe5zsVlst7KV39lLgJbjA74YCvVrX/ta+bvLi+e5AwEk6ZaHxerZz352AV8ACoDltG/POblbbFM3j+Rltj4zdopVS1n9gtGnLEvQ8Q9/2DRf+lIPTMQ78ZqDDmoi6r3nTgM2BIbbXRcgc02cDdDB/TfbVpopGZ4kAZ6yD0UAfxxs1fs7zrNac3+Sx4f5idtV27Ja3q19lT+LYGwYfmqaKoEqgfmXQAVJ8y/zWuI0JUBZATpOuBaPhMQ1AUJAS5f85mwkZyU5FPLDH/5wHGp9Qdk9x7XmsEkuO9/zCAAuuSRWqBUrVsQh2OfF5qVPNZ/4xCfKkQMPf/jDi9UKyGJlApAcUyCPuSRuQfV2ejjrl0/1BuZyV99Q5TstOupdjhJwhMDv/m7TPOlJ6z7K6gYQCUpOFxYZi38io5BdOR/I9nhxTGKYAsSWoG7PIc85ndquMGDLrr12/BT3JTDGlZe/K8NWe/czKJ0Fzw4zBzp63onWWRaAlPxwB9qO7zmWMDxJGxbBwlePq2n/z1VrB6XjJvRBxMJ4/7BUbuTvrK8fKmAihUpVAotOAnfXMIuuirVCi0ECTr7OM5NYj1iWHBnQj7iiHv/4x5dYJLFHXG4/DAsKQMECwyrDEvW85z2v+epXv1oCv9vuNnly5TlpG3gCSv77v/97TbwUSxJl+aywxHTjmfrxM+W9tIj0ScjV57gEr2dxXpTTwClt9TnwwAOLhYy7cijiLmNNAm7EF7naFhmZABpJqfhZkIAnAEkQt7OavEoF39EuxRoVoLK8nsOzygirX/hFmzgmvYnjynvWqswXGAJs4pUfcdpn73d1sIvOyeN20OGNy4+FiIUL79yCYdEr+QFCQBZQ9PnP98CfE7H/3//rWbwe97heWnFW60FANUsj965NAly8X48YrsdFv3reC1/Y7BJ9qQD0bLv8XI+y6iNVAlUCoyuBCpJGt20qZy0JiBPi8hLYLXaJO0xM0yDy29Of/vRmYmKiKDgWmF9FPM4WoXxZoAAu4EK8k2ByVqI2KcfOOeCM2825TACKYHPls+LIw268QcRFk9egNGtcQ5RsgpLViQGkzwcAeM973lOAXu7UY8Vy4KXDNYFA75UbyqLE4hXWuPJKE6/ZEMPjvWOD6oAnF5DkVSjACjmx0HiOlQdg4u5i7XEQJqDCknT22U2zcmXP8uO1HW0CooL35hvf6P2eVjx5nHZaz9IFNAHBXH9xWGgJMAeqwjoYprsmjkHvWZd8tyvPFn1uQ/XzN/58rgcBSB/4wAeaj33sY+VQUS5aAfyXxMno3/r2t5sr4wyuw+NdgHuyJLmAzkpVAlUCi1ICFSQtymZdfJXi0gJMuMKs4O1Am4qAGadxA1hcVqxCLEmODABuWJy8D441SNousThNTEwUAOL9cA6oZHECoAAsgGsyko6bRpkDXXIULNcWMJK0+juL0Wc/+9kC0IChJKBOXbjgPh2WFzsFHbo5JQEUAIc4pIjVao45pmlWrept6w9AWAAGQNQmvHCPCfgGjlhyACUgxutUuLXiJcBlt5ydbwFAC2hg+fGcgO9+5H73dyBROQEAIxCsx2eck1UAkBcA4/njH+8BKTzE+VllJ14A2PKcZ+I9fYU3bQM0TZPIlYuW1ehn6reayFw/uSbcjF+KmK6JkOWDQ1bbcLtxFZJtpSqBKoFFJ4EKkhZdky7OCrHIABrtgyOHqSlAdb/73a9c/dJPZgnK9Ln7zt+Cxu2acwI4pemiQLuBvcCRIwi4aoClLIcSZjG6C/gIwLVBPL9NgKGtA4DdA/BYff/GsLacHxYN50OxgPUjr3bhShQ75cDNKYGjvIEasUgsIFxVrDnilBwJENa58soTcT9tsASgAZEAVlhQ1sT5TEz0XGvycJ4ScJMgCXgA/gAI5bbJ3+3f8zf3ASXgBuhTFpkgPHHTffnLPXDGFQckAUZcftKxiIWbtICq3lPT/l/7fjusRWQ6iC4IcHpmyP0pEfu2TcjxxgDgV8ZRCtcHiFwW7ai2+oQLed8gS1/GNZWb9b8qgSqBsZDArIGknBSmdC90xELJoOlsac6ypvNMp9hZ+xP/061z8j/oufx9feUyKN9Zq/QSzUggrzgVFhxWJRYibdUl8mdxYr3yYl5AzW44759jESrPhAXprkizUVhUHhvuvL0j7f0EMQMKcXGpAWPK6VeGMt33u3SA1JQgKRllnQkFH4FZPdAB5ERwenPiiU0EWjXNi17Ue1cZXoxPVh/gKlyTawCSvFiC8OwCusQtdamPfLpJ1vytLBdApKwESBKwuAFP+MAPsInkD8ThxWfIsVh18D5N4lbTZpdH0Dn5D6QoW3teK34r+JL+lLA+nR3u2A0jj2XmhHgYIOYi/c14154YOa7bSvMvgdQx/UqeyVypv2Te8qGPRkEn9atnvbf+EpgVkKSzmDRM2FZMw07W0vP1W2FxgVA6w5CXl4oN8cxAN8YwGc0wDSVlgsS3epdAziHytFr1+g0HHPaLJRGLIo387Z4aRi4mY8+Y3MlfcPOw/AzB8pJPIk7l+LC8fCssLna17RqHLuq3+r52Mkn6RCZKsgdeuGykoyDtziugJ5ToXZT+apC0bYCnTVhWIq9CkY825wKUTzvvXoLe/+77XVtzDU6LxHMJqvayXFaTCA4vMUr/8R89wPGylzXxTpgeOAE45C/up0tAjd9dg2i1XAb9vM59cuG66tZHOfIBxrplTSf/dQpb9w/yJHdzyqRjR7rgz4U2C7lw6d4RMVTLxGNFO2pPbc1lClhrH2m6GwTW5aD+NZsSMB7Ni3QTfdEFMP7WLv3m4Kn4sNgRFyhO0RxgDLJy29BRaXFJYEYgSQehOE6PgEpKxKTgLBrBsCtWrIg3GDyxdMKuyLzglN/fKlselMiDItDSSczPDBP78jChdzu0lTIFpTxbu63SdEq7nAT02iI+HTJoTGD/9V//VYCaju4yUSLfgZjHxS6ZJ8U2afVK4kax48muI2Z5E6oDDMWFHBTxHu20+YzybCcWiMucDxxy4wgY/u3Y/SPmJeNiuFC+HG4Fg/CAAw6IsIunlViczKvf52kR8PrReCM5kPQHf/AHRfb90tV705cAy5FdTj71a/1UbJRJOIFRO9dUtgA0QK8fCfIWMM5FtoYAoFD+94p+eC/nF0WfK0Ag7m0Rky4wtkuAMf0gV6xrno0vxgiwJp2+NC3Szy1KXFGfYlli6Xjb23qHSXoFCZAElEQ55TP4LfytHiOlPAClH0jJe4NAjboCPl2St3KU2aWpyur3TDePSf4mTwsvcWzmtEGHiG4eihDgfSD3XtRjm/h7rxj7u8dGgZgEizzkpW8Aysccc0zZjWiO0HcqzY8EzOHc3e9+97vLGDIu03XtO8AKEHOF0yPmemN0MjKmTwyL66mx29F8YKersQlcWwjZ7PGMZzyjxAkOs7idrKz622hIYL1BUp4h8/EIpBSfkYoB8AEgfELwQE9alqBvLyr9yEc+0qxcubIc0gaB68wmJcBJp35RmPt12iTPfSNcAv/6r/9a0piAdEDxGvIBWn7v935vWhMQQMf9YReLc28ANWAnlR4QZoXhvu3ggI/fTJyCae18wXMG7wI+6mbQ/G7EfDgAsU22bAMxztwBZPAvPwPOYHtx7AzaP3bs4IE8pAcI5QdIUcqDiFUq5WrAK78O0EHSmt59/dExAQA1IA7QijEZhkzA2k0ftwgYuMoEwKM/FNAACMSkCyIsn5hoDog+cVW4+SwM9IskY0Agu2MAHIXg7/UmQEadWJYEYdv5FmOqkHzboGjYQtQDv4BQlzeurLB6FkAxnfzlmdTmyX2XezFe14vf1flaqKxYsaKMSQA3lWoWW36PM7geH0HqOziCICwV9whL0j24L/uMUe0OINsh6QgHsWNi1CrNvQSAF4tRB8oax+ZEss853qcxRRcAvXSW8fTk2I2ZC9bkUjq7ST8T48Nlt6zn7aIFtljxz4xxo439RodxsdZ5OCU4vp/rBZIoeSvrN7/5zUXhO7jPRSHYKk25O9eFq8EqF8jQkfz99re/vQAdKzZWF9YXExEQJM+jjjqqrLwp+wzS/c53vtP8R7gBdHbg47nPfW5RVCwuAIst0lboOjpABrBNRYDFqlWrCkDSkT1LibH46PxAUiq3dOkBawDg0UcfXUCMXUXAGTo5DrNjWfqnf/qnshp1PydDIM7Aete73lXkAMRYUVqVHBuviLBDCf9Wmt5FRl4+yVF5rHT+HkTA3hlnnFHiXTw76PygQc/X+/0lkCdzA6xAe/a7/qnvfjdjUvQbV18CIqKvFTDBgtIi48lZTsaHSdvChPsAkDauHHFw6KGHFjdO67HBXwGJLAs4AY5yrPgeixpKPwpb61rzjAufPvtRpsnf1SNBnwBrAddpiZV/AM5y5pL7bR66+QxTljTyAMhYceSfwEx+Wb9+eQ24J4ZIbJK5gNLzncJNy+/vU4DRHzaORV0pj0wHtW+UYW60kKRkz46jESx6pu0eHcBrvT25BIAbYwZZVOy3334FGOV9p6lbgFgEWTADs8Ydi1DbNQr4WOS+4x3vKM+zNj4hgLJP+oNuY12y0P/gBz9Yxqw2Zp2qNN4SWHdWHrIu3GVeEQEsHXzwwc1rX/vaEpxIEVjRPiLM9O9973sLoraVlvIHGAAhzwJAr3jFK5rXve51Jb1OxkQJqLzvfe8rPnx5UBCI6wmAAoDeFu4ASB+g4Ybg5wegTGaAipU+689UBPkDSQbQIYcc0rwsYjCUSbHlCkMeGd/ju2cMFIPKIHrTm95U6s2axCVm1XhMmNbxyupgEKGVYe0iL/V81ateVQ4pNFFa5TjU8G/+5m/ieJjTyoGFVposWMAjRQggAYN5Zk/JsPMfN6TBjdff+Z3fGV5pdvKpf66VgElTvyNbYISiG9aClLnoR65JKYFBn0TGkjJf/vKXF5evfmdST2UNpBtL7cm8TzZrbwXYKucQxYReDmwMS1UBRHiIfhYms94uN6dw2zmGAigUAEDR+N4mzyXIcx9QQWKKWKZCScRg7u14c2ikv5XjwMhYtRfQ1ZZP5gVkZV69HNcCNYAkgVD+FnNB4c1RANFesaLoHUZpHogxMV0CQp8S/FpssBBzkwNJGRLw0Jgn7o0PrtM2/wMK0oYWORZLFj7cMv1c8gMer7dnIAFjyBi04DWOLewBJO3pvvmfxZB3w4KVd+Lf//3fC4i14ET0Go/J+9///gKcXxLHTLD8C5HIBTmdwyPwoQ99qCyihXFY2ABR5uVK4yuB9QJJOpUBr/FZg6yydca0nIhFovRZOKx+rYT9DtQAVivCnO1qmzQBFJ0Y4AFerOKRmCVmTHmYuMQHpduCpYnFBnq3SmPJce7NMCDJ6tDkZ6BYOcp3MpLO6ywoTZOoZ4A1wAcZMECd11hYUcgvQRIrjwEkCJs514oGWbE4tdn7wQwq/L/yla8sihFglEeCJK/R6Lc7hlxM5HgDsByyuD6BiIWh+l+RAFkDuvqUfqodKciFIOMmV7aAtwlbnwPMxTpNi4ALBz+G9TUGVO/cI3m4H+OsvEZEzExYp2JQr80auAFaVvf1NT+w0gR/BRT5DbhJcu5SjOdSViiOctSAs4u42eTFHQ1oyCPGViEWIa4oIKudlx+ly9/xo9y8H2OvxFUBZBF/Uo4FcM8qfhILbC+D/v+by4xTYIaL3fg3X21lgwnwhXegbkgyR5o3uW5Z2y2Cpt1+Q5ZVk62VQIIYCwlAKb0Ca1M4OWKbOF7rJWWx8Za3vKU57rjjiqVffJJ2T1epRTLdJq15NvPOvCxanNJvPk4PAP2lnYdeyGRm9XNkJNCa1YbnicuLsqc8dJo22JELEJHgAWJntjbpAEI6GHBBobdJZ9SBE/lnB7SiB5h0cC4qbro2yZPFRUe2CgDCEqy103W/i/UBLJhE8Qgw6dDKpYBYqAyeJO45fm3g0MoQ/1lHaQwCg4QyNQnKD3kOUFSeVQULUnvAqJfnlKmugKT8Wd9YL7wOQ724fJiK22QVRJG7AENWKeWTYaX1kwCzOUUGnAIlgHs/cLp+uU/xVIKFPsmMjX4TfJ+kg29R7tGvCoiIvhyDpXcBLcBJ1Dc6WRMDtLfd3v3onxFc0bMmTUys677Sz4xHFlOgRuB3kvHtPCbgxljgduMOCytpmEV7xw9w7zlVO8FXLBpiQun9zRLVJvmwGK1Y0Yv9iQXHGnJcgEMu8cNSFWM0Btxa8LUm4fS+JEAFUu9GZDMNclYXa5JFlvABeZq7Ks2PBOgXemgQsRryQgBIOaey9FtwajPuNrrHIpyFKfVT5id/98zvhx9+eGlbc3F1q6aExvdzvUASFC0YUcdoK/wUA6UOKJjUJ2Ji9QlIeX0Cy4lnup0MEOKKs1IGQAAF5D7go4MCZ8psE0DGsgSt69TcEW1w007b/i6dvAEdQc9cGSxfaHnsrlsRkzHLFT6UIbjPOTkGmntpzWrnCajgUd3tahFnZBVqBYko236mVxYmkyh+XKxDXCpAoWdYocgU0HI/ZYcnbkbACs/4HQYgtnmu39dKgOztPhTAaeXPMggszxsBAq65IoBHcDYrEctR9NEClGI8FgASYzXMnWtLBzosFJ7//J7VBMBpE2AkYPkFL+jx3V7AKAvgAbxCwcTg7Lnb/n97d/4raVH9D7z9fL75/AHiD+ovXiQCGmIiQYWgcoOssgnIosMyrA6ILIKyiSyiArKJ4DIwMiAMOyj7pg4QcUXFDQEjE4JoJBp/8fdvv2o8MzUP3T1979xe55ykb99+lqp6zlN1zvssVaWOtpe0hPDU35YN7cG7ulQg69BDV5dVGSjlpLa0+3hbA60GUfV5OVS8Vm1joz1YVnt5lKWuQdE83pOxzDss9M4LzlPVj9d7UI+wsZXb1B3N5yeH5RCRt3QJg1hitjwysp9sB5A6lRMyWZm8SYv10zalwVrYMNF/5gWSdIi6UwQHdB5eE94P6Fun4mkKQOEegKMTPd0OUUmc4x0RyuIV8T+A5JswAYSa9eqEgANwADTw3PAM9eqcgBhgYSCg2267rSB+YA5AAZqEW4COCy64oORKKVP5yHW1F6kcbP/RxpjtEG2R4+Rez90NwPAmAZFi5Vy67vGbguat4/FiyQByAGrw0LPyevCAyVlyba/njnbm9+s5wIsn7Knfyo+bbYPkoQKkaBIwMA8FHLev95s3CfADhtr9si3xV98CKKm7Ju0AYtrjuFC38wFGOp3n/QFo1KU89fhoB3CD4j5gqVdZgBfPk3J8ahKC007gyDNFPfU1C/m/+qPdfZZLNvAO62MMMh4lsi5pOBxo6o5mrfSLqATvD1AEJAGyjFwGL5nMmO3kGGiWlXK4yZHJ/d0ZsczzeQAks9fsbcRNaRqkUFIvlyMAYVq8GWPCWUCAZQMALEADYAAelNENZAAsOi4vDwC0PpKPZHkCBKAAQ7NtpcjSMzBix3WLwFnzacmSJQWYKB8QBJI6PZNBqC2+Abtou3sC5HVqm3M+rot7om0UtmUC5MmIc+MPwjeKXb4T7xQLZ1OWdtKcOQCAStLmZt+xHW4C7IeagxQKn9Kl7H0GSerx6ZcAjm6k7b3Od6vLffHcUfb6ylrf+UEDo2inb4AO0Gs+Q31Nh/95uU0NZxQyxngsKd+k0XOADvEufDNWee4RYxQ5xyDvBySVG/LPVHBgQUAS8CC5mkfG7C+eDrPeFi1a1DP0JeRl9puZcKwrgOTYY48toTzcBRogcqDDR7m+u5FrgQ0dHPoXPgmvS3hzuFRdQzgd2nbtC+NZjJIb3LXqBDb8D+wJv1i/SH6K+5BBsr6BEm32Hc8R93drv+Nxn/8BMaBIEjc+Ca2ZhSefgaUjQRCo4yKWOJ40dw4A5gCSHCRWI1AaS0/MvbR53sHLIscFcG97F8qsKR4cycFJ48cB78a7aoPqEjb0/tpyox8io4zXVatWFe+w0K6weiejq5/y8pqF4wBjXOSCrvCefFDIescZv+R50sbDgQ0GSToWt/HSpUvL9EcdCjjifWkmZ9dsBWIo/vPPP79Y8ADSUe2kbrPVeGoQwAC9Ayw6qLo6Ee+L8wQNl7Y1ScwWA3DcrxzXcKdKzlOHaf+ScnmnagHlWqBIOG7lypUlPv239npGniXygYDCTm0xeNSDACLlOqb9rjfAOpHjPgalZ49B6TePhlkWQKTkbQnhQBLlrn2I5wPoS5obB7xXa2/J98JjfYI7fehEGLf7XRvVt9pWxuo1hdrjqN0pVh8feoOywp4c+L//W52ELkmc5zreX8+b1p6UfqC/CZOb0cprHjmYa6/K/4bNASE1hjVZTNbTJUhUhF4QgfDOGK1kejdyf+gBkQXXuj9pMjnQ/U338TwAgEF+6aWXlm+g4JRTTmkddthhPQES5XRze02KK664onRKcXnrJlkYr871ARJ0VuVC+NyeTRQPHOm8zguX6dg6svwdyq8mwIVAMhhQDIL6mvifx4ngEkIE6HR8g0Wb5C1FflJc79s1XLTaBHwFQPO/YzxcnchzKVPZQmfNAcjylNTueYTXACJAEHDCHwJ3ZmamU9F5rAsHhCpjixjA2YzLkQAkwrP9DkviNJAk8bgdWi2gKS3WLm9vxIe9M++mPd7L7D6z3/5r2PXbMjPbyBWL4cpPMrtV6D9pcBxo6o5mTfTCqraHL2R9gCOeZXKWjonJO7VhXZfDGCaXrQkIGPFMe9e1Xquvz//HnwPzBkmUOk+GxR3lypiyLhQE6NhPqhtR7hblWr58eQFI1llavHhxyQVpdiSgQUd1HMLn3Wkicl4dIScd2LWAkPrtXyZUFV4ZnZeXhkcIKDHVU4iFN0korZnv5HrP6H71E2AGijYZKEKFTTK4JFkbjMJ44UkCxhwDDl3TrEv7ATt1AWfhSYvyJbGbPiyPwVYoQBHBSsiaktqL31FGfq/lgPyuyEGyCKhQK4A9EqJwTYlv97F2J18Ljihh55LGjwP1u+FRMINvZmZO7YwlAHjhKVW/jeukwXCA3mjqjmZNchMtJYMY03Sae+TVksuWB5HiYJZ2N3I977T18hhdIiQ+Td3W7f48Pn4cmDdI0pnspQYg6URHH310ASaARDfi8bFyqdVNAQ2d7bTTTiuJjJ3uARooL0heUq2Vp4ETHTbI8VjvSE6JeywAJ/kbio+BAaQAOLw0wIbkbInZvDvAnQERBESZ9mkavxlOBJj7uMm1B6BxnndImQiocgyQU3+UB/BwzwJKvBcUNNATBNx5hlhHSX1NT5KQG5CkHUCSdlhmACAE8oaeQxONn8BvfSVykABmfWQks9iCd22h2k6GarXjqqtzkP7bn+J0fo8xB4Al1PYUr1nGYPWRvv6SJZK4rcItlM7Y4X1OGgwHmnI1ahEaA36AG4asCII17Ri6ZLyZw4COpQFWth0D9IcUhybwYQADvJZ44JGiB+iqbvVG/fk93hyYF0iKUAWgYVAf3F5HRfKzzmBavY7lA6DwmgghARFCYJK0IXIdb3Hbg2TxLWsJcXW6B5hRjvwhHx3WmkzAgdkgQJlptDog75Jkce2xGBiBAyShXh1Tm4Eb91uuQOIk1K9uH9PqhRF1eqHAACHawusgVGgLFCt9ew6ucgDOHmxAF8ULOAZpv6Rrq5Dbww0/ADoz7ORlGaCe1cAzMDuR8iRnm+kGWOGXds3Ozhbw1OmePLYuBwhA4Q1hS++c1zOWp1j3yiH/ar/7+SjZIbcyq1tgDpADEUrnxSBDLOORtHAcIM+RiAND1Icu8nFO2gTwc8MNN5TwO31la6eYCENPkL1kMx1kgtJV7VXdRRlqoKR8XkGOA0Yvg5aXWjQjDOmFe6osaZgcmBdIgrjlcyAo3PoyPEsUd3RKx3k6TK8HhgAhHiReGAQoSfbWqdwTH1P4eU7MjtNZEdAhvGSpgM9+9rMlwZY7lFABknh+gDTXNdF9KaDxR04PDwzQZYBYCwlQAdjUIxRHaLHsJJNbOwMFIHStHKGTTz65zJADyAAmfFC/xO+Yqu8+g4liBqwskRAgkTfNbEDeDWAH2OwW6960PeNOm4EkYUKeKQJVqLAXIFR/kj1VXyreQ5ae9xP7/yVvkgOj5IAUAfKBbGAAAu8MpqQN5wCdwvAGUoAaITA5pgGQ6BpGPe+/CAWvvyVApGrwHNVkc2tlXHTRRUX3yQ0VHqVLlE+P0Edks3otf6OcBEg1Fyfz/zmDJB2MUpdHw2vDWyT048PzEuR/eTwAD/DEwyLU5HofoTfeFR1VpwqCyIWn6pCUzmhDQagfSLABIQDmXsj/E+0Vf3VK3qV+SP1Aydlnn11m5AEwPFyAB8ClPQCXJQLssRQucAAI+LFJLcDHsohdoT3jTDsvwT3ADO9SEEEIxBmIK1asKMqatwov1ed6QJL10g3w8HhoC+AGyAnnyUdq5jdFnfm9lgP6neUcWHh4zRsY3sG1V+V/yYHhc4AM5WmmXIXrgXje62Ze4vBbNvk1kvPkaRiedBb9EfoGgKFHwosPrJrE0dw6CicY5YxYukAEBSAStqfDlMcJQD8AuWS9XFvRjaTJ58C8QJIQk44RH2AFuKkJgqfAXQss+a0DAjzAgU8TIMX9wE69fIDOx2uiswdI0CmFpoApW53MdR8k4TXbTuj0LDiWAEtBmawIFgUgFQNM2ww6z8LLxZ0qp8mUfF4zoTjCzeAADJvEZWs3d/kvvG48asoWdpM/BXz1EowGu2uVQenjg/alpdLk9Lq/ee0IM+/JewV+R5qDtG7z8ldyoKwlJweGTCCLKNfIaUz2zJ8DACg5z3AFkMhKOieIXmHMkuXkqbxPHvtORPbz2ttyxPsBZkUbGPt0mdCpiAN9xHit82Y7lZfHJocDb2gDnbVunAlpN48MQAPg8NIsBIlVB/AKz1E/5caUUAnr/d7HI6Y+A88gThoMBygdLnag1IrkcpCGKbz0jWXLlpV+wXuVs5cG856noVRhHyF7XgpKndFE8SaNLwfIcXmlQBI9lO9rfN/VhrRszp6kDalsoe4VFgNKgIyFIuWxKubqmeH1gjPn0hYettpDtVDPkOWs5YCQsBwxM1F4MHkGhwmQ1rYk/0sOrJ8DvBk8GZJ/TfAgVxJUr59vo7yCHA+v9Fzk/yjbnHXPnQP/M/dbRn+HDgnMLGTHjDLn+nRx31zbov1zBWRzbdvGer3QmokFcs2Ao5Gug7SxvoR87jlzgMLVV83CtF0Jz3bSeHMg5Phc5f94P1W2rubARHqS6gfI/xeOA5FjFiXWvyMq2+u7n3PKjnJ7XR9tIHziOse6/ZZ/QGBRLJZvkAgrz4AXaWQLRcZD5HdyoA8OyHeU02LmrFlYpptLJk5KDiQHRseBBEmj4/3IapZEL4GxTpwHRMTWnQNEfPsEQPG/80H1edfEb+fjt+sD1NTn43/fdV1+1/f7H/iJ8uK36xxzL2Dkt6R39VmLy8wTM1Qk5ucsNlxLmgQO6M9CwmaxmjXlox/3kwbg3oWkuZRXX2tcBtXH41h+JwcmjQMJkibtjS1AeyWJWkaAt8UMD9NgCbcANTUwIejMrIvzQInzgInrnXPM/4757Z74rXzktzKiLteiKLv+7X8f5URd9e8oS70+iAfJc7HCzRSabc/8S4BUWJN/JowDvEcmHcins4WTvgw8GT/GQYzBACHGSIyDfh7VffXHvVFWlON3fbz+Xd+rPtf5GJeSmbVTvk6v2br9tDOvSQ6MAwcSJI3DWxhyGySNE7oEG9BCyBJ8hJtvv5Hfrmn+diyu979PXA/01BSgSVmoLsvv+t747dpoS9TT67drlGPBSAuEmu6b+Ry4mTSJHDBTyhIotirhTfLbsiIAkqVWwmDwbP6vKcaJY83/HTNW4tv/MXY6HY/zcb0xFtc1/zfOzTi25AawZOkXiedNeVAqzz/JgQniwLoabYIank2dPwcsVWBxNGs7hbAL4adUx1AcawrL5u+4Nq4vN4/gD+uVFW6GkMVNKZpNNtlkBC3JKpMD8+cAIATkG4e8oRK6zXYDPuIDACEgKYBSHDMO6/9dV//2f/x2LiiO1/fHdVGPc1Ff3Oeb8QMkCeFro2eIe+vr8v/kwKRxYCpAkgFphe96xe/6RRjYBA6rRvjH7/WRMi0SadBbFVvZ7rUWBk9MeGDWV844nseHabTw5G7YNJkniVfJgm9W2J7GZx3HfpVt2nAOkDO2vLAMADBiNwH7uw1qyRBARj3xDeAgv/0fgMi333Fd3NP8HRywpEoYW3Fsrt/qs5NB1NXpfnUAaORxjvNOHMpjG8qBqQBJpnxbiI0HwYABcAysAEdi47GKtz27/N+LCCqeCJvPSgJe1d7R2aayAJIZU1bWnm3nCcSebr3KynPD44D3LTRho2PbDwhV2OrFli79AOPhtTRrSg68ngOMMstW2GzVVhl2ErDTAAAwKDIuIgSuDqCnG3U71+k48LKhY07oDi/kGgZYijYqm9HKMLJKtq1dJLkPCkx240ken34OTAVIMpgs52/xQOAoBqj/kW+Dh9va+jkHHHBAWY+EQm0SL8Ttt99eygKULDtPiLBSgC/eiUcffbT15JNPlr18eCo21GJqtiF/bxgHLMr38ssvl8RX7wugJUyTkgPjygEea0aezbX11R122KF4kAYJkDrxohew6XWuU1kbeuy1114rK+YHSOJZqtsAnPkdW0nZuNpq5Qu90PCGPkfeP9kcmAqQZEYFcGMTXXseyUUxUAgeAEm4zICz2zPg438DTGimpn/+85+tW265pfXtb3+77I8mWdJihDMzM8WLBDBZu4TivfXWWwuA4qWwb1zM4qrLy/9HwwFKhlXJA+hd2TDZ76TkwDhygAfp5z//eWvlypXFY83w4g21btLGTLxHDGBy1xi2/yWDNDxX+AZA2Rj44YcfbpHfcrjshSk/MSk5sBAcmAqQBKDw9LC67M91+OGHl00IJT8aUBIKbWDLA/Sd73ynfANR7373uwsAMvAALZbc5ZdfXgamvb5sJmtH51h6HsPNOLnsssuKt8nO8sJvS5YsydDbQvTGBSwjNpu87bbbynIHwKytH5KSA+PEAaF9ITZKnqG3//77F89nTp9fnQwOKAJJBx54YOvUU08try6iBUDSK6+8UkJy9mi0SvmKFSvKvndNkEQPiAQEwCLzRQianqnwVjlfn1OxeqNu52tSrnOoea8y63vV27zffVGGen3c417Xxsd1ScPlwFSAJCzTwXQk4IcngZCJ+LQZTuLWQBEwBSgJz11//fWts88+u1z7wgsvlAFmSwAA6YQTTmgdccQRr3sbvEbHH398AVXCcsJ3LL/MT3odq0Z6QD+wXhJPEu+fPDQhjKTkwLhwgJJndJFD5JXFTz/84Q8PNAdpXJ6933YEqLFfp7Ba/HY/IEG2n3zyyQVg3nHHHcWrRIabuVsTL5NVzG1IC6TYWNwMX+UGiTjY85Ee4ZEiQ4K8K2XYtJrBpd46emDTdREKwIYuCN3jfh5t4X/GOtDnvPY1E80Z9dquTe7XVhNQ1GXXAM+vbUnD5cDUgKRgm0EUFkB8GxRIx+RpsuCg9XR+8YtflI5LQOnIEn1ZG0JsPnF/lO3bMet/HHbYYSVJWJm5aGHNofH5n3ABjO6+++4ClITc1pe0Pz6tz5ZMMwcoXZ5rHhATQvTTQSdpTzI/w0vTlMmiB5tttllZR8rzARbSLlwPUPz73/9u3XfffcVTJ9VCCE8ZgAg5LuVip512KsAJQLr44otLWoYoAl0R9Nxzz5V8Mca1ZUY+/vGPl7SOOC9Ng8EMAH3xi18sIAcoI3tskyTVg9eQh4u+2GOPPVpyqBjvQQDz1VdfXYx8AAoge/HFFwuYOuaYY4o3rVMebdyf34PhwFSBJAApXJvd2CWpd8sttyxAyaAwiCjTV199tVgRBh1vkdymbsSCMFB0cLNQWBZJ48cB1hivIG+S9+tbvkKA5vFrcbZoY+AAgKQvRg4SRZ05SL3ffNPrUl9tbPPyIPIYEAGQHJMSAXgASI7PtPNLY/ayLYx4bnh38J/uMFOaEc2gmm1P+LDoLrJDwfe///0S0uM1MsNZ7iudw4MECEnn2HPPPYt8kUt18803t5YtW9ZyPc8VT5DQoesY5TxHwFgAH6usP/bYY2XpGXUCcz5ya+VeJY2GA1MFkvphocEGAOmYrA4DiVXhmxepX7dmJAf3U2deMzoOeE/bbrttEWKEn6nC6U0a3fvY2GumoIV/H3zwweIpkGtDGdfhmY2dR52eH7AEYizFEgRAABrSHoxtwEhyd4Ta8PnKK68sy7jYD4/3B6+V8b3vfa8lXxHwAV4ipLXzzjuXdaqEuSSEB0hiUPMGIaAMoEE8VsCWc67lHQLGvvvd77aWLl1a9MohhxzS2m+//YpRzbt07bXXltnT1113XUlIB6xEMxjfvIoAlDZZvsRHHYzyOvxXKs8/Q+HARgeScFVHZHFwywJKOje0jiRpB7IvB/LPxHPAzuoSPJ944okiTIU2UuBM/GuduAeg6IVUeBesei+cY922YU/znxTGAUHhQRLKAkwinQIveWWAEwnbIgLCbgcffHDx7PPuAE6Akplx8paAJIawcrfYYotiEEsGFxLzHoAZIU+eJ2EuIImsoCOAJN9I2fa95CHihRI2dZ6BrRzneJactxjoBRdcsAa4qZcXSs6rUCswBbgBSdoVZMLQiSeeWNoJJAHRQGDS8DmwUYIkA4xFh3RMnS86qOMGUtL0cAAgZmHGelqEaYKk6Xm/k/AkjDA5kBQjzzVlKsSTAKn72wvZTD5bIgHgCTkNOPgAUYAKD5CwpW+Ag3fHjGagCtAxaQcF6OI54l2SlwTkuNYMZyE0S7/wJAFKiGcHCAJUNt988wLKHBOqM7vZgsOSvoExOUlmKpI12so7pN3CePqAY9rgf54xYUBRDDNvpQEEiJMSIu0j+0d5BSP9s1GCJBYBNy23KIvOx/9IshwLZX0EaHHb6tgGj84cA3h99+b54XOA8OK6vummm4oAlUeWYbfhv4eNsUaywjYjdgWgiOXFAUjkTlJ3DgA4PsDQTDuXqE5yJmvJbODC2AZ4jO9Y5gPwIMvJZ8Cmk1EEKPHsAEm8VPQCmcCgApAAG9EGAMryDDxFgBhPEQ8WICXqIF/Ju5THBBQBSHSD9/7MM8+U67TDcyAgSSK4ZwCWeMGQ34ATEK1tCZAKW0b+Z6MDSRC/mLJvilKH9DG4WCCsA+5UHqVendQgkXypw0sGn2kP4l7Xj/xNb+QNEGK1JABBa10a79t066TkwCA5QI7wNMhBIleEg3g2Mgdp/VwHkMKrLzQp/BTACaAgb3mJeZKaBGzEvWR0p1CVMoAbAAZ4ZThLtwC2AFreIwBIOI++AILkFsmB8i7JkQBFgBpvFSAEWEX9gBavk+MBktQrVxIYA7z8RvFsZFUY7c3nyt/D58BGBZJ0XOsh6biIWxViN4BMy/RxjiVgEEQCYKfXIt4tzs0KkBy4ePHiBEmdGDVGx1iTu+66a8kD4AIHbr3/EFJj1NRsyhRwAECqc5AicTiNqf5fLuCAGDXkcQANx3qNW+AH2HC/af8BmNwX5Bj5TS94JwGmgCSTe+Qxrmyvgv7000+XuhhZwnG8T+MrjysAADO8SURBVDYhluMIXAFQwmNAj/oAHGVrLx1hg2JgKsJtQFnUpd7wkDmP6vSPaGt+j44DU5UJpnMZHKyLTmQapQ0TWQYG3Yc+9KGC6F0LMJlBgOwBZ3PbbkTBmloKSBmIEr+71dmtjDw+fA7wFLL25A5wn9t/r5egHX4Ls8Zp4QCFx9NM3gjJAOeZgzT/txvgiIyPj7HbbfyKDgiduY+8lkTdJPLbOeRaH+UBQ0J00i6sscQTSF8AQcCOZUV8C6FKKAd6yBX5SUCS6f70AQAFKJs48t73vre8f33AbFt1y0+zETcQh7o9SzmZf0bGgakBSToYi4DyE08WDhM7NuVS/Bfqt9K2jgn5mwpuuibFiVgOFvjyzY1qjQtgyf2sDS5UoTiDytRNsxe4zLnPDaqkyeAA4UVI+abEvNOwVifjCbKV484BilHfIiMoSgvTmjWVhtT831wnT1Cv0kQFhMd4dXj9vQtGMh0hV4hOEAKlK4TYACDACpl+z2MkjMdjJAwnLMaDRFYARK6hE5RDZwBVdBAApyyGmPvUqy/EIpbukad04403FgBtUWPtqSnlUc2N0f8/FeE2nUoHJZysmk0wCaOw5hxjEZhFwCLw24yGvfbaqyjLeAVCMWacOG5K6COPPFIAkkQ9g8Jgs7Q8DxMPhAHAjWrl7Zl2PlLS5HBg6623LnkCrDgCTI7IIJZ9CIvXd1qJk9M/NqSl5AtP9UMPPVSSgU0B57HOHKS5c5VcB2rQXIEDzw/5zBhmIC9fvrzoBXmIkqrvuuuuskYS4GqtKtfVJHwG+JD1CBDyQY7H+kk8VcJzQBQy1hnNs7OzRd8I19kP1J58gJN0Dpuja5Ooh1wm38izxic8Z+VE/hkpB6YCJEHigcZZDdygOquBFR9KSqK2NSqOOuqoIrianKco7eUmlmz9Cutk6OBcq+5nzRCCLA4epCOPPLLktTifNDkcoLAIMrlngBI3+SBAkn6hLgA7leTk9I/5tpRsMPXcYoHeORlBWWYO0vw4GjlD7g75PpeSeJLOPPPMEg6jF84555zWRRddVHQCoMQbJJdU3lDT0JUnVIMkOiHyFwEioTkE1Ai/1ZugO24fPjrj61//eolI8FqRB67nVZLeIUdNMrokbsSoFxYU3ZjP85ZC8s+Cc2AqQJLOvGjRojVhLyjcRycFlnROwEbHNHC4TeUSNcm1OjvvEJepqaFmwokfE4Dcr+LNEn55I5QT4bpmWfl7vDlgrSRhNx5G7m8CsynoNuQJzIxZ2bYizZLRRwh8fU4YIGn6OEA+kBdmPnnPvNK5F9uGvWeem9NPP70AB964uZL3wCg+99xzi+EMwMb2HjxBZLh1lZoAST2OATrKYEDxNtMnCKg54IADitHtmL3fAKiaACn3ewZrPFkuQJoHYwngInt4ump5QOecccYZBVTTMUnjwYE3tD0tq6cPjEd75tUKyFysVycM8lg6sA+QxKWpcwNC/RJwJMfJwKLklMEbpeOnddgvF8f3OuuoWP1Yzhmltttuu21wY1mD8hiEa3mpeCP1OTkOseAdt3t6ljaY1WNTAIBkoUjvGzgWWgGQKNik+XPAWAoDlRHTaa2jfks3xqVLWD8JkeNve9vbOi4fEGXSJ2SEkBygVI9Z55RJLzCu6nNxf3zzWMt9dA9dxNCeaYMwM9xq4t3SPjpLfRGGq6/J/4fPgakAScNnW9Y4DRwghE3RltBPaB1++OFrcg3m83wEpiUm7CRuT6jmoqSszUMPPbS1ZMmS4oWcTx15z3hxAEDSh+Qx8joDSPJe0sM8Xu8pW5McmC8H+nerzLeGvC85MKYcYP1xa/Py8Bj2Wvahn0dgCZoyLCmzCZDcL98gNuPsdL6fOvKa8eGA/BLhWt5IEzkApNgWY3xamS1JDiQHNoQD6/r7NqSkvDc5MIEcEDa1PhbQAiTJXeOKt/YJz1A/5FohNTNX5CAJEXQieXK8DcIyQjFy2nizpiDi3elxp/aY9w0gCa1ZaFA4Rs6Mj3BKUnIgOTA9HEiQND3vMp9knhyQzC9fIWa7mbnCyySUIj9gfSS3ANBZ1d5+QLjNfb1IAqkcC/tFyadLkNSLW+N3DiD23ngGfVtvLXOQxu89ZYuSAwvBgQRJC8HFLGNsOFADjn4Ajoaz/q2IC9yYicKrFMCnnwdzrbp4nuSirK9eAMy1Ej/Tk9QPh8frGn1MXwF0ASSzlHol7o5X67M1yYHkwFw4kInbc+FWXjvWHBACsZCob2E0a9WsD7DEAwmFUXzWJ+n3nrjXNyVplfelS5eWFdm7hdzMWjEl2SKlpiH3G9Kr68r/R88BQIlHST/LENvo30e2IDkwKA6kJ2lQnM1yCwcoE8ADCOFxmcvSCe4DItwT3ppebDVd16JtpttaVd0sI0CpH6LwAJ0N8QhYGmKfffYpITcrLkvkrglAAo4sN2D6cVJyIDmQHEgOjDcHphokUdDz8QqM9yubrNbhvzydP/7xj8XDI3fDuiK9wBJwZNaQ3B0JzkJh9aJr3TggR8T6ROriFZKQ3U/4q1t5cz0OaNnCxlYU2m1xQet3IdP/bV/gnBW+k5IDyYHkQHJg/DkwMpAEwNSrYi8UqyhHHgVlyxmwIFeEUlj28kDMTrGwpMXJEkQtFOe7lwO0fPOb3yyJ0RdccEHJ4+BV6UY8QXfccUfrlltuKXsq8br0A5KAK2EuYS+AyXsfNvFc7bvvvmVld/vC2UBTfzOTDdhLgDTsN5L1TRoHBqUbhOItDGw8msVqViIZIS+QMUM/MHQYNM75Pyk5MDKQpEO+8sorpUMCK708C/2+JgDJ5pJXXHFFCbOcdNJJra222qqEX0zvfvjhh4vS4l2wZPxxxx23IPX2276N9TrbwXjHdrx+6qmnCvDpBZKef/754oWxdpEQFrDbDxF+3i0BJ09kVABYvcDQTHuBSuFCv7VtIfp4P3zIa5IDk8yBf/3rXwW0CH3bwmOhyJ6eV155Zdm+yr5ptgFhkNlw1sboZrgyqj/zmc+UbUgAqaTkwEhAkvDL9773vbJ9gw4pRLEQCgRIYr1bzM8GphQxK8ECfjfeeGMJ+7AcJMyyHEalRKel20mQZpkJK7G6AFJ7FjX5CjB4x3bUtk8aYWRrjk7k/Tz77LNlzSHvz+7cvQBVXQahqm5tabahvm4Y/wNFPknJgeRAfxwgv601ds011xRDZ/fdd18wkGTGqpXRGcsWjxUOtwWIjcxvvvnmYjwzaBhlDHjerKTkAA6MBCTprHfddVfJHTnhhBNet4fNfF8NdyqF/Z///KcMLlaIsIsF/n7zm98Uy96UXcff9773pRKbL6P/ex9AY60fWzIAuTYAxtsmOLDukJWtASNCkKfIztlN8EMwAV3elbCoa3wItCDATDiVBegaYEj5hBvSDsd6CTkCU1iOxRr7KamDx4qrfS6z4qJd+Z0cSA5sGAeEyxnQt912W2vLLbcsOYUbVuLau4Xgn3vuuTLeGXPkhTQAEz3kPpIz22+/fTGg1d3vhI+1NeR/08qBkYCk2PDPjKVe02cpRB9E8VG+veLElJ8ObwNBngv3CNn46PR7771367LLLlsDyih5H2VSqlGX37U3Is65FjmnLcpvkmtcH/f7rdw45pmDHGO9+O7n+eK+cfn2bDxyQK/3CHR0IwAJUPr1r39dQqIEUhMkEZIAFOGFT3bpBrqCzxbu+/Of/1xWrLaekdWrXSffR5K2kB6+Oxb31O2JfLWf/OQnZT0kAln7ASvJ5GbE7bHHHmXmWa9+WZeZ/ycHkgMLwwEeHLKasWv8+YRsrGtwjEwNeWysdxvzcR/jzHh/05veVMa54wwlXm31HH300a3jjz8+Li9lq4M8ifqcbOog50KGOx/yx/9NCt0QRqTf7kWOxXG/nQu90c/zuSdpMBxYq7EHU/46pXrpvAA+FJYOIrQiDixMQ8kFCZNRiCwA1zoH/YfHIK6Lb2XJcTIYKGAhHt4G4R0eB7kqOh4vxWabbVYUo0HJ00RBGpiSbJWjDsfCmnD/qvZqygawMgw0ZfA61OT5DDxgjVeCh4Mi1yYKXpiPQo9yKWiAQPm8MDPtHBb5O5NCBi+AETlAvYBFgBAhMc/8l7/8pQDZ+lnxyG7q3qP+INSmfARAAViXXHJJCac65j3xAPEUCrPKIYhdvkPAug4RZvrT17/+9da9995bAJ33I4Hfvlv6xUsvvVRChoBZr2dZXWL+TQ4kBxaKA2Q8WUnOkrFkInn89re/vUzaqGepkpu2hCHfyWtymBFGLncjxhdAxPAir5TPuONJJo/9pmsAFcYbWU/mkAW82wx77dIeRngAGoYhuRIJ4c7RPXRaTZ6PbPJRBlDneQE3soksM0EldAM9oly6hO7j3Wrqm7r8/H9wHBgqSNK5r7766pKPBCihr3zlK63tttuuTI1mxSOWvl3U5Ra5x0CgXHWkvfbaq7Xnnnu+braTTm4gAD1mEenoN9xwQ4k3U34UujIlDh9zzDFlsAAvXLubb755ATH2YdJhrWNjt3YD6v777y/3UaIGlPM6Mk+VdgjfxYAAtFxvby4DllvXbwPaIAEUdtxxx/IMBsGKFSuKcnafgWsgLF68uPADaBp3AiS007ePZwjh0Wy794EfhBlBKMF+1113XWeKPoEDJAHIBI3rWWboT3/6U5nt9thjj7U23XTTlnwFe2UBUe7jWVq5cmURLIBT07IkcOSm3XnnnaWdBx98cHnP2u+9El7eK0EVwKz5DPk7OZAcGAwHhMLMZr3pppuKweo3g4ZMPvPMM4ssAFrkNd5zzz3FuDZmQx5Lwt5ll12KJ7gJJugP5UnDsAQJo+g73/lO+QAhdMO3vvWtUhfZL+JAVjC8hOHIfoYbGWcZjy996UtFzj366KOlLfROlEPO8ZhbD42xHqkCQJTNr5VLz7n+V7/6VZFXZJzZu9rvPo4DObsMfM9HrtKRZs3SH0nD5cBQQZJH02FrNyLw4FiQDqkD6yQAjyQ71r7cFx09AIcOU08LB7rcqyMDPc4p20dHYwVQvgYaAr4oaiCGogR0AC0DhnJmpVDYpq5TvpQ/75EOzQvCyqHsXW/RQoPDc1Dm1urhFQF6gCHt57Uy4LXffRQzMGgQ4Yd1gQwaZINVA22cCA8JF20nbPADb1lC3hNQwtOD/855JqADsOXhcXym7SkT0iIshEXxwrvCQ2UBswQEy0niveudUxbeAEjIu1/cBpMssiDX4ik+qkt73evjfwJHvZ7BzBb3E4BB7tU39IMEScGV/E4ODIcDxqhxHrqAvPa/D3nimyEkqZt8ZTTzuhvrAAw5BKyQuwcccMCaUL5yGEhkCxlF/pBLtS5Qt/t81APAqIu8INN4lVzD8OV9Bngc1xZGN+PXce2nG5zTJuUBXHQG+c+DzoB2zrXkDd0QBr428i6Rgb61xb1kF73iN92kHY4nDYcDQwVJAMGSJUtKBzGrgLI99dRTC7rnOQB0IHpr5BgYRxxxRPEwCV3peKZqGiDf/va3yyDhEQrSqShSStn1BhBvgc576aWXlo4NwS9atKgoR65XitlgoyDd53oEreuQBoHEPsrYOR1eu4R3tIVVo7MLo8mJoZANQMgfcDAYLDPAetG+aL+BBAjxRB100EFlwPJwsKIMTO00GNQ1LuQ5gZprr722CBzPGl4cx/1mJeEJ3rneOzj88MML4MMT74UlBuzw4gE0PEsGPKsQcMIbSfVAkneDAGSucfXw7vHe1QDJNYQfLyPrzvvUhiBlA9BAtnLxvAZIrpsEz108T34nB6aNAwxK4xKooQPIhUMOOaR4jBnKZIVZaIxnMp1c4XVh1DA2GdYm7TCCyM5tt922yBXlMYbpFoYsL/RM26CSf8QYs1wMWXHkkUcW3RCe5QAh5DbZrj3ucz8DmQ5a2TaeHbfUjP37gB6z5772ta+1HnjggSITGbvuIcvpBgTMiUTQRbOzswXEXXfddcVzdfnllxd94vl4ljzPVVddVXQO2UqO7bDDDmtk47T1g3F8nqGCJEheh6HgACadSt4JhQWpU4QGAfAkke7CCy8s17nPTu06nLgxZWrNIyBDDJiCFjNmTehAEZsGfChcngyeI54goTjonadI/ZQ5gAa8ATQsDB3aoAPWXAvIxSrK2rnNNtuUes8444yyvoZBSnm7T1uUq10GngEEHFDUzgshCq8BXJ5P24AB9xnMBoG2UfQG8biQ5/ZcrCigBWk3qwvPtF/YyzfwSfAQCu5xb1yPd7x8hA+hBhB6v54ZEHYvAUL4BOGd653jVickmyRnAfB0Dn/Vry1IuyKfzP2uS0oOJAfGhwNkyUwbhBif5AEZTg74jayxxutvTJ9++ullnTuhceM8vEPACTDFkCZ/6Rmyh2cG2FCeY7xP9BDdw3jj8aFfGFBkDBDjG6mDnKajtJFHyN6LogzKOO+88wqQI+MRsEenAFFkuTbTZbV3mow68cQTW4vb3mwgDlBiNMZSKs4BjPQVPUB3kY++GfeeWVuShsOBoYKkeCRgIQhi91sH4Bal0IAWHbiOLbuO4hQzhuSBIl4HXhyKGkDSoVgR0WENtrAI1Od/yhQZbAaQTirk4z7X+2iDzmhA8AIBQMBMTQDbbLtzyyvSbkqc8leeAcaLIiYdbQF4KGf1ei6DSduDCIVQ3gZtDNI4P+pv74jA+OQnP1n4bdB7Vm5guV/4Bvh5b/hqIAPCEtVjQBNOkWsE7BIiANdMWzh6n0AiPhNm+BcE9HgX3h/eRXlx3je+AmX4rC0BzJzTtwBvbcbjTve7Lik5kBwYHQfIGOMY+TaO4zc5wzMP5EhvIIuQa5CcHWEpMoURLc3BtcY9kKRsMhcoCqp1Q4CYqJP8QnQDvRN5p+4hp+gcdfL2hIx3Pfm12267lbCaxSsZ/gzFWiaRb7xj2uSDyDUGOZnKkJ9py0TEs+VZnROdIAddkzQ8DowEJOmAXjRFpgMhnTk8FDpInW8U7NDRgBlIHCCCrpFYLqCiw+mA3KpIHbwcUZd6ofwg9fuwOuqOzutgkCEDJMqL+3w7xvLQJq5cHhYzstSlDp1brNr/2uU72mEgNb1E2gFEjCsRDoDcbBsY1oR3NnMlZIBCQqMbEXiEAYApKRKwBXQJAMAXMAWqCLOaP8E796snBGezHnwGgkPwxPl47473uj+uz+/kQHJg+BwwzsM4rP8HSMhkJDpA5jSJrA3vM71APyCymZwJz1R9X+iGkNnOkcPIMfKYsUbGB4VXmgwy863p1XY/D5D2eBbGM/lTAzJ6IkBXlKu8kP/aGjLMvep3v7KjfXFffg+eA/8z+CpeX4MO0VR0BkWEZigyn07EW+CcDsjDoBwAiYLVubhnKd2gZj1xPDqcb2X6BCnbR8d0vFMZOjGPhHPQPe9PfZ3/64GhngBJztXXqjfO+7/TecfHjbwvz+SDfHuPvQhPAFnCThhNMqMwm3wh75MnyrmaCAkfPArBVp+P/52PTxzzTfjoM9qWlljNmfw/OTA+HGjKvZCR5AywgICLkDd1y8MAcozBHXJIGAvA4o0hd5rUrNP5kCFkBoO2luPkj7aQ/RGVaJZJVoW3GljT3ngW1zpf/3ZMe9WrrgBIjiP1OYea95WD+WegHBgJSOr0RDoVb45OQlkCHU3S2cwE0FEpPuEcnUYMmcLlgYDg50rqrAeCcn3Up5PHgKvL1QYWjmsAKe2Pjlxf1+3/TtfWx+r/u5Ux6uPaSIARSviEJ/0QFzYvHCEjDr+ynQDJo8R7JGep9iIpj2DkmcNrliEA24m0hUuaUKmFifLcr32R29Tp/jyWHEgOjAcH6vHLa08eI/K/k2ykL8ghJKRGJguzC8GRF0JvPDxzpVovuBdoUj5ZEvU1y6S/Ahy5Vhmd2ty8z2/Xdbu25kmne/PYYDgwEpAUHUHnic5PickXcU78WQitSa6PlZYpPtYBAMMLodNK0u6G7pXVq5PVHdOgNBiQmDLF2ySDVfKe+rl/o+3N66b5N34Cq3KrPH/tjev13IAskMRd7X2akcbaC/CkL9Sk/Jl2CFb5ZjCa5dYkgknIzjkgiRUY75RLXF8hsOQs6F9JyYHkwHhxIPSCb96WkOX+j7AWvSB/sUlyHHmlkVQNYX0pEPKC/A8kNeVKs4x+fpMh5JE2il4020Im0kfaw3AWWtP+8BSpo5ceci7kVt2eTsfq8/n/4DgwEpDkcXQGykyoTP4PFyOkL64spmw9CQAlwiOAimNmOSBhtU3bswt0Ui5VnVfCWxP5l4v/+6dbR2seB5AkGFP8vFRm0mkni0Sbtffxxx8vCl698qTEruuBUNfb/L9ZX/O8370GUqfrR3HMOwMQrVu0zz77FCDST7vdBxBJXuRB4k3iBTJLRagNwKlJGFUek+sJIPv+6Qe8h/oF75BlBUy79W68h1rYCL8q2wwVfcWidZZakAjqegLNrBgACljzjpOSA8mB4XLAmA35IfdnVXtNNt56JFRG5hvrlkthLJHHvMvAkLxIaxaRx6bjM8BcS4fQE4yk+VBTVjMKlU8mSQg3cYcMcx25Q0+QT/KggDXJ3cAemaKtqFlmP+2q5Vk/1+c1C8eBtRlpC1fmeksSPuEJMgiseE3R7bzzziVpl8Jdvnx5ASEQuLUydEhuU9dSbBKErbgMzJjuGTOkYoZa3QAdMj7RSZ13rP5d3+N/6/loi/Wcrr/++uLm3W+//YoC5/kwEAxgicoGDauBN8NAUW7UWZcbx5xv1u2ce1FcV987jv8DO0CNpQ7mSiwsoMXquXjhXfpd55PVZXof1kHiBSKYAGl9hieS94jQjNlx+k3w0DcBI4zn/QFZhKx73M8q5JbnhdIOSz3wSC6E1Vm3P/9PDiQHenOAPKEbAB1ggyFjLDPAyHzj1zi1Vptwlt/kxY9//OMipxlAVuE3u8xxBi4DyMr+QFOTyAbgxcf/Nfkdcro+p41m8ZI3lquxzpLrrKWkHIa89ZzoAkvU7LTTTkU3BKBTh+vrMh3zm/xvHo9zcY/vpOFyYCQgCZgRbpGwS2HxCrDozzrrrLJekc7G2geK7LOlY/IoUXYGy+c+97myvo6Ql3UoWB2m6kPutSdJh1MWL4VOK24dnVCHdAwJ1QVACfbLbzLd3foaPBSWyF+2bFlpg1i0QWgQWDODhwMpW5k+6qzLjLaoq1P+jkEUMe56QEV7pu1b/hnrUF8AfMxqA5K6EWsQYMbH6Bf6BisN4NYvLC7KswhQE641CfEdeOCBJTxoUU9eI+tb6VvKJJx5It1X96G6jPw/OZAcGBwHjEFyl9dHGJ4hymPvuPXUbBUlJ5Hhah0i36EbfAND55xzTimDMWR8k8E8UIyhJpGzDF16gVwOcg/57ThZTj4EkQ282nSD47a6+sIXvlDkkN/KIUOsjXTssceuWcqEHlIfUm6tG+IYZ4HyXVuT+5Qb7azbU1+X/w+GA/97XpsGU3T3UnkNdFrhLCE2gMmsJmCDwhM/Nligf9dRcMIlLIrFi1fvbcZzo+MIkwh18ehYz6hJgJVcFudYGeozoJDjPCHW3VAfCybINWLZ2uQeAEx7fWsrhWvFVAOmDg/p5DPt/BmWBe8FT4c2xAe40g5KvV4LSMd3rTAU6wMPuHanlQgSz0sg4oVnBpi8126Ed9E3CD7XexeEIy8TnuOfdwlwKbsGS4Qtnrs3AJp+AWDzTAK97ot31q0deTw5kBxYeA6QuTy4QviMIrKZfCUveZ4ZVmSxj7FNN7iWnLUVCXnMC0weC8EBVPJL7ZagvJD70XJeGbpIJMD6e7W3iRwiXxxnwNUy3v3qlRriQ6aIdvhWFjC3//77FzlTG1zkuTroG4tXkjNB2uJ+Mmx2dnYdjzrdgS90IF405VqUkd+D4cAb2sp5LUweTB0dS4WkxYx1ZopMYp5Or0MgnWZVOxwnrAJB6yQGCpASBCTxGiADyvmaPBqLQB3qA8AoWnVA58IsPnG8Vqh1OTw8PBQGnfKAJx21XlvJ9dqsPNaJQea6GFza4jmUoR511iEdz8IzxmOmXAOoHmB1e6bp//C44Unwqp/nw2NePu+SoAOAUPAZ7wil6E/NMtXLctMP1I3fUUbz2vydHEgODI8DxibdIOeQTAAejM+Qz+Sx8/IHeXqMfyAIUAkSmRBSJ495iGtAEte4Vx3kNlkd459McJxMpi/I6loWkzEhV8jsyG1UDj0GxEVZURfvUOgGZfrU8s45H8QYrw1k7dAeZQB9yq7bE3Xk92A4MDKQNJjHyVKTA8mB5EByIDmQHEgOLAwHRja7bWGan6UkB5IDyYHkQHIgOZAcGAwHEiQNhq9ZanIgOZAcSA4kB5IDE86BBEkT/gKz+cmB5EByIDmQHEgODIYDCZIGw9csNTmQHEgOJAeSA8mBCedAgqQJf4HZ/ORAciA5kBxIDiQHBsOBBEmD4WuWmhxIDiQHkgPJgeTAhHNg3WWJx+RhrCdkLQzrQlgDo9d6N2PS5GxGciA5kBxIDsyRA9YWsgaQtYks7msdoH7ImkLWlLN2Eh0Rayj1c29cQ7/QM/SNhYT7XX/I9XZNsF6S9Y7mo5+03QdZh6leMynal9/jwYGxBEkWbrRlSezpZjGx7ETj0WGyFcmB5EByYKE4ABw98cQTZUFGcn7HHXd83eKNdV2AiUVk7ddmrzYLCLsHWJkrKecXv/hF2Q/OCvz2h6x3XehUHlBnkUrbplig2ArYFjKeK0izN52tkZRnr7l6IeVO9eax0XFgLEGSzQPtlWZ3ZZ3HSqoJkkbXSbLm5EByIDkwCA7w5jz44IOtu+++u2w5ZC9GW4F0AytABXBx5ZVXlt0WbEdiK5D5gCQrdtv/zUa19mKzxUi3euPZASN7wl122WUl0hHbqMwVJD311FNFx3l+WylZZTtW8Y668ns8ODCWOUmxRYftRPzPekhKDiQHkgPJgeniAOPX3p22DbHRtc3OhbO6EV3gGoa0/3mAAKv5EMAjbCd0xqsEgK2PABnhMaDGFiRA0nzAjVCbjdkj1Jg6bn2cH935sQRJNiIU59X5xal9kpIDyYHkQHJgujjAAyNcZvNWe6k9/fTTZa/Nbk9pz0YgiQFto2qbxTb3Set2b/M4cBN7pPWrZ+yZZtPd4447rvWpT32qbFQbZTTL7/Xbc9vfk47Lfdh6cWr054YaboPcWQmB3v2GynVynbQOqdXo3MDQkeQo6ZDQu3s67RjPGuB9Uo9BZwNCZblHUqB7dNAon7sTqofk1e9eVgWg5vpwv9p0kcWhDepQf2x86B7tc6zeaVqZ2uGjTO2Jtiu3Hlyu1RZ1aIfylKs+VpbPfC2m0XezbEFyIDmQHHg9B8i5d73rXa2tttqq9cgjj7SeffbZlnydmZmZdeSjO8ng559/vlxDjm+99dYlVFWXSoaGjiHXyXmJ3SFva/nsXOgB3+QtXcPDg9xDXtNN2ol829w8NlqnS+oy6/rJckRPKCd0j2PqU5ZPtMFxpIzQN/QG3UD+K4MOqOtbfUf+HSQHhgaSAItVq1a1brzxxtajjz5a/tdB5BuxBj72sY+V2LKH1Wl0BJ3l97//fUnSk2BngOgsXKz77bdfa999910HKOlML7/8cuu+++5rPf7448V9Gzsrv+UtbynlH3bYYWtctMo3IL/xjW8UcGLQiTerUz177LFH69RTTy3teeCBB1rLly8v55S55ZZblti5ZMMf/ehHLeUfc8wxrXe84x1rOjGAduedd5aYuzLNpBA732677crz7rrrrmsS/gwKyepi3WLUBuZvf/vbUt9MW2B8/OMfbx188MHrAMlBdowsOzmQHEgODIMDjELeGXJdvpFQGi8RMFKT0NTKlSuL4fue97yn9YEPfKA+XYAFkLVixYqWnJ9XXnml6IfNNtustc8++7T23HPPlv9romvU/+qrr7ZuueWW4qVSBt3w9re/vXi5jjrqqNZb3/rWchvDXtL4zTffXOqTy6QtAJAk9Oeee67kOWmn+pVNN0jOpq94zGqis5r0xz/+sXXPPfe0HnvssaInXYMXO++8c+uggw5qvfOd73wdsGqWkb8XjgNDA0k6FjACUOhowBFULA6tM/3tb38rFgDXKw+LTsfzsmzZstL5dLZNNtmkdOaHHnqo9fe//70AG8ABwkZmO5x//vmtH/7wh6UDm3Wgc7vWuVVtkAZEfe5znysDTOfjqYmByY3rGp0dSGLhaMP3v//90naDFyhSrgF77bXXFm+TBPMddtihlBWd/sUXX2zddNNNrVtvvbW4hj2vQffXv/61lOe5tQmwAogMyn/84x9lpgeXMwBp4AKXXMsEAqslKTmQHEgOTBsHgCTG4zPPPFN0hFljTZAk0Zps5yECqLbZZps1bGCAOnfFFVe0fvaznxXvDVlNfjKwyds//OEPrVNOOaUYoYzwAEj0DaOafOeFeuMb31jkuxlsZrKRzZ/4xCdaW2yxRfHqmH3905/+tOiYvffeuwAfch8wUj/5TX9FMjb9QtYrS/2elSwPXeFbe+idX/7yl61LLrmk6AHHJZP7pk84CRjOZ511VqmTTkwaPAeGonUBE8CGV4Xr8aMf/Whr++23L50UMIHggQkdxTRMLz9CUTrWBz/4wdbs7GwBKC+88ELrjjvuKGheRwOqgCReG9YDYOJeVoMOHB0eOLv33ntb999/f/EAQf9AGsAGCBlkOuL73//+MqPOAGXNGLRmQOjoBiaPjmmn2qEsAwkZXMoy8Lhtf/CDH7RuuOGGApx23333UqdEP7wwk0N5y9ueqfe+972t973vfWsGiXYQAkCaWRtAnmdI62HwgyFrSA4kB0bDAQYkWchg5FEHCAClIGAnps0LnwEaPOxBAA7vDjnPuN1rr71KOI5spxd4Zm6//fYi20888cSSdE1WM0aREBs5K0IhkZxhSoYDTzxT5C+QhMh3oTSgxofeog8Y0/QczxEdt+2225ZrhRHJfHqOPBdtoLuibvcjBrpICz1Fx9Bh4S0D/EQzzMTbdNNNi34QzUgaPAeGApJ0YGAIIl60aFHr5JNPLi/a4wEyAIYOJCQF7CAdGAEKn//850tIzm9AxPW8UlA1D5QBppPrqDr6/vvvX5LqDKQggIen5uGHH2699NJLxbvkPh00Oqsw18UXX1wsFPlFBgrPlBCcDnnOOecUt60yWRcA1fHHH1+sBOUAd75ZA0KKAB5P1wUXXFAGRrTFYFMP75oBweIxeAwcFgiQBPy5L6yX4EeUkd/JgeRAcmBaOEDuATcACsOTbOdJJxdRrJ3Hg7/TTjuVHKZ4dgBKaMpSAgxRclOqRORwHnjggcWQvvrqqwsIAWBcR6bSSWQ54HH00Ue3TjvttCLDlU1nCJ8BZwxougcxwsOLE//zVvFkOU4nHHnkkWvaDuypR/sY3aIX6ibvgaxwCPzud78relAu1EknnVTKiWcQqqMLPvOZzxQwyJmQIKm8joH/GQpIAhZ8eJHEVIGCIKDGi4f8WRHCUpA6C0AH4YUBXoKAEOBG4hxABVDoaNZT4uXZZZddSueB5nVM5+X78OAoFxlU0eH99j+gJCdJzBhAQq4LFywr5yMf+Ug57o8O7lr5VEJo2hBAxgDn2uUNEkf2HNEO7RcXNwAtohaDhuXgfm01SAwCnquk5EByIDmwMXDgzW9+c0ueZshP3wGSgBXgiYy0jtLMf71IZDxD2XlJzuR0eHzC4CaHgS/Hhb2AHrKezCfjyVzyVrnkc5C6gSfyPeR3ABrXaEtcL2XEdfQSEBbtdp16Tz/99OKlAs7oPLoodBC9BzjxnkkcF2VxDx3jOPIM9GBENzgEPK/jSYPlwFBAEoDy2muvlVyeTquTmtnABanTASiQvY6rAwJUkXMUrNCpWB4GiI4GoLhPBzJgABuo3IDgPZJoLZ6tE6PwHPk/ytDZtC2Qu3PuZcGo37mwHpxD6gR4nI8O77hn5Y4VOrvmmmtKuM6zGJCe0bU6OZLPFMnl2uUcYeGTlBxIDiQHNhYOyDnldbnuuuuKkck7I+EZSabmoQcygAhGJSK/efzJWiQaYWo+/UCPkLeADTkOSLleJCFmTJO3jgEucohqIu8ZrIjsdl1Nyiaz6Sq6hRwXvdDGJjkO+NAD9Jfy1K0Mx7SHlwzJn+INs6CyspHnES1hfCP10U8Jkgo7BvpnKCBJB+AZ0jlqJB5P5lh9XGeMDgS06EQ1NTurjuoYwCH2LKTGPQo8OS6G7Rr168g6pk+Qa3RCnq4o2zekbvAZLDV4qu8DlCD+mlgJ6jYQgDODWHlRtuexvICkPB6v6Ohxjd/ampQcSA4kBzYWDpB5DGZgQh4RYERvkKXAAc+QyAK5SZ4HuYa+QK4Fgsh38heRqwxZQIWMj1BbDXzI+FoHxX2lgC5/Qo8AMnQcMnu51i1xK/3iU1PoA9fTGRHp8AxCjXRHPJe20kEcAe5jnMf9dZn5/8JzYF3tvvDllxLDAxPgoVkNV6YBoHPwHOk0AYzqwVDfFx3EeZ2Pu1PS25e//OUyOHimWCU6k7wmgEfCtw8LI+6PMpUT7XRMG5Rr4Lg31ryI630rwzntdr0P0nad28AU5+ayjfiz8+rx2wfI8swGWgzqOOfapORAciA5sLFwAIAhtwGkmNElOiAqIBUDSCJXayJPQ56bkCPtAlihVxC5TI6Ty2QrEOa8Wc9xXy2/67LjfH0s/o9zdIdyUQ3Y4jrfjPMAUuEF057QRZ4hdJ40C+knwGBEGZThGjqJnqBTeN6SBs+BoYAkHR8Y4E4UioqFuOLxTJm87bbbSqe98MILS6cOT0p0xLi2+R2dW/gKANKBPv3pT7esbQEgOa9u8WwJ30iZncptHuN+letkMMmpCm9Y3QauUR05OrhzvES8QY4btAa9QRlgyrWEgOcGkNSrnVG/7/i/riv/Tw4kB5ID08wBclCep1llcodMgCF/hcvoDbI0QmD44HqhsvDSkPWAlGvJa+cBJGWRucoCkhyvab4y1310FQCHGOsBzuryJXWbnEQ/CaUBVtpFJyiDfuDlQjxGZsZ5Vs8Qx7TdJCI6FNByf9LgObDWZznAukyflInv5ZrqD3AECWeZSu+4afFNj05c1/zWyX1cj3h0dFCkA5kpweIwaCB4U0O5cBHU3xwk5UTjj/sNWN9m5/FURSKdeLDQ3sr22hg6ujLDE8QlKsnOtYCbdgFGOr/BLNZujaWlS5eWGRG8aKyEpORAciA5sDFzgFw2IcaHd53xbFo92crgpEeaslL+JnlLtspHNSFG1AJ4IXP9b+r8eeedV3JEpT8ErU8P9DqvTZEWAnjx7si/VRddF0RXWODYTGbesdBxyvZhvPMKiX7QV/SDmc90mmfwUdeTTz5ZIiWXXnppya/ybEmD58BQPElmHJjSLnHOWhUAxezsbOkskvGADeEsMxt0ePFnv7kiwx1Zs8Lg0bHivHNQuLWNrFYKDPEAcVe6DsDRQWO2A/ACOOmgOp9ylOlTE4vFTAVJ4DqtJGwd3syFVe01LQAvFg6KwaQ8A9zzejYDRieXgBiLYXpeFpIBZrkC5/0fz9MtLFm3Lf9PDiQHkgPTxgFylFeFDLVOEdCDzEaTNhEeo3hu15OfFvPlKXKP5WF4XdxDppPDksHlKjFgI1xH5kZ0wf9N7z1ZHp6c+jw5zTD2Iav9ttadmczXX399maijXGscuYaeAPSQNf/oJvfQQe7neQKc5GNZ3sB6S9b703ZleEY6yDqDZkPHZKY6ehH8yO+F58BQQBKwYj0kAIbn5aqrrmrdddddZTDo2DoKgBSLfOlYOixUHeCj+eisCSDGdTozFA/QSHbjmTIwLBUg5AXYcE3yLkHyfvugGGSdULl7dGqrrer0XJ1cpQal+nVSHZZnTDuUpS3cv9bpAKRYQgaoNTK4gF0r7CgkZ7mCI444oiRv86i53zMBkc0B23z+/J0cSA4kB6aVAwCDdeiEyQAUXiQhqG4EJJH1Zn1ZDdt0egY3Oco4J5dN87fNlMgGcgyRt+R5U+bWv+mC+O2bviD/lUFfWWLggAMOKLPrALvLL7+8yH73iZCQ7fSTmXcmEoVBrH7/I96oJUuWFB3Gm2TlbXpSffQGz5JZ1meffXZZrqDclH8GzoH/bbsgzxt4Le0KeF90ch4fHUaHhqABmcWLF7fsgcNScI7HByiRywQ8ARe1i5UnCMo2M8x51/HScMUCVjo94AV4yA2KzmkFU8e0RaeWs6QcVodjAJGO2kTorBptB4h0cIMPCLKliPoMQvlLjjnHKmAtWDZf24Eqz6OTA1DKktBtQDjvegOB9wzIUx9eNJflH8Z7yjqSA8mB5MCoORDGIh1BTtvbk3wmKzsR0EJe8uiQ+YAVeeubkW5ByeOOO67kK4VBTEfw5oQxTO6S1UFktvNkPBBmdhzdQHfRIwDLbDsiQnfQOfSRrVV4qtTrOvqF9+rYY48tMp+hTscJx5H5woSMZTlNdJxUEWCOHgHA6AQgjJ6Qa2WRSXomk7bjLQ3++w3tF7Xu4g8DrhMiBgQC6AAdwIcOFq5U60G4RiflIdLpa+Aipuy8DmgA6ZQxeIS/gB5lOO9clK9zSvD2rT7AxiDk8dERdUyAK8pyjgdIWwEw7lvla5cBohyd1rL1cpeE44C+uB8rtdPsDG3mujXgPLNOD0gFGRAGlWUMDFRt4W1KSg4kB5IDGxsHgAwedzk+VBQA1FzHqBNPAB86BggBknhpGObkPTADfAWR42SzepTtmtoYJ6/lkzLa434ynz4wRV+76BbhwZD55Dh9Qu4DWJ6DHNd+8h6YQiIZrlEGnUEvKBvRRTxi2uYZ/NZu96uPPkwaHgeGDpKG92gbXpPBcO6555aYMq8QQKSTAnMsCTPmuG8NCmGzr371q6UDR2ff8BZkCcmB5EByIDmw0BwATnrJ6fWdX+j2ZHnjy4Gh5CSN7+P3bhnvFbcmsCS3iBeJy5PlILdJQh7PT4THHE9KDiQHkgPJgfHmQC+ApOXrOz/eT5etW0gOpCepBze5Srk9JZoLu4kPA01cpv4XjuPCFevOOHEPRuap5EByIDmQHEgOTCAHEiSt56WJMZthwYsEFNWxZ/+Ld0v2lsuUlBxIDiQHkgPJgeTA9HAgQdL0vMt8kuRAciA5kBxIDiQHFpADnedTLmAFWVRyIDmQHEgOJAeSA8mBSeRAgqRJfGvZ5uRAciA5kBxIDiQHBs6BBEkDZ3FWkBxIDiQHkgPJgeTAJHIgQdIkvrVsc3IgOZAcSA4kB5IDA+dAgqSBszgrSA4kB5IDyYHkQHJgEjmQIGkS31q2OTmQHEgOJAeSA8mBgXMgQdLAWZwVJAeSA8mB5EByIDkwiRxIkDSJby3bnBxIDiQHkgPJgeTAwDmQIGngLM4KkgPJgeRAciA5kByYRA4kSJrEt5ZtTg4kB5IDyYHkQHJg4BxIkDRwFmcFyYHkQHIgOZAcSA5MIgcSJE3iW8s2JweSA8mB5EByIDkwcA4kSBo4i7OC5EByIDmQHEgOJAcmkQMJkibxrWWbkwPJgeRAciA5kBwYOAcSJA2cxVlBciA5kBxIDiQHkgOTyIEESZP41rLNyYHkQHIgOZAcSA4MnAMJkgbO4qwgOZAcSA4kB5IDyYFJ5ECCpEl8a9nm5EByIDmQHEgOJAcGzoEESQNncVaQHEgOJAeSA8mB5MAkciBB0iS+tWxzciA5kBxIDiQHkgMD58D/a9dwx8BryQqSA8mB5EByIDmQHEgOTBgH/j+EvTS35wJzGAAAAABJRU5ErkJggg==;clipPath=inset(0.93% 2.67% 43.06% 14%);" parent="1" vertex="1">
          <mxGeometry x="300" y="130" width="464.88" height="225" as="geometry" />
        </mxCell>
        <mxCell id="apr-sub5BIUsWkMAFzWg-15" style="edgeStyle=orthogonalEdgeStyle;rounded=0;orthogonalLoop=1;jettySize=auto;html=1;entryX=0;entryY=0.5;entryDx=0;entryDy=0;entryPerimeter=0;fontSize=30;strokeColor=#FF0000;endArrow=none;endFill=0;strokeWidth=5;" parent="1" target="apr-sub5BIUsWkMAFzWg-3" edge="1">
          <mxGeometry relative="1" as="geometry">
            <mxPoint x="190" y="312" as="sourcePoint" />
            <mxPoint x="270" y="450" as="targetPoint" />
            <Array as="points">
              <mxPoint x="190" y="312" />
              <mxPoint x="190" y="480" />
            </Array>
          </mxGeometry>
        </mxCell>
        <mxCell id="apr-sub5BIUsWkMAFzWg-17" style="edgeStyle=orthogonalEdgeStyle;rounded=0;orthogonalLoop=1;jettySize=auto;html=1;fontSize=30;strokeColor=#000000;strokeWidth=2;endArrow=none;endFill=0;" parent="1" edge="1">
          <mxGeometry relative="1" as="geometry">
            <mxPoint x="488" y="350" as="sourcePoint" />
            <mxPoint x="530" y="441" as="targetPoint" />
            <Array as="points">
              <mxPoint x="488" y="380" />
              <mxPoint x="530" y="380" />
              <mxPoint x="530" y="441" />
            </Array>
          </mxGeometry>
        </mxCell>
        <mxCell id="apr-sub5BIUsWkMAFzWg-18" style="edgeStyle=orthogonalEdgeStyle;rounded=0;orthogonalLoop=1;jettySize=auto;html=1;fontSize=30;strokeColor=#000000;strokeWidth=2;endArrow=none;endFill=0;" parent="1" edge="1">
          <mxGeometry relative="1" as="geometry">
            <mxPoint x="468" y="350" as="sourcePoint" />
            <mxPoint x="510" y="440" as="targetPoint" />
            <Array as="points">
              <mxPoint x="468" y="393" />
              <mxPoint x="510" y="393" />
            </Array>
          </mxGeometry>
        </mxCell>
        <mxCell id="apr-sub5BIUsWkMAFzWg-19" value="&lt;font style=&quot;font-size: 20px;&quot;&gt;Shunt&lt;/font&gt;" style="text;html=1;align=center;verticalAlign=middle;resizable=0;points=[];autosize=1;strokeColor=none;fillColor=none;fontSize=30;" parent="1" vertex="1">
          <mxGeometry x="480" y="435" width="80" height="50" as="geometry" />
        </mxCell>
        <mxCell id="apr-sub5BIUsWkMAFzWg-23" value="" style="line;strokeWidth=2;rotatable=0;dashed=0;labelPosition=right;align=left;verticalAlign=middle;spacingTop=0;spacingLeft=6;points=[];portConstraint=eastwest;fontSize=20;fillColor=#E6E6E6;strokeColor=#000000;" parent="1" vertex="1">
          <mxGeometry x="400" y="435" width="70" height="10" as="geometry" />
        </mxCell>
        <mxCell id="apr-sub5BIUsWkMAFzWg-24" value="" style="line;strokeWidth=5;rotatable=0;dashed=0;labelPosition=right;align=left;verticalAlign=middle;spacingTop=0;spacingLeft=6;points=[];portConstraint=eastwest;fontSize=20;fillColor=#E6E6E6;strokeColor=#3333FF;" parent="1" vertex="1">
          <mxGeometry x="530" y="435" width="230" height="10" as="geometry" />
        </mxCell>
        <mxCell id="apr-sub5BIUsWkMAFzWg-29" value="EV Vehicle" style="text;html=1;align=center;verticalAlign=middle;resizable=0;points=[];autosize=1;strokeColor=none;fillColor=none;fontSize=20;strokeWidth=5;" parent="1" vertex="1">
          <mxGeometry x="760" y="420" width="120" height="40" as="geometry" />
        </mxCell>
        <mxCell id="apr-sub5BIUsWkMAFzWg-32" value="" style="line;strokeWidth=2;direction=south;html=1;strokeColor=#000000;fontSize=20;fillColor=#E6E6E6;" parent="1" vertex="1">
          <mxGeometry x="445" y="350" width="10" height="90" as="geometry" />
        </mxCell>
        <mxCell id="apr-sub5BIUsWkMAFzWg-34" value="" style="line;strokeWidth=2;direction=south;html=1;strokeColor=#000000;fontSize=20;fillColor=#E6E6E6;" parent="1" vertex="1">
          <mxGeometry x="425" y="350" width="10" height="130" as="geometry" />
        </mxCell>
        <mxCell id="apr-sub5BIUsWkMAFzWg-39" value="Interface Box" style="text;html=1;align=center;verticalAlign=middle;resizable=0;points=[];autosize=1;strokeColor=none;fillColor=none;fontSize=30;" parent="1" vertex="1">
          <mxGeometry x="416" y="60" width="200" height="50" as="geometry" />
        </mxCell>
      </root>
    </mxGraphModel>
  </diagram>
</mxfile>
